# Tiled2Unity generated file. Do not modify by hand.
# Wavefront file for 'church_mesh_0003.obj'

# Vertices (Count = 36)
v -144 -16 0
v -160 -16 0
v -160 0 0
v -144 0 0
v -112 -16 0
v -128 -16 0
v -128 0 0
v -112 0 0
v -80 -16 0
v -96 -16 0
v -96 0 0
v -80 0 0
v -48 -16 0
v -64 -16 0
v -64 0 0
v -48 0 0
v -16 -16 0
v -32 -16 0
v -32 0 0
v -16 0 0
v -112 -32 0
v -128 -32 0
v -128 -16 0
v -112 -16 0
v -48 -32 0
v -64 -32 0
v -64 -16 0
v -48 -16 0
v 0 -48 0
v -16 -48 0
v -16 -32 0
v 0 -32 0
v 0 -64 0
v -16 -64 0
v -16 -48 0
v 0 -48 0

# Texture cooridinates (Count = 24)
vt 0.8429752 0.4676806
vt 0.8595041 0.4676806
vt 0.8595041 0.4828897
vt 0.8429752 0.4828897
vt 0.8780992 0.9363118
vt 0.8946281 0.9363118
vt 0.8946281 0.9515209
vt 0.8780992 0.9515209
vt 0.7727273 0.8555133
vt 0.7892562 0.8555133
vt 0.7892562 0.8707224
vt 0.7727273 0.8707224
vt 0.8780992 0.9039924
vt 0.8946281 0.9039924
vt 0.8946281 0.9192015
vt 0.8780992 0.9192015
vt 0.9483471 0.3545628
vt 0.9648761 0.3545628
vt 0.9648761 0.3697718
vt 0.9483471 0.3697718
vt 0.9483471 0.338403
vt 0.9648761 0.338403
vt 0.9648761 0.3536122
vt 0.9483471 0.3536122

# Normal
vn 0 0 -1

# Mesh description
g church_mesh_0003

# Faces
f 1/1/1 2/2/1 3/3/1 4/4/1
f 5/5/1 6/6/1 7/7/1 8/8/1
f 9/9/1 10/10/1 11/11/1 12/12/1
f 13/5/1 14/6/1 15/7/1 16/8/1
f 17/1/1 18/2/1 19/3/1 20/4/1
f 21/13/1 22/14/1 23/15/1 24/16/1
f 25/13/1 26/14/1 27/15/1 28/16/1
f 29/17/1 30/18/1 31/19/1 32/20/1
f 33/21/1 34/22/1 35/23/1 36/24/1

