# Tiled2Unity generated file. Do not modify by hand.
# Wavefront file for 'swamp_mesh_0004.obj'

# Vertices (Count = 92)
v -336 -16 0
v -352 -16 0
v -352 0 0
v -336 0 0
v -48 -16 0
v -64 -16 0
v -64 0 0
v -48 0 0
v -32 -16 0
v -48 -16 0
v -48 0 0
v -32 0 0
v -272 -32 0
v -288 -32 0
v -288 -16 0
v -272 -16 0
v -256 -32 0
v -272 -32 0
v -272 -16 0
v -256 -16 0
v -208 -32 0
v -224 -32 0
v -224 -16 0
v -208 -16 0
v -192 -32 0
v -208 -32 0
v -208 -16 0
v -192 -16 0
v -48 -32 0
v -64 -32 0
v -64 -16 0
v -48 -16 0
v -32 -32 0
v -48 -32 0
v -48 -16 0
v -32 -16 0
v -272 -48 0
v -288 -48 0
v -288 -32 0
v -272 -32 0
v -256 -48 0
v -272 -48 0
v -272 -32 0
v -256 -32 0
v -208 -48 0
v -224 -48 0
v -224 -32 0
v -208 -32 0
v -192 -48 0
v -208 -48 0
v -208 -32 0
v -192 -32 0
v -48 -48 0
v -64 -48 0
v -64 -32 0
v -48 -32 0
v -32 -48 0
v -48 -48 0
v -48 -32 0
v -32 -32 0
v -48 -64 0
v -64 -64 0
v -64 -48 0
v -48 -48 0
v -32 -64 0
v -48 -64 0
v -48 -48 0
v -32 -48 0
v -48 -80 0
v -64 -80 0
v -64 -64 0
v -48 -64 0
v -32 -80 0
v -48 -80 0
v -48 -64 0
v -32 -64 0
v -144 -96 0
v -160 -96 0
v -160 -80 0
v -144 -80 0
v -320 -112 0
v -336 -112 0
v -336 -96 0
v -320 -96 0
v -272 -112 0
v -288 -112 0
v -288 -96 0
v -272 -96 0
v -176 -112 0
v -192 -112 0
v -192 -96 0
v -176 -96 0

# Texture cooridinates (Count = 28)
vt 0.08780992 0.4515209
vt 0.1043388 0.4515209
vt 0.1043388 0.4667301
vt 0.08780992 0.4667301
vt 0.3161157 0.8070343
vt 0.3326446 0.8070343
vt 0.3326446 0.8222433
vt 0.3161157 0.8222433
vt 0.2809917 0.8070343
vt 0.2975207 0.8070343
vt 0.2975207 0.8222433
vt 0.2809917 0.8222433
vt 0.4741735 0.4515209
vt 0.4907025 0.4515209
vt 0.4907025 0.4667301
vt 0.4741735 0.4667301
vt 0.3863636 0.4515209
vt 0.4028926 0.4515209
vt 0.4028926 0.4667301
vt 0.3863636 0.4667301
vt 0.2985537 0.8070343
vt 0.3150826 0.8070343
vt 0.3150826 0.8222433
vt 0.2985537 0.8222433
vt 0.4741735 0.8231939
vt 0.4907025 0.8231939
vt 0.4907025 0.838403
vt 0.4741735 0.838403

# Normal
vn 0 0 -1

# Mesh description
g swamp_mesh_0004

# Faces
f 1/1/1 2/2/1 3/3/1 4/4/1
f 5/5/1 6/6/1 7/7/1 8/8/1
f 9/9/1 10/10/1 11/11/1 12/12/1
f 13/13/1 14/14/1 15/15/1 16/16/1
f 17/17/1 18/18/1 19/19/1 20/20/1
f 21/13/1 22/14/1 23/15/1 24/16/1
f 25/17/1 26/18/1 27/19/1 28/20/1
f 29/5/1 30/6/1 31/7/1 32/8/1
f 33/9/1 34/10/1 35/11/1 36/12/1
f 37/19/1 38/20/1 39/17/1 40/18/1
f 41/15/1 42/16/1 43/13/1 44/14/1
f 45/19/1 46/20/1 47/17/1 48/18/1
f 49/15/1 50/16/1 51/13/1 52/14/1
f 53/21/1 54/22/1 55/23/1 56/24/1
f 57/5/1 58/6/1 59/7/1 60/8/1
f 61/21/1 62/22/1 63/23/1 64/24/1
f 65/21/1 66/22/1 67/23/1 68/24/1
f 69/21/1 70/22/1 71/23/1 72/24/1
f 73/25/1 74/26/1 75/27/1 76/28/1
f 77/1/1 78/2/1 79/3/1 80/4/1
f 81/1/1 82/2/1 83/3/1 84/4/1
f 85/1/1 86/2/1 87/3/1 88/4/1
f 89/1/1 90/2/1 91/3/1 92/4/1

