# Tiled2Unity generated file. Do not modify by hand.
# Wavefront file for 'houx_house_mesh_0002.obj'

# Vertices (Count = 92)
v -128 -16 0
v -144 -16 0
v -144 0 0
v -128 0 0
v -112 -16 0
v -128 -16 0
v -128 0 0
v -112 0 0
v -96 -16 0
v -112 -16 0
v -112 0 0
v -96 0 0
v -80 -16 0
v -96 -16 0
v -96 0 0
v -80 0 0
v -64 -16 0
v -80 -16 0
v -80 0 0
v -64 0 0
v -48 -16 0
v -64 -16 0
v -64 0 0
v -48 0 0
v -32 -16 0
v -48 -16 0
v -48 0 0
v -32 0 0
v -16 -16 0
v -32 -16 0
v -32 0 0
v -16 0 0
v 0 -16 0
v -16 -16 0
v -16 0 0
v 0 0 0
v -128 -32 0
v -144 -32 0
v -144 -16 0
v -128 -16 0
v -112 -32 0
v -128 -32 0
v -128 -16 0
v -112 -16 0
v -96 -32 0
v -112 -32 0
v -112 -16 0
v -96 -16 0
v -80 -32 0
v -96 -32 0
v -96 -16 0
v -80 -16 0
v -64 -32 0
v -80 -32 0
v -80 -16 0
v -64 -16 0
v -48 -32 0
v -64 -32 0
v -64 -16 0
v -48 -16 0
v -32 -32 0
v -48 -32 0
v -48 -16 0
v -32 -16 0
v -16 -32 0
v -32 -32 0
v -32 -16 0
v -16 -16 0
v 0 -32 0
v -16 -32 0
v -16 -16 0
v 0 -16 0
v -96 -80 0
v -112 -80 0
v -112 -64 0
v -96 -64 0
v -80 -80 0
v -96 -80 0
v -96 -64 0
v -80 -64 0
v -64 -80 0
v -80 -80 0
v -80 -64 0
v -64 -64 0
v -48 -80 0
v -64 -80 0
v -64 -64 0
v -48 -64 0
v -32 -80 0
v -48 -80 0
v -48 -64 0
v -32 -64 0

# Texture cooridinates (Count = 44)
vt 0.2283058 0.289924
vt 0.2448347 0.289924
vt 0.2448347 0.3051331
vt 0.2283058 0.3051331
vt 0.6673554 0.6777567
vt 0.6838843 0.6777567
vt 0.6838843 0.6929657
vt 0.6673554 0.6929657
vt 0.2107438 0.289924
vt 0.2272727 0.289924
vt 0.2272727 0.3051331
vt 0.2107438 0.3051331
vt 0.8780992 0.7585551
vt 0.8946281 0.7585551
vt 0.8946281 0.7737643
vt 0.8780992 0.7737643
vt 0.8605372 0.7908745
vt 0.8770661 0.7908745
vt 0.8770661 0.8060837
vt 0.8605372 0.8060837
vt 0.8254132 0.7585551
vt 0.8419421 0.7585551
vt 0.8419421 0.7737643
vt 0.8254132 0.7737643
vt 0.8429752 0.7908745
vt 0.8595041 0.7908745
vt 0.8595041 0.8060837
vt 0.8429752 0.8060837
vt 0.8078513 0.7908745
vt 0.8243802 0.7908745
vt 0.8243802 0.8060837
vt 0.8078513 0.8060837
vt 0.5444215 0.4676806
vt 0.5609504 0.4676806
vt 0.5609504 0.4828897
vt 0.5444215 0.4828897
vt 0.5268595 0.4676806
vt 0.5433884 0.4676806
vt 0.5433884 0.4828897
vt 0.5268595 0.4828897
vt 0.5092975 0.4676806
vt 0.5258265 0.4676806
vt 0.5258265 0.4828897
vt 0.5092975 0.4828897

# Normal
vn 0 0 -1

# Mesh description
g houx_house_mesh_0002

# Faces
f 1/1/1 2/2/1 3/3/1 4/4/1
f 5/5/1 6/6/1 7/7/1 8/8/1
f 9/9/1 10/10/1 11/11/1 12/12/1
f 13/5/1 14/6/1 15/7/1 16/8/1
f 17/5/1 18/6/1 19/7/1 20/8/1
f 21/5/1 22/6/1 23/7/1 24/8/1
f 25/5/1 26/6/1 27/7/1 28/8/1
f 29/5/1 30/6/1 31/7/1 32/8/1
f 33/5/1 34/6/1 35/7/1 36/8/1
f 37/13/1 38/14/1 39/15/1 40/16/1
f 41/17/1 42/18/1 43/19/1 44/20/1
f 45/21/1 46/22/1 47/23/1 48/24/1
f 49/21/1 50/22/1 51/23/1 52/24/1
f 53/21/1 54/22/1 55/23/1 56/24/1
f 57/25/1 58/26/1 59/27/1 60/28/1
f 61/21/1 62/22/1 63/23/1 64/24/1
f 65/21/1 66/22/1 67/23/1 68/24/1
f 69/29/1 70/30/1 71/31/1 72/32/1
f 73/33/1 74/34/1 75/35/1 76/36/1
f 77/37/1 78/38/1 79/39/1 80/40/1
f 81/37/1 82/38/1 83/39/1 84/40/1
f 85/37/1 86/38/1 87/39/1 88/40/1
f 89/41/1 90/42/1 91/43/1 92/44/1

