# Tiled2Unity generated file. Do not modify by hand.
# Wavefront file for 'town_mesh_0002.obj'

# Vertices (Count = 440)
v -176 -176 0
v -192 -176 0
v -192 -160 0
v -176 -160 0
v -160 -176 0
v -176 -176 0
v -176 -160 0
v -160 -160 0
v -96 -176 0
v -112 -176 0
v -112 -160 0
v -96 -160 0
v -80 -176 0
v -96 -176 0
v -96 -160 0
v -80 -160 0
v -176 -192 0
v -192 -192 0
v -192 -176 0
v -176 -176 0
v -160 -192 0
v -176 -192 0
v -176 -176 0
v -160 -176 0
v -96 -192 0
v -112 -192 0
v -112 -176 0
v -96 -176 0
v -80 -192 0
v -96 -192 0
v -96 -176 0
v -80 -176 0
v -48 -208 0
v -64 -208 0
v -64 -192 0
v -48 -192 0
v 0 -208 0
v -16 -208 0
v -16 -192 0
v 0 -192 0
v -48 -224 0
v -64 -224 0
v -64 -208 0
v -48 -208 0
v -32 -224 0
v -48 -224 0
v -48 -208 0
v -32 -208 0
v -16 -224 0
v -32 -224 0
v -32 -208 0
v -16 -208 0
v 0 -224 0
v -16 -224 0
v -16 -208 0
v 0 -208 0
v -48 -240 0
v -64 -240 0
v -64 -224 0
v -48 -224 0
v -16 -240 0
v -32 -240 0
v -32 -224 0
v -16 -224 0
v 0 -240 0
v -16 -240 0
v -16 -224 0
v 0 -224 0
v -64 -272 0
v -80 -272 0
v -80 -256 0
v -64 -256 0
v -48 -272 0
v -64 -272 0
v -64 -256 0
v -48 -256 0
v -32 -272 0
v -48 -272 0
v -48 -256 0
v -32 -256 0
v -16 -272 0
v -32 -272 0
v -32 -256 0
v -16 -256 0
v -64 -288 0
v -80 -288 0
v -80 -272 0
v -64 -272 0
v -48 -288 0
v -64 -288 0
v -64 -272 0
v -48 -272 0
v -32 -288 0
v -48 -288 0
v -48 -272 0
v -32 -272 0
v -16 -288 0
v -32 -288 0
v -32 -272 0
v -16 -272 0
v 0 -288 0
v -16 -288 0
v -16 -272 0
v 0 -272 0
v -608 -304 0
v -624 -304 0
v -624 -288 0
v -608 -288 0
v -592 -304 0
v -608 -304 0
v -608 -288 0
v -592 -288 0
v -576 -304 0
v -592 -304 0
v -592 -288 0
v -576 -288 0
v -512 -304 0
v -528 -304 0
v -528 -288 0
v -512 -288 0
v -496 -304 0
v -512 -304 0
v -512 -288 0
v -496 -288 0
v -480 -304 0
v -496 -304 0
v -496 -288 0
v -480 -288 0
v -64 -304 0
v -80 -304 0
v -80 -288 0
v -64 -288 0
v -48 -304 0
v -64 -304 0
v -64 -288 0
v -48 -288 0
v -32 -304 0
v -48 -304 0
v -48 -288 0
v -32 -288 0
v -16 -304 0
v -32 -304 0
v -32 -288 0
v -16 -288 0
v 0 -304 0
v -16 -304 0
v -16 -288 0
v 0 -288 0
v -608 -320 0
v -624 -320 0
v -624 -304 0
v -608 -304 0
v -592 -320 0
v -608 -320 0
v -608 -304 0
v -592 -304 0
v -576 -320 0
v -592 -320 0
v -592 -304 0
v -576 -304 0
v -512 -320 0
v -528 -320 0
v -528 -304 0
v -512 -304 0
v -496 -320 0
v -512 -320 0
v -512 -304 0
v -496 -304 0
v -480 -320 0
v -496 -320 0
v -496 -304 0
v -480 -304 0
v -304 -320 0
v -320 -320 0
v -320 -304 0
v -304 -304 0
v -608 -336 0
v -624 -336 0
v -624 -320 0
v -608 -320 0
v -592 -336 0
v -608 -336 0
v -608 -320 0
v -592 -320 0
v -576 -336 0
v -592 -336 0
v -592 -320 0
v -576 -320 0
v -512 -336 0
v -528 -336 0
v -528 -320 0
v -512 -320 0
v -496 -336 0
v -512 -336 0
v -512 -320 0
v -496 -320 0
v -480 -336 0
v -496 -336 0
v -496 -320 0
v -480 -320 0
v -336 -336 0
v -352 -336 0
v -352 -320 0
v -336 -320 0
v -320 -336 0
v -336 -336 0
v -336 -320 0
v -320 -320 0
v -304 -336 0
v -320 -336 0
v -320 -320 0
v -304 -320 0
v -288 -336 0
v -304 -336 0
v -304 -320 0
v -288 -320 0
v -272 -336 0
v -288 -336 0
v -288 -320 0
v -272 -320 0
v -352 -352 0
v -368 -352 0
v -368 -336 0
v -352 -336 0
v -336 -352 0
v -352 -352 0
v -352 -336 0
v -336 -336 0
v -320 -352 0
v -336 -352 0
v -336 -336 0
v -320 -336 0
v -304 -352 0
v -320 -352 0
v -320 -336 0
v -304 -336 0
v -288 -352 0
v -304 -352 0
v -304 -336 0
v -288 -336 0
v -272 -352 0
v -288 -352 0
v -288 -336 0
v -272 -336 0
v -256 -352 0
v -272 -352 0
v -272 -336 0
v -256 -336 0
v -608 -368 0
v -624 -368 0
v -624 -352 0
v -608 -352 0
v -592 -368 0
v -608 -368 0
v -608 -352 0
v -592 -352 0
v -576 -368 0
v -592 -368 0
v -592 -352 0
v -576 -352 0
v -512 -368 0
v -528 -368 0
v -528 -352 0
v -512 -352 0
v -496 -368 0
v -512 -368 0
v -512 -352 0
v -496 -352 0
v -480 -368 0
v -496 -368 0
v -496 -352 0
v -480 -352 0
v -288 -368 0
v -304 -368 0
v -304 -352 0
v -288 -352 0
v -272 -368 0
v -288 -368 0
v -288 -352 0
v -272 -352 0
v -256 -368 0
v -272 -368 0
v -272 -352 0
v -256 -352 0
v -240 -368 0
v -256 -368 0
v -256 -352 0
v -240 -352 0
v -608 -384 0
v -624 -384 0
v -624 -368 0
v -608 -368 0
v -592 -384 0
v -608 -384 0
v -608 -368 0
v -592 -368 0
v -576 -384 0
v -592 -384 0
v -592 -368 0
v -576 -368 0
v -512 -384 0
v -528 -384 0
v -528 -368 0
v -512 -368 0
v -496 -384 0
v -512 -384 0
v -512 -368 0
v -496 -368 0
v -480 -384 0
v -496 -384 0
v -496 -368 0
v -480 -368 0
v -352 -384 0
v -368 -384 0
v -368 -368 0
v -352 -368 0
v -336 -384 0
v -352 -384 0
v -352 -368 0
v -336 -368 0
v -320 -384 0
v -336 -384 0
v -336 -368 0
v -320 -368 0
v -304 -384 0
v -320 -384 0
v -320 -368 0
v -304 -368 0
v -288 -384 0
v -304 -384 0
v -304 -368 0
v -288 -368 0
v -272 -384 0
v -288 -384 0
v -288 -368 0
v -272 -368 0
v -256 -384 0
v -272 -384 0
v -272 -368 0
v -256 -368 0
v -240 -384 0
v -256 -384 0
v -256 -368 0
v -240 -368 0
v -608 -400 0
v -624 -400 0
v -624 -384 0
v -608 -384 0
v -592 -400 0
v -608 -400 0
v -608 -384 0
v -592 -384 0
v -576 -400 0
v -592 -400 0
v -592 -384 0
v -576 -384 0
v -512 -400 0
v -528 -400 0
v -528 -384 0
v -512 -384 0
v -496 -400 0
v -512 -400 0
v -512 -384 0
v -496 -384 0
v -480 -400 0
v -496 -400 0
v -496 -384 0
v -480 -384 0
v -608 -432 0
v -624 -432 0
v -624 -416 0
v -608 -416 0
v -592 -432 0
v -608 -432 0
v -608 -416 0
v -592 -416 0
v -576 -432 0
v -592 -432 0
v -592 -416 0
v -576 -416 0
v -512 -432 0
v -528 -432 0
v -528 -416 0
v -512 -416 0
v -496 -432 0
v -512 -432 0
v -512 -416 0
v -496 -416 0
v -480 -432 0
v -496 -432 0
v -496 -416 0
v -480 -416 0
v -608 -448 0
v -624 -448 0
v -624 -432 0
v -608 -432 0
v -592 -448 0
v -608 -448 0
v -608 -432 0
v -592 -432 0
v -576 -448 0
v -592 -448 0
v -592 -432 0
v -576 -432 0
v -512 -448 0
v -528 -448 0
v -528 -432 0
v -512 -432 0
v -496 -448 0
v -512 -448 0
v -512 -432 0
v -496 -432 0
v -480 -448 0
v -496 -448 0
v -496 -432 0
v -480 -432 0
v -608 -464 0
v -624 -464 0
v -624 -448 0
v -608 -448 0
v -592 -464 0
v -608 -464 0
v -608 -448 0
v -592 -448 0
v -576 -464 0
v -592 -464 0
v -592 -448 0
v -576 -448 0
v -512 -464 0
v -528 -464 0
v -528 -448 0
v -512 -448 0
v -496 -464 0
v -512 -464 0
v -512 -448 0
v -496 -448 0
v -480 -464 0
v -496 -464 0
v -496 -448 0
v -480 -448 0

# Texture cooridinates (Count = 188)
vt 0.07024793 0.7908745
vt 0.08677686 0.7908745
vt 0.08677686 0.8060837
vt 0.07024793 0.8060837
vt 0.03512397 0.7908745
vt 0.05165289 0.7908745
vt 0.05165289 0.8060837
vt 0.03512397 0.8060837
vt 0.07024793 0.8878327
vt 0.08677686 0.8878327
vt 0.08677686 0.9030418
vt 0.07024793 0.9030418
vt 0.03512397 0.8878327
vt 0.05165289 0.8878327
vt 0.05165289 0.9030418
vt 0.03512397 0.9030418
vt 0.07024793 0.7585551
vt 0.08677686 0.7585551
vt 0.08677686 0.7737643
vt 0.07024793 0.7737643
vt 0.03512397 0.7585551
vt 0.05165289 0.7585551
vt 0.05165289 0.7737643
vt 0.03512397 0.7737643
vt 0.07024793 0.8555133
vt 0.08677686 0.8555133
vt 0.08677686 0.8707224
vt 0.07024793 0.8707224
vt 0.03512397 0.8555133
vt 0.05165289 0.8555133
vt 0.05165289 0.8707224
vt 0.03512397 0.8707224
vt 0.07024793 0.4515209
vt 0.08677686 0.4515209
vt 0.08677686 0.4667301
vt 0.07024793 0.4667301
vt 0.07024793 0.8393536
vt 0.08677686 0.8393536
vt 0.08677686 0.8545628
vt 0.07024793 0.8545628
vt 0.05268595 0.8393536
vt 0.06921487 0.8393536
vt 0.06921487 0.8545628
vt 0.05268595 0.8545628
vt 0.03512397 0.8393536
vt 0.05165289 0.8393536
vt 0.05165289 0.8545628
vt 0.03512397 0.8545628
vt 0.07024793 0.8231939
vt 0.08677686 0.8231939
vt 0.08677686 0.838403
vt 0.07024793 0.838403
vt 0.05268595 0.8231939
vt 0.06921487 0.8231939
vt 0.06921487 0.838403
vt 0.05268595 0.838403
vt 0.01756198 0.8231939
vt 0.03409091 0.8231939
vt 0.03409091 0.838403
vt 0.01756198 0.838403
vt 0.2107438 0.6292776
vt 0.2272727 0.6292776
vt 0.2272727 0.6444867
vt 0.2107438 0.6444867
vt 0.1931818 0.6292776
vt 0.2097107 0.6292776
vt 0.2097107 0.6444867
vt 0.1931818 0.6444867
vt 0.1756198 0.6292776
vt 0.1921488 0.6292776
vt 0.1921488 0.6444867
vt 0.1756198 0.6444867
vt 0.2107438 0.6777567
vt 0.2272727 0.6777567
vt 0.2272727 0.6929657
vt 0.2107438 0.6929657
vt 0.1931818 0.6777567
vt 0.2097107 0.6777567
vt 0.2097107 0.6929657
vt 0.1931818 0.6929657
vt 0.1756198 0.6777567
vt 0.1921488 0.6777567
vt 0.1921488 0.6929657
vt 0.1756198 0.6929657
vt 0.03512397 0.8231939
vt 0.05165289 0.8231939
vt 0.05165289 0.838403
vt 0.03512397 0.838403
vt 0.2107438 0.6131179
vt 0.2272727 0.6131179
vt 0.2272727 0.628327
vt 0.2107438 0.628327
vt 0.1931818 0.6131179
vt 0.2097107 0.6131179
vt 0.2097107 0.628327
vt 0.1931818 0.628327
vt 0.1756198 0.6131179
vt 0.1921488 0.6131179
vt 0.1921488 0.628327
vt 0.1756198 0.628327
vt 0.2107438 0.661597
vt 0.2272727 0.661597
vt 0.2272727 0.6768061
vt 0.2107438 0.6768061
vt 0.1931818 0.661597
vt 0.2097107 0.661597
vt 0.2097107 0.6768061
vt 0.1931818 0.6768061
vt 0.1756198 0.661597
vt 0.1921488 0.661597
vt 0.1921488 0.6768061
vt 0.1756198 0.6768061
vt 0.3161157 0.7423954
vt 0.3326446 0.7423954
vt 0.3326446 0.7576046
vt 0.3161157 0.7576046
vt 0.2107438 0.5969582
vt 0.2272727 0.5969582
vt 0.2272727 0.6121673
vt 0.2107438 0.6121673
vt 0.1931818 0.5969582
vt 0.2097107 0.5969582
vt 0.2097107 0.6121673
vt 0.1931818 0.6121673
vt 0.1756198 0.5969582
vt 0.1921488 0.5969582
vt 0.1921488 0.6121673
vt 0.1756198 0.6121673
vt 0.2107438 0.6454372
vt 0.2272727 0.6454372
vt 0.2272727 0.6606464
vt 0.2107438 0.6606464
vt 0.1931818 0.6454372
vt 0.2097107 0.6454372
vt 0.2097107 0.6606464
vt 0.1931818 0.6606464
vt 0.1756198 0.6454372
vt 0.1921488 0.6454372
vt 0.1921488 0.6606464
vt 0.1756198 0.6606464
vt 0.3336777 0.6939163
vt 0.3502066 0.6939163
vt 0.3502066 0.7091255
vt 0.3336777 0.7091255
vt 0.3336777 0.6777567
vt 0.3502066 0.6777567
vt 0.3502066 0.6929657
vt 0.3336777 0.6929657
vt 0.2107438 0.7262357
vt 0.2272727 0.7262357
vt 0.2272727 0.7414448
vt 0.2107438 0.7414448
vt 0.1931818 0.7262357
vt 0.2097107 0.7262357
vt 0.2097107 0.7414448
vt 0.1931818 0.7414448
vt 0.1756198 0.7262357
vt 0.1921488 0.7262357
vt 0.1921488 0.7414448
vt 0.1756198 0.7414448
vt 0.2458678 0.710076
vt 0.2623967 0.710076
vt 0.2623967 0.7252852
vt 0.2458678 0.7252852
vt 0.2107438 0.710076
vt 0.2272727 0.710076
vt 0.2272727 0.7252852
vt 0.2107438 0.7252852
vt 0.1931818 0.710076
vt 0.2097107 0.710076
vt 0.2097107 0.7252852
vt 0.1931818 0.7252852
vt 0.1756198 0.710076
vt 0.1921488 0.710076
vt 0.1921488 0.7252852
vt 0.1756198 0.7252852
vt 0.2107438 0.6939163
vt 0.2272727 0.6939163
vt 0.2272727 0.7091255
vt 0.2107438 0.7091255
vt 0.1931818 0.6939163
vt 0.2097107 0.6939163
vt 0.2097107 0.7091255
vt 0.1931818 0.7091255
vt 0.1756198 0.6939163
vt 0.1921488 0.6939163
vt 0.1921488 0.7091255
vt 0.1756198 0.7091255

# Normal
vn 0 0 -1

# Mesh description
g town_mesh_0002

# Faces
f 1/1/1 2/2/1 3/3/1 4/4/1
f 5/5/1 6/6/1 7/7/1 8/8/1
f 9/9/1 10/10/1 11/11/1 12/12/1
f 13/13/1 14/14/1 15/15/1 16/16/1
f 17/17/1 18/18/1 19/19/1 20/20/1
f 21/21/1 22/22/1 23/23/1 24/24/1
f 25/25/1 26/26/1 27/27/1 28/28/1
f 29/29/1 30/30/1 31/31/1 32/32/1
f 33/33/1 34/34/1 35/35/1 36/36/1
f 37/33/1 38/34/1 39/35/1 40/36/1
f 41/33/1 42/34/1 43/35/1 44/36/1
f 45/33/1 46/34/1 47/35/1 48/36/1
f 49/33/1 50/34/1 51/35/1 52/36/1
f 53/33/1 54/34/1 55/35/1 56/36/1
f 57/33/1 58/34/1 59/35/1 60/36/1
f 61/33/1 62/34/1 63/35/1 64/36/1
f 65/33/1 66/34/1 67/35/1 68/36/1
f 69/37/1 70/38/1 71/39/1 72/40/1
f 73/41/1 74/42/1 75/43/1 76/44/1
f 77/41/1 78/42/1 79/43/1 80/44/1
f 81/45/1 82/46/1 83/47/1 84/48/1
f 85/49/1 86/50/1 87/51/1 88/52/1
f 89/53/1 90/54/1 91/55/1 92/56/1
f 93/53/1 94/54/1 95/55/1 96/56/1
f 97/57/1 98/58/1 99/59/1 100/60/1
f 101/45/1 102/46/1 103/47/1 104/48/1
f 105/61/1 106/62/1 107/63/1 108/64/1
f 109/65/1 110/66/1 111/67/1 112/68/1
f 113/69/1 114/70/1 115/71/1 116/72/1
f 117/73/1 118/74/1 119/75/1 120/76/1
f 121/77/1 122/78/1 123/79/1 124/80/1
f 125/81/1 126/82/1 127/83/1 128/84/1
f 129/49/1 130/50/1 131/51/1 132/52/1
f 133/49/1 134/50/1 135/51/1 136/52/1
f 137/53/1 138/54/1 139/55/1 140/56/1
f 141/53/1 142/54/1 143/55/1 144/56/1
f 145/85/1 146/86/1 147/87/1 148/88/1
f 149/89/1 150/90/1 151/91/1 152/92/1
f 153/93/1 154/94/1 155/95/1 156/96/1
f 157/97/1 158/98/1 159/99/1 160/100/1
f 161/101/1 162/102/1 163/103/1 164/104/1
f 165/105/1 166/106/1 167/107/1 168/108/1
f 169/109/1 170/110/1 171/111/1 172/112/1
f 173/113/1 174/114/1 175/115/1 176/116/1
f 177/117/1 178/118/1 179/119/1 180/120/1
f 181/121/1 182/122/1 183/123/1 184/124/1
f 185/125/1 186/126/1 187/127/1 188/128/1
f 189/129/1 190/130/1 191/131/1 192/132/1
f 193/133/1 194/134/1 195/135/1 196/136/1
f 197/137/1 198/138/1 199/139/1 200/140/1
f 201/141/1 202/142/1 203/143/1 204/144/1
f 205/145/1 206/146/1 207/147/1 208/148/1
f 209/141/1 210/142/1 211/143/1 212/144/1
f 213/113/1 214/114/1 215/115/1 216/116/1
f 217/113/1 218/114/1 219/115/1 220/116/1
f 221/141/1 222/142/1 223/143/1 224/144/1
f 225/141/1 226/142/1 227/143/1 228/144/1
f 229/141/1 230/142/1 231/143/1 232/144/1
f 233/141/1 234/142/1 235/143/1 236/144/1
f 237/113/1 238/114/1 239/115/1 240/116/1
f 241/113/1 242/114/1 243/115/1 244/116/1
f 245/113/1 246/114/1 247/115/1 248/116/1
f 249/73/1 250/74/1 251/75/1 252/76/1
f 253/77/1 254/78/1 255/79/1 256/80/1
f 257/81/1 258/82/1 259/83/1 260/84/1
f 261/149/1 262/150/1 263/151/1 264/152/1
f 265/153/1 266/154/1 267/155/1 268/156/1
f 269/157/1 270/158/1 271/159/1 272/160/1
f 273/161/1 274/162/1 275/163/1 276/164/1
f 277/161/1 278/162/1 279/163/1 280/164/1
f 281/161/1 282/162/1 283/163/1 284/164/1
f 285/161/1 286/162/1 287/163/1 288/164/1
f 289/101/1 290/102/1 291/103/1 292/104/1
f 293/105/1 294/106/1 295/107/1 296/108/1
f 297/109/1 298/110/1 299/111/1 300/112/1
f 301/165/1 302/166/1 303/167/1 304/168/1
f 305/169/1 306/170/1 307/171/1 308/172/1
f 309/173/1 310/174/1 311/175/1 312/176/1
f 313/161/1 314/162/1 315/163/1 316/164/1
f 317/161/1 318/162/1 319/163/1 320/164/1
f 321/161/1 322/162/1 323/163/1 324/164/1
f 325/161/1 326/162/1 327/163/1 328/164/1
f 329/161/1 330/162/1 331/163/1 332/164/1
f 333/161/1 334/162/1 335/163/1 336/164/1
f 337/161/1 338/162/1 339/163/1 340/164/1
f 341/161/1 342/162/1 343/163/1 344/164/1
f 345/129/1 346/130/1 347/131/1 348/132/1
f 349/133/1 350/134/1 351/135/1 352/136/1
f 353/137/1 354/138/1 355/139/1 356/140/1
f 357/177/1 358/178/1 359/179/1 360/180/1
f 361/181/1 362/182/1 363/183/1 364/184/1
f 365/185/1 366/186/1 367/187/1 368/188/1
f 369/61/1 370/62/1 371/63/1 372/64/1
f 373/65/1 374/66/1 375/67/1 376/68/1
f 377/69/1 378/70/1 379/71/1 380/72/1
f 381/149/1 382/150/1 383/151/1 384/152/1
f 385/153/1 386/154/1 387/155/1 388/156/1
f 389/157/1 390/158/1 391/159/1 392/160/1
f 393/89/1 394/90/1 395/91/1 396/92/1
f 397/93/1 398/94/1 399/95/1 400/96/1
f 401/97/1 402/98/1 403/99/1 404/100/1
f 405/165/1 406/166/1 407/167/1 408/168/1
f 409/169/1 410/170/1 411/171/1 412/172/1
f 413/173/1 414/174/1 415/175/1 416/176/1
f 417/117/1 418/118/1 419/119/1 420/120/1
f 421/121/1 422/122/1 423/123/1 424/124/1
f 425/125/1 426/126/1 427/127/1 428/128/1
f 429/177/1 430/178/1 431/179/1 432/180/1
f 433/181/1 434/182/1 435/183/1 436/184/1
f 437/185/1 438/186/1 439/187/1 440/188/1

