# Tiled2Unity generated file. Do not modify by hand.
# Wavefront file for 'town_mesh_0003.obj'

# Vertices (Count = 668)
v -240 -16 0
v -256 -16 0
v -256 0 0
v -240 0 0
v -160 -16 0
v -176 -16 0
v -176 0 0
v -160 0 0
v 0 -16 0
v -16 -16 0
v -16 0 0
v 0 0 0
v -240 -32 0
v -256 -32 0
v -256 -16 0
v -240 -16 0
v -160 -32 0
v -176 -32 0
v -176 -16 0
v -160 -16 0
v -240 -48 0
v -256 -48 0
v -256 -32 0
v -240 -32 0
v -160 -48 0
v -176 -48 0
v -176 -32 0
v -160 -32 0
v -240 -64 0
v -256 -64 0
v -256 -48 0
v -240 -48 0
v -160 -64 0
v -176 -64 0
v -176 -48 0
v -160 -48 0
v -240 -80 0
v -256 -80 0
v -256 -64 0
v -240 -64 0
v -160 -80 0
v -176 -80 0
v -176 -64 0
v -160 -64 0
v -240 -96 0
v -256 -96 0
v -256 -80 0
v -240 -80 0
v -160 -96 0
v -176 -96 0
v -176 -80 0
v -160 -80 0
v -240 -112 0
v -256 -112 0
v -256 -96 0
v -240 -96 0
v -160 -112 0
v -176 -112 0
v -176 -96 0
v -160 -96 0
v -240 -128 0
v -256 -128 0
v -256 -112 0
v -240 -112 0
v -160 -128 0
v -176 -128 0
v -176 -112 0
v -160 -112 0
v -240 -144 0
v -256 -144 0
v -256 -128 0
v -240 -128 0
v -160 -144 0
v -176 -144 0
v -176 -128 0
v -160 -128 0
v -608 -160 0
v -624 -160 0
v -624 -144 0
v -608 -144 0
v -592 -160 0
v -608 -160 0
v -608 -144 0
v -592 -144 0
v -576 -160 0
v -592 -160 0
v -592 -144 0
v -576 -144 0
v -560 -160 0
v -576 -160 0
v -576 -144 0
v -560 -144 0
v -544 -160 0
v -560 -160 0
v -560 -144 0
v -544 -144 0
v -528 -160 0
v -544 -160 0
v -544 -144 0
v -528 -144 0
v -512 -160 0
v -528 -160 0
v -528 -144 0
v -512 -144 0
v -496 -160 0
v -512 -160 0
v -512 -144 0
v -496 -144 0
v -480 -160 0
v -496 -160 0
v -496 -144 0
v -480 -144 0
v -464 -160 0
v -480 -160 0
v -480 -144 0
v -464 -144 0
v -448 -160 0
v -464 -160 0
v -464 -144 0
v -448 -144 0
v -432 -160 0
v -448 -160 0
v -448 -144 0
v -432 -144 0
v -416 -160 0
v -432 -160 0
v -432 -144 0
v -416 -144 0
v -400 -160 0
v -416 -160 0
v -416 -144 0
v -400 -144 0
v -384 -160 0
v -400 -160 0
v -400 -144 0
v -384 -144 0
v -368 -160 0
v -384 -160 0
v -384 -144 0
v -368 -144 0
v -352 -160 0
v -368 -160 0
v -368 -144 0
v -352 -144 0
v -336 -160 0
v -352 -160 0
v -352 -144 0
v -336 -144 0
v -320 -160 0
v -336 -160 0
v -336 -144 0
v -320 -144 0
v -304 -160 0
v -320 -160 0
v -320 -144 0
v -304 -144 0
v -256 -160 0
v -272 -160 0
v -272 -144 0
v -256 -144 0
v -240 -160 0
v -256 -160 0
v -256 -144 0
v -240 -144 0
v -160 -160 0
v -176 -160 0
v -176 -144 0
v -160 -144 0
v -144 -160 0
v -160 -160 0
v -160 -144 0
v -144 -144 0
v -128 -160 0
v -144 -160 0
v -144 -144 0
v -128 -144 0
v -112 -160 0
v -128 -160 0
v -128 -144 0
v -112 -144 0
v -96 -160 0
v -112 -160 0
v -112 -144 0
v -96 -144 0
v -80 -160 0
v -96 -160 0
v -96 -144 0
v -80 -144 0
v -64 -160 0
v -80 -160 0
v -80 -144 0
v -64 -144 0
v -48 -160 0
v -64 -160 0
v -64 -144 0
v -48 -144 0
v -32 -160 0
v -48 -160 0
v -48 -144 0
v -32 -144 0
v -16 -160 0
v -32 -160 0
v -32 -144 0
v -16 -144 0
v 0 -160 0
v -16 -160 0
v -16 -144 0
v 0 -144 0
v -160 -272 0
v -176 -272 0
v -176 -256 0
v -160 -256 0
v -160 -288 0
v -176 -288 0
v -176 -272 0
v -160 -272 0
v -560 -304 0
v -576 -304 0
v -576 -288 0
v -560 -288 0
v -528 -304 0
v -544 -304 0
v -544 -288 0
v -528 -288 0
v -160 -304 0
v -176 -304 0
v -176 -288 0
v -160 -288 0
v -608 -320 0
v -624 -320 0
v -624 -304 0
v -608 -304 0
v -592 -320 0
v -608 -320 0
v -608 -304 0
v -592 -304 0
v -576 -320 0
v -592 -320 0
v -592 -304 0
v -576 -304 0
v -560 -320 0
v -576 -320 0
v -576 -304 0
v -560 -304 0
v -528 -320 0
v -544 -320 0
v -544 -304 0
v -528 -304 0
v -512 -320 0
v -528 -320 0
v -528 -304 0
v -512 -304 0
v -496 -320 0
v -512 -320 0
v -512 -304 0
v -496 -304 0
v -480 -320 0
v -496 -320 0
v -496 -304 0
v -480 -304 0
v -240 -320 0
v -256 -320 0
v -256 -304 0
v -240 -304 0
v -160 -320 0
v -176 -320 0
v -176 -304 0
v -160 -304 0
v -336 -336 0
v -352 -336 0
v -352 -320 0
v -336 -320 0
v -304 -336 0
v -320 -336 0
v -320 -320 0
v -304 -320 0
v -288 -336 0
v -304 -336 0
v -304 -320 0
v -288 -320 0
v -272 -336 0
v -288 -336 0
v -288 -320 0
v -272 -320 0
v -160 -336 0
v -176 -336 0
v -176 -320 0
v -160 -320 0
v -336 -352 0
v -352 -352 0
v -352 -336 0
v -336 -336 0
v -304 -352 0
v -320 -352 0
v -320 -336 0
v -304 -336 0
v -288 -352 0
v -304 -352 0
v -304 -336 0
v -288 -336 0
v -272 -352 0
v -288 -352 0
v -288 -336 0
v -272 -336 0
v -160 -352 0
v -176 -352 0
v -176 -336 0
v -160 -336 0
v -368 -368 0
v -384 -368 0
v -384 -352 0
v -368 -352 0
v -352 -368 0
v -368 -368 0
v -368 -352 0
v -352 -352 0
v -336 -368 0
v -352 -368 0
v -352 -352 0
v -336 -352 0
v -320 -368 0
v -336 -368 0
v -336 -352 0
v -320 -352 0
v -304 -368 0
v -320 -368 0
v -320 -352 0
v -304 -352 0
v -288 -368 0
v -304 -368 0
v -304 -352 0
v -288 -352 0
v -272 -368 0
v -288 -368 0
v -288 -352 0
v -272 -352 0
v -256 -368 0
v -272 -368 0
v -272 -352 0
v -256 -352 0
v -240 -368 0
v -256 -368 0
v -256 -352 0
v -240 -352 0
v -160 -368 0
v -176 -368 0
v -176 -352 0
v -160 -352 0
v -608 -384 0
v -624 -384 0
v -624 -368 0
v -608 -368 0
v -592 -384 0
v -608 -384 0
v -608 -368 0
v -592 -368 0
v -576 -384 0
v -592 -384 0
v -592 -368 0
v -576 -368 0
v -512 -384 0
v -528 -384 0
v -528 -368 0
v -512 -368 0
v -496 -384 0
v -512 -384 0
v -512 -368 0
v -496 -368 0
v -480 -384 0
v -496 -384 0
v -496 -368 0
v -480 -368 0
v -368 -384 0
v -384 -384 0
v -384 -368 0
v -368 -368 0
v -352 -384 0
v -368 -384 0
v -368 -368 0
v -352 -368 0
v -336 -384 0
v -352 -384 0
v -352 -368 0
v -336 -368 0
v -320 -384 0
v -336 -384 0
v -336 -368 0
v -320 -368 0
v -288 -384 0
v -304 -384 0
v -304 -368 0
v -288 -368 0
v -272 -384 0
v -288 -384 0
v -288 -368 0
v -272 -368 0
v -256 -384 0
v -272 -384 0
v -272 -368 0
v -256 -368 0
v -240 -384 0
v -256 -384 0
v -256 -368 0
v -240 -368 0
v -160 -384 0
v -176 -384 0
v -176 -368 0
v -160 -368 0
v -64 -384 0
v -80 -384 0
v -80 -368 0
v -64 -368 0
v -48 -384 0
v -64 -384 0
v -64 -368 0
v -48 -368 0
v -16 -384 0
v -32 -384 0
v -32 -368 0
v -16 -368 0
v 0 -384 0
v -16 -384 0
v -16 -368 0
v 0 -368 0
v -368 -400 0
v -384 -400 0
v -384 -384 0
v -368 -384 0
v -352 -400 0
v -368 -400 0
v -368 -384 0
v -352 -384 0
v -272 -400 0
v -288 -400 0
v -288 -384 0
v -272 -384 0
v -256 -400 0
v -272 -400 0
v -272 -384 0
v -256 -384 0
v -240 -400 0
v -256 -400 0
v -256 -384 0
v -240 -384 0
v -160 -400 0
v -176 -400 0
v -176 -384 0
v -160 -384 0
v -64 -400 0
v -80 -400 0
v -80 -384 0
v -64 -384 0
v -48 -400 0
v -64 -400 0
v -64 -384 0
v -48 -384 0
v -16 -400 0
v -32 -400 0
v -32 -384 0
v -16 -384 0
v 0 -400 0
v -16 -400 0
v -16 -384 0
v 0 -384 0
v -368 -416 0
v -384 -416 0
v -384 -400 0
v -368 -400 0
v -352 -416 0
v -368 -416 0
v -368 -400 0
v -352 -400 0
v -272 -416 0
v -288 -416 0
v -288 -400 0
v -272 -400 0
v -256 -416 0
v -272 -416 0
v -272 -400 0
v -256 -400 0
v -240 -416 0
v -256 -416 0
v -256 -400 0
v -240 -400 0
v -160 -416 0
v -176 -416 0
v -176 -400 0
v -160 -400 0
v -368 -432 0
v -384 -432 0
v -384 -416 0
v -368 -416 0
v -352 -432 0
v -368 -432 0
v -368 -416 0
v -352 -416 0
v -288 -432 0
v -304 -432 0
v -304 -416 0
v -288 -416 0
v -272 -432 0
v -288 -432 0
v -288 -416 0
v -272 -416 0
v -256 -432 0
v -272 -432 0
v -272 -416 0
v -256 -416 0
v -240 -432 0
v -256 -432 0
v -256 -416 0
v -240 -416 0
v -160 -432 0
v -176 -432 0
v -176 -416 0
v -160 -416 0
v -608 -448 0
v -624 -448 0
v -624 -432 0
v -608 -432 0
v -592 -448 0
v -608 -448 0
v -608 -432 0
v -592 -432 0
v -576 -448 0
v -592 -448 0
v -592 -432 0
v -576 -432 0
v -512 -448 0
v -528 -448 0
v -528 -432 0
v -512 -432 0
v -496 -448 0
v -512 -448 0
v -512 -432 0
v -496 -432 0
v -480 -448 0
v -496 -448 0
v -496 -432 0
v -480 -432 0
v -368 -448 0
v -384 -448 0
v -384 -432 0
v -368 -432 0
v -352 -448 0
v -368 -448 0
v -368 -432 0
v -352 -432 0
v -288 -448 0
v -304 -448 0
v -304 -432 0
v -288 -432 0
v -272 -448 0
v -288 -448 0
v -288 -432 0
v -272 -432 0
v -256 -448 0
v -272 -448 0
v -272 -432 0
v -256 -432 0
v -240 -448 0
v -256 -448 0
v -256 -432 0
v -240 -432 0
v -160 -448 0
v -176 -448 0
v -176 -432 0
v -160 -432 0
v -352 -464 0
v -368 -464 0
v -368 -448 0
v -352 -448 0
v -336 -464 0
v -352 -464 0
v -352 -448 0
v -336 -448 0
v -288 -464 0
v -304 -464 0
v -304 -448 0
v -288 -448 0
v -272 -464 0
v -288 -464 0
v -288 -448 0
v -272 -448 0
v -256 -464 0
v -272 -464 0
v -272 -448 0
v -256 -448 0
v -160 -464 0
v -176 -464 0
v -176 -448 0
v -160 -448 0
v -448 -480 0
v -464 -480 0
v -464 -464 0
v -448 -464 0
v -160 -480 0
v -176 -480 0
v -176 -464 0
v -160 -464 0
v -576 -496 0
v -592 -496 0
v -592 -480 0
v -576 -480 0
v -576 -512 0
v -592 -512 0
v -592 -496 0
v -576 -496 0
v -576 -528 0
v -592 -528 0
v -592 -512 0
v -576 -512 0
v -592 -544 0
v -608 -544 0
v -608 -528 0
v -592 -528 0
v -576 -544 0
v -592 -544 0
v -592 -528 0
v -576 -528 0
v -608 -560 0
v -624 -560 0
v -624 -544 0
v -608 -544 0
v -592 -560 0
v -608 -560 0
v -608 -544 0
v -592 -544 0
v -576 -560 0
v -592 -560 0
v -592 -544 0
v -576 -544 0
v -560 -560 0
v -576 -560 0
v -576 -544 0
v -560 -544 0
v -608 -576 0
v -624 -576 0
v -624 -560 0
v -608 -560 0
v -592 -576 0
v -608 -576 0
v -608 -560 0
v -592 -560 0
v -576 -576 0
v -592 -576 0
v -592 -560 0
v -576 -560 0
v -560 -576 0
v -576 -576 0
v -576 -560 0
v -560 -560 0
v -608 -592 0
v -624 -592 0
v -624 -576 0
v -608 -576 0
v -592 -592 0
v -608 -592 0
v -608 -576 0
v -592 -576 0
v -576 -592 0
v -592 -592 0
v -592 -576 0
v -576 -576 0
v -560 -592 0
v -576 -592 0
v -576 -576 0
v -560 -576 0

# Texture cooridinates (Count = 200)
vt 0.8956612 0.6131179
vt 0.9121901 0.6131179
vt 0.9121901 0.628327
vt 0.8956612 0.628327
vt 0.8780992 0.6131179
vt 0.8946281 0.6131179
vt 0.8946281 0.628327
vt 0.8780992 0.628327
vt 0.4741735 0.6292776
vt 0.4907025 0.6292776
vt 0.4907025 0.6444867
vt 0.4741735 0.6444867
vt 0.5268595 0.5969582
vt 0.5433884 0.5969582
vt 0.5433884 0.6121673
vt 0.5268595 0.6121673
vt 0.3688017 0.6292776
vt 0.3853306 0.6292776
vt 0.3853306 0.6444867
vt 0.3688017 0.6444867
vt 0.4214876 0.5969582
vt 0.4380165 0.5969582
vt 0.4380165 0.6121673
vt 0.4214876 0.6121673
vt 0.4566116 0.6292776
vt 0.4731405 0.6292776
vt 0.4731405 0.6444867
vt 0.4566116 0.6444867
vt 0.9132231 0.6131179
vt 0.9297521 0.6131179
vt 0.9297521 0.628327
vt 0.9132231 0.628327
vt 0.9307851 0.6131179
vt 0.947314 0.6131179
vt 0.947314 0.628327
vt 0.9307851 0.628327
vt 0.5444215 0.5969582
vt 0.5609504 0.5969582
vt 0.5609504 0.6121673
vt 0.5444215 0.6121673
vt 0.5619835 0.6292776
vt 0.5785124 0.6292776
vt 0.5785124 0.6444867
vt 0.5619835 0.6444867
vt 0.4390496 0.6292776
vt 0.4555785 0.6292776
vt 0.4555785 0.6444867
vt 0.4390496 0.6444867
vt 0.01756198 0.5646388
vt 0.03409091 0.5646388
vt 0.03409091 0.5798479
vt 0.01756198 0.5798479
vt 0.4039256 0.5969582
vt 0.4204545 0.5969582
vt 0.4204545 0.6121673
vt 0.4039256 0.6121673
vt 0.3512397 0.838403
vt 0.3512397 0.8231939
vt 0.3677686 0.8231939
vt 0.3677686 0.838403
vt 0.2107438 0.9201521
vt 0.2272727 0.9201521
vt 0.2272727 0.9353612
vt 0.2107438 0.9353612
vt 0.2283058 0.9201521
vt 0.2448347 0.9201521
vt 0.2448347 0.9353612
vt 0.2283058 0.9353612
vt 0.1931818 0.9201521
vt 0.2097107 0.9201521
vt 0.2097107 0.9353612
vt 0.1931818 0.9353612
vt 0.2283058 0.8878327
vt 0.2448347 0.8878327
vt 0.2448347 0.9030418
vt 0.2283058 0.9030418
vt 0.2283058 0.6292776
vt 0.2448347 0.6292776
vt 0.2448347 0.6444867
vt 0.2283058 0.6444867
vt 0.2283058 0.6777567
vt 0.2448347 0.6777567
vt 0.2448347 0.6929657
vt 0.2283058 0.6929657
vt 0.3336777 0.6939163
vt 0.3502066 0.6939163
vt 0.3502066 0.7091255
vt 0.3336777 0.7091255
vt 0.3336777 0.661597
vt 0.3502066 0.661597
vt 0.3502066 0.6768061
vt 0.3336777 0.6768061
vt 0.2458678 0.710076
vt 0.2623967 0.710076
vt 0.2623967 0.7252852
vt 0.2458678 0.7252852
vt 0.9132231 0.9524715
vt 0.9297521 0.9524715
vt 0.9297521 0.9676806
vt 0.9132231 0.9676806
vt 0.8956612 0.9524715
vt 0.9121901 0.9524715
vt 0.9121901 0.9676806
vt 0.8956612 0.9676806
vt 0.2107438 0.8878327
vt 0.2272727 0.8878327
vt 0.2272727 0.9030418
vt 0.2107438 0.9030418
vt 0.1756198 0.9201521
vt 0.1921488 0.9201521
vt 0.1921488 0.9353612
vt 0.1756198 0.9353612
vt 0.2985537 0.8878327
vt 0.3150826 0.8878327
vt 0.3150826 0.9030418
vt 0.2985537 0.9030418
vt 0.2809917 0.8878327
vt 0.2975207 0.8878327
vt 0.2975207 0.9030418
vt 0.2809917 0.9030418
vt 0.2634298 0.8878327
vt 0.2799587 0.8878327
vt 0.2799587 0.9030418
vt 0.2634298 0.9030418
vt 0.3336777 0.7423954
vt 0.3502066 0.7423954
vt 0.3502066 0.7576046
vt 0.3336777 0.7576046
vt 0.3336777 0.7585551
vt 0.3502066 0.7585551
vt 0.3502066 0.7737643
vt 0.3336777 0.7737643
vt 0.3161157 0.7585551
vt 0.3326446 0.7585551
vt 0.3326446 0.7737643
vt 0.3161157 0.7737643
vt 0.2985537 0.7585551
vt 0.3150826 0.7585551
vt 0.3150826 0.7737643
vt 0.2985537 0.7737643
vt 0.2809917 0.7585551
vt 0.2975207 0.7585551
vt 0.2975207 0.7737643
vt 0.2809917 0.7737643
vt 0.2634298 0.7585551
vt 0.2799587 0.7585551
vt 0.2799587 0.7737643
vt 0.2634298 0.7737643
vt 0.2458678 0.7585551
vt 0.2623967 0.7585551
vt 0.2623967 0.7737643
vt 0.2458678 0.7737643
vt 0.2985537 0.7423954
vt 0.3150826 0.7423954
vt 0.3150826 0.7576046
vt 0.2985537 0.7576046
vt 0.9307851 0.6292776
vt 0.947314 0.6292776
vt 0.947314 0.6444867
vt 0.9307851 0.6444867
vt 0.4566116 0.9847909
vt 0.4731405 0.9847909
vt 0.4731405 1
vt 0.4566116 1
vt 0.4039256 0.9847909
vt 0.4204545 0.9847909
vt 0.4204545 1
vt 0.4039256 1
vt 0.3161157 0.7262357
vt 0.3326446 0.7262357
vt 0.3326446 0.7414448
vt 0.3161157 0.7414448
vt 0.3161157 0.7423954
vt 0.3326446 0.7423954
vt 0.3326446 0.7576046
vt 0.3161157 0.7576046
vt 0.1756198 0.9039924
vt 0.1921488 0.9039924
vt 0.1921488 0.9192015
vt 0.1756198 0.9192015
vt 0.2107438 0.9039924
vt 0.2272727 0.9039924
vt 0.2272727 0.9192015
vt 0.2107438 0.9192015
vt 0.4039256 0.8070343
vt 0.4204545 0.8070343
vt 0.4204545 0.8222433
vt 0.4039256 0.8222433
vt 0.2458678 0.661597
vt 0.2623967 0.661597
vt 0.2623967 0.6768061
vt 0.2458678 0.6768061
vt 0.6311983 0.710076
vt 0.6311983 0.7252852
vt 0.6146694 0.7252852
vt 0.6146694 0.710076
vt 0.6849173 0.6292776
vt 0.7014463 0.6292776
vt 0.7014463 0.6444867
vt 0.6849173 0.6444867

# Normal
vn 0 0 -1

# Mesh description
g town_mesh_0003

# Faces
f 1/1/1 2/2/1 3/3/1 4/4/1
f 5/5/1 6/6/1 7/7/1 8/8/1
f 9/1/1 10/2/1 11/3/1 12/4/1
f 13/1/1 14/2/1 15/3/1 16/4/1
f 17/5/1 18/6/1 19/7/1 20/8/1
f 21/1/1 22/2/1 23/3/1 24/4/1
f 25/5/1 26/6/1 27/7/1 28/8/1
f 29/1/1 30/2/1 31/3/1 32/4/1
f 33/5/1 34/6/1 35/7/1 36/8/1
f 37/9/1 38/10/1 39/11/1 40/12/1
f 41/5/1 42/6/1 43/7/1 44/8/1
f 45/9/1 46/10/1 47/11/1 48/12/1
f 49/5/1 50/6/1 51/7/1 52/8/1
f 53/13/1 54/14/1 55/15/1 56/16/1
f 57/17/1 58/18/1 59/19/1 60/20/1
f 61/13/1 62/14/1 63/15/1 64/16/1
f 65/21/1 66/22/1 67/23/1 68/24/1
f 69/13/1 70/14/1 71/15/1 72/16/1
f 73/25/1 74/26/1 75/27/1 76/28/1
f 77/29/1 78/30/1 79/31/1 80/32/1
f 81/33/1 82/34/1 83/35/1 84/36/1
f 85/29/1 86/30/1 87/31/1 88/32/1
f 89/33/1 90/34/1 91/35/1 92/36/1
f 93/29/1 94/30/1 95/31/1 96/32/1
f 97/33/1 98/34/1 99/35/1 100/36/1
f 101/29/1 102/30/1 103/31/1 104/32/1
f 105/33/1 106/34/1 107/35/1 108/36/1
f 109/29/1 110/30/1 111/31/1 112/32/1
f 113/33/1 114/34/1 115/35/1 116/36/1
f 117/29/1 118/30/1 119/31/1 120/32/1
f 121/33/1 122/34/1 123/35/1 124/36/1
f 125/29/1 126/30/1 127/31/1 128/32/1
f 129/33/1 130/34/1 131/35/1 132/36/1
f 133/29/1 134/30/1 135/31/1 136/32/1
f 137/33/1 138/34/1 139/35/1 140/36/1
f 141/29/1 142/30/1 143/31/1 144/32/1
f 145/33/1 146/34/1 147/35/1 148/36/1
f 149/37/1 150/38/1 151/39/1 152/40/1
f 153/41/1 154/42/1 155/43/1 156/44/1
f 157/41/1 158/42/1 159/43/1 160/44/1
f 161/13/1 162/14/1 163/15/1 164/16/1
f 165/21/1 166/22/1 167/23/1 168/24/1
f 169/45/1 170/46/1 171/47/1 172/48/1
f 173/49/1 174/50/1 175/51/1 176/52/1
f 177/45/1 178/46/1 179/47/1 180/48/1
f 181/53/1 182/54/1 183/55/1 184/56/1
f 185/33/1 186/34/1 187/35/1 188/36/1
f 189/29/1 190/30/1 191/31/1 192/32/1
f 193/33/1 194/34/1 195/35/1 196/36/1
f 197/29/1 198/30/1 199/31/1 200/32/1
f 201/33/1 202/34/1 203/35/1 204/36/1
f 205/29/1 206/30/1 207/31/1 208/32/1
f 209/57/1 210/58/1 211/59/1 212/60/1
f 213/57/1 214/58/1 215/59/1 216/60/1
f 217/5/1 218/6/1 219/7/1 220/8/1
f 221/1/1 222/2/1 223/3/1 224/4/1
f 225/57/1 226/58/1 227/59/1 228/60/1
f 229/61/1 230/62/1 231/63/1 232/64/1
f 233/65/1 234/66/1 235/67/1 236/68/1
f 237/69/1 238/70/1 239/71/1 240/72/1
f 241/5/1 242/6/1 243/7/1 244/8/1
f 245/1/1 246/2/1 247/3/1 248/4/1
f 249/73/1 250/74/1 251/75/1 252/76/1
f 253/65/1 254/66/1 255/67/1 256/68/1
f 257/69/1 258/70/1 259/71/1 260/72/1
f 261/77/1 262/78/1 263/79/1 264/80/1
f 265/57/1 266/58/1 267/59/1 268/60/1
f 269/81/1 270/82/1 271/83/1 272/84/1
f 273/81/1 274/82/1 275/83/1 276/84/1
f 277/85/1 278/86/1 279/87/1 280/88/1
f 281/81/1 282/82/1 283/83/1 284/84/1
f 285/57/1 286/58/1 287/59/1 288/60/1
f 289/81/1 290/82/1 291/83/1 292/84/1
f 293/81/1 294/82/1 295/83/1 296/84/1
f 297/89/1 298/90/1 299/91/1 300/92/1
f 301/81/1 302/82/1 303/83/1 304/84/1
f 305/57/1 306/58/1 307/59/1 308/60/1
f 309/93/1 310/94/1 311/95/1 312/96/1
f 313/93/1 314/94/1 315/95/1 316/96/1
f 317/93/1 318/94/1 319/95/1 320/96/1
f 321/93/1 322/94/1 323/95/1 324/96/1
f 325/93/1 326/94/1 327/95/1 328/96/1
f 329/97/1 330/98/1 331/99/1 332/100/1
f 333/97/1 334/98/1 335/99/1 336/100/1
f 337/97/1 338/98/1 339/99/1 340/100/1
f 341/101/1 342/102/1 343/103/1 344/104/1
f 345/57/1 346/58/1 347/59/1 348/60/1
f 349/105/1 350/106/1 351/107/1 352/108/1
f 353/109/1 354/110/1 355/111/1 356/112/1
f 357/69/1 358/70/1 359/71/1 360/72/1
f 361/113/1 362/114/1 363/115/1 364/116/1
f 365/117/1 366/118/1 367/119/1 368/120/1
f 369/121/1 370/122/1 371/123/1 372/124/1
f 373/125/1 374/126/1 375/127/1 376/128/1
f 377/129/1 378/130/1 379/131/1 380/132/1
f 381/133/1 382/134/1 383/135/1 384/136/1
f 385/137/1 386/138/1 387/139/1 388/140/1
f 389/141/1 390/142/1 391/143/1 392/144/1
f 393/145/1 394/146/1 395/147/1 396/148/1
f 397/149/1 398/150/1 399/151/1 400/152/1
f 401/153/1 402/154/1 403/155/1 404/156/1
f 405/57/1 406/58/1 407/59/1 408/60/1
f 409/157/1 410/158/1 411/159/1 412/160/1
f 413/161/1 414/162/1 415/163/1 416/164/1
f 417/165/1 418/166/1 419/167/1 420/168/1
f 421/157/1 422/158/1 423/159/1 424/160/1
f 425/125/1 426/126/1 427/127/1 428/128/1
f 429/125/1 430/126/1 431/127/1 432/128/1
f 433/169/1 434/170/1 435/171/1 436/172/1
f 437/153/1 438/154/1 439/155/1 440/156/1
f 441/153/1 442/154/1 443/155/1 444/156/1
f 445/57/1 446/58/1 447/59/1 448/60/1
f 449/157/1 450/158/1 451/159/1 452/160/1
f 453/157/1 454/158/1 455/159/1 456/160/1
f 457/157/1 458/158/1 459/159/1 460/160/1
f 461/157/1 462/158/1 463/159/1 464/160/1
f 465/125/1 466/126/1 467/127/1 468/128/1
f 469/125/1 470/126/1 471/127/1 472/128/1
f 473/173/1 474/174/1 475/175/1 476/176/1
f 477/153/1 478/154/1 479/155/1 480/156/1
f 481/153/1 482/154/1 483/155/1 484/156/1
f 485/57/1 486/58/1 487/59/1 488/60/1
f 489/125/1 490/126/1 491/127/1 492/128/1
f 493/125/1 494/126/1 495/127/1 496/128/1
f 497/173/1 498/174/1 499/175/1 500/176/1
f 501/173/1 502/174/1 503/175/1 504/176/1
f 505/153/1 506/154/1 507/155/1 508/156/1
f 509/153/1 510/154/1 511/155/1 512/156/1
f 513/57/1 514/58/1 515/59/1 516/60/1
f 517/61/1 518/62/1 519/63/1 520/64/1
f 521/65/1 522/66/1 523/67/1 524/68/1
f 525/177/1 526/178/1 527/179/1 528/180/1
f 529/61/1 530/62/1 531/63/1 532/64/1
f 533/65/1 534/66/1 535/67/1 536/68/1
f 537/181/1 538/182/1 539/183/1 540/184/1
f 541/125/1 542/126/1 543/127/1 544/128/1
f 545/125/1 546/126/1 547/127/1 548/128/1
f 549/173/1 550/174/1 551/175/1 552/176/1
f 553/173/1 554/174/1 555/175/1 556/176/1
f 557/153/1 558/154/1 559/155/1 560/156/1
f 561/153/1 562/154/1 563/155/1 564/156/1
f 565/57/1 566/58/1 567/59/1 568/60/1
f 569/185/1 570/186/1 571/187/1 572/188/1
f 573/189/1 574/190/1 575/191/1 576/192/1
f 577/173/1 578/174/1 579/175/1 580/176/1
f 581/173/1 582/174/1 583/175/1 584/176/1
f 585/185/1 586/186/1 587/187/1 588/188/1
f 589/57/1 590/58/1 591/59/1 592/60/1
f 593/59/1 594/60/1 595/57/1 596/58/1
f 597/57/1 598/58/1 599/59/1 600/60/1
f 601/1/1 602/2/1 603/3/1 604/4/1
f 605/1/1 606/2/1 607/3/1 608/4/1
f 609/1/1 610/2/1 611/3/1 612/4/1
f 613/193/1 614/194/1 615/195/1 616/196/1
f 617/193/1 618/194/1 619/195/1 620/196/1
f 621/193/1 622/194/1 623/195/1 624/196/1
f 625/193/1 626/194/1 627/195/1 628/196/1
f 629/193/1 630/194/1 631/195/1 632/196/1
f 633/193/1 634/194/1 635/195/1 636/196/1
f 637/193/1 638/194/1 639/195/1 640/196/1
f 641/197/1 642/198/1 643/199/1 644/200/1
f 645/197/1 646/198/1 647/199/1 648/200/1
f 649/193/1 650/194/1 651/195/1 652/196/1
f 653/193/1 654/194/1 655/195/1 656/196/1
f 657/197/1 658/198/1 659/199/1 660/200/1
f 661/197/1 662/198/1 663/199/1 664/200/1
f 665/193/1 666/194/1 667/195/1 668/196/1

