# Tiled2Unity generated file. Do not modify by hand.
# Wavefront file for 'town_mesh_0004.obj'

# Vertices (Count = 772)
v -608 -16 0
v -624 -16 0
v -624 0 0
v -608 0 0
v -592 -16 0
v -608 -16 0
v -608 0 0
v -592 0 0
v -576 -16 0
v -592 -16 0
v -592 0 0
v -576 0 0
v -560 -16 0
v -576 -16 0
v -576 0 0
v -560 0 0
v -544 -16 0
v -560 -16 0
v -560 0 0
v -544 0 0
v -528 -16 0
v -544 -16 0
v -544 0 0
v -528 0 0
v -512 -16 0
v -528 -16 0
v -528 0 0
v -512 0 0
v -496 -16 0
v -512 -16 0
v -512 0 0
v -496 0 0
v -480 -16 0
v -496 -16 0
v -496 0 0
v -480 0 0
v -464 -16 0
v -480 -16 0
v -480 0 0
v -464 0 0
v -448 -16 0
v -464 -16 0
v -464 0 0
v -448 0 0
v -432 -16 0
v -448 -16 0
v -448 0 0
v -432 0 0
v -416 -16 0
v -432 -16 0
v -432 0 0
v -416 0 0
v -400 -16 0
v -416 -16 0
v -416 0 0
v -400 0 0
v -384 -16 0
v -400 -16 0
v -400 0 0
v -384 0 0
v -368 -16 0
v -384 -16 0
v -384 0 0
v -368 0 0
v -352 -16 0
v -368 -16 0
v -368 0 0
v -352 0 0
v -336 -16 0
v -352 -16 0
v -352 0 0
v -336 0 0
v -320 -16 0
v -336 -16 0
v -336 0 0
v -320 0 0
v -304 -16 0
v -320 -16 0
v -320 0 0
v -304 0 0
v -288 -16 0
v -304 -16 0
v -304 0 0
v -288 0 0
v -272 -16 0
v -288 -16 0
v -288 0 0
v -272 0 0
v -256 -16 0
v -272 -16 0
v -272 0 0
v -256 0 0
v -240 -16 0
v -256 -16 0
v -256 0 0
v -240 0 0
v -288 -144 0
v -304 -144 0
v -304 -128 0
v -288 -128 0
v -272 -144 0
v -288 -144 0
v -288 -128 0
v -272 -128 0
v -288 -160 0
v -304 -160 0
v -304 -144 0
v -288 -144 0
v -272 -160 0
v -288 -160 0
v -288 -144 0
v -272 -144 0
v -128 -160 0
v -144 -160 0
v -144 -144 0
v -128 -144 0
v -144 -176 0
v -160 -176 0
v -160 -160 0
v -144 -160 0
v -48 -192 0
v -64 -192 0
v -64 -176 0
v -48 -176 0
v -464 -256 0
v -480 -256 0
v -480 -240 0
v -464 -240 0
v -448 -256 0
v -464 -256 0
v -464 -240 0
v -448 -240 0
v -432 -256 0
v -448 -256 0
v -448 -240 0
v -432 -240 0
v -416 -256 0
v -432 -256 0
v -432 -240 0
v -416 -240 0
v -400 -256 0
v -416 -256 0
v -416 -240 0
v -400 -240 0
v -384 -256 0
v -400 -256 0
v -400 -240 0
v -384 -240 0
v -368 -256 0
v -384 -256 0
v -384 -240 0
v -368 -240 0
v -352 -256 0
v -368 -256 0
v -368 -240 0
v -352 -240 0
v -336 -256 0
v -352 -256 0
v -352 -240 0
v -336 -240 0
v -320 -256 0
v -336 -256 0
v -336 -240 0
v -320 -240 0
v -304 -256 0
v -320 -256 0
v -320 -240 0
v -304 -240 0
v -288 -256 0
v -304 -256 0
v -304 -240 0
v -288 -240 0
v -272 -256 0
v -288 -256 0
v -288 -240 0
v -272 -240 0
v -256 -256 0
v -272 -256 0
v -272 -240 0
v -256 -240 0
v -240 -256 0
v -256 -256 0
v -256 -240 0
v -240 -240 0
v -224 -256 0
v -240 -256 0
v -240 -240 0
v -224 -240 0
v -208 -256 0
v -224 -256 0
v -224 -240 0
v -208 -240 0
v -192 -256 0
v -208 -256 0
v -208 -240 0
v -192 -240 0
v -176 -256 0
v -192 -256 0
v -192 -240 0
v -176 -240 0
v -160 -256 0
v -176 -256 0
v -176 -240 0
v -160 -240 0
v -464 -272 0
v -480 -272 0
v -480 -256 0
v -464 -256 0
v -448 -272 0
v -464 -272 0
v -464 -256 0
v -448 -256 0
v -464 -288 0
v -480 -288 0
v -480 -272 0
v -464 -272 0
v -448 -288 0
v -464 -288 0
v -464 -272 0
v -448 -272 0
v -608 -304 0
v -624 -304 0
v -624 -288 0
v -608 -288 0
v -592 -304 0
v -608 -304 0
v -608 -288 0
v -592 -288 0
v -576 -304 0
v -592 -304 0
v -592 -288 0
v -576 -288 0
v -512 -304 0
v -528 -304 0
v -528 -288 0
v -512 -288 0
v -496 -304 0
v -512 -304 0
v -512 -288 0
v -496 -288 0
v -480 -304 0
v -496 -304 0
v -496 -288 0
v -480 -288 0
v -464 -304 0
v -480 -304 0
v -480 -288 0
v -464 -288 0
v -448 -304 0
v -464 -304 0
v -464 -288 0
v -448 -288 0
v -608 -320 0
v -624 -320 0
v -624 -304 0
v -608 -304 0
v -576 -320 0
v -592 -320 0
v -592 -304 0
v -576 -304 0
v -512 -320 0
v -528 -320 0
v -528 -304 0
v -512 -304 0
v -480 -320 0
v -496 -320 0
v -496 -304 0
v -480 -304 0
v -464 -320 0
v -480 -320 0
v -480 -304 0
v -464 -304 0
v -448 -320 0
v -464 -320 0
v -464 -304 0
v -448 -304 0
v -240 -320 0
v -256 -320 0
v -256 -304 0
v -240 -304 0
v -464 -336 0
v -480 -336 0
v -480 -320 0
v -464 -320 0
v -448 -336 0
v -464 -336 0
v -464 -320 0
v -448 -320 0
v -64 -336 0
v -80 -336 0
v -80 -320 0
v -64 -320 0
v -48 -336 0
v -64 -336 0
v -64 -320 0
v -48 -320 0
v -32 -336 0
v -48 -336 0
v -48 -320 0
v -32 -320 0
v -16 -336 0
v -32 -336 0
v -32 -320 0
v -16 -320 0
v 0 -336 0
v -16 -336 0
v -16 -320 0
v 0 -320 0
v -464 -352 0
v -480 -352 0
v -480 -336 0
v -464 -336 0
v -448 -352 0
v -464 -352 0
v -464 -336 0
v -448 -336 0
v -64 -352 0
v -80 -352 0
v -80 -336 0
v -64 -336 0
v -48 -352 0
v -64 -352 0
v -64 -336 0
v -48 -336 0
v -32 -352 0
v -48 -352 0
v -48 -336 0
v -32 -336 0
v -16 -352 0
v -32 -352 0
v -32 -336 0
v -16 -336 0
v 0 -352 0
v -16 -352 0
v -16 -336 0
v 0 -336 0
v -608 -368 0
v -624 -368 0
v -624 -352 0
v -608 -352 0
v -592 -368 0
v -608 -368 0
v -608 -352 0
v -592 -352 0
v -576 -368 0
v -592 -368 0
v -592 -352 0
v -576 -352 0
v -512 -368 0
v -528 -368 0
v -528 -352 0
v -512 -352 0
v -496 -368 0
v -512 -368 0
v -512 -352 0
v -496 -352 0
v -480 -368 0
v -496 -368 0
v -496 -352 0
v -480 -352 0
v -464 -368 0
v -480 -368 0
v -480 -352 0
v -464 -352 0
v -448 -368 0
v -464 -368 0
v -464 -352 0
v -448 -352 0
v -368 -368 0
v -384 -368 0
v -384 -352 0
v -368 -352 0
v -64 -368 0
v -80 -368 0
v -80 -352 0
v -64 -352 0
v -48 -368 0
v -64 -368 0
v -64 -352 0
v -48 -352 0
v -32 -368 0
v -48 -368 0
v -48 -352 0
v -32 -352 0
v -16 -368 0
v -32 -368 0
v -32 -352 0
v -16 -352 0
v 0 -368 0
v -16 -368 0
v -16 -352 0
v 0 -352 0
v -608 -384 0
v -624 -384 0
v -624 -368 0
v -608 -368 0
v -576 -384 0
v -592 -384 0
v -592 -368 0
v -576 -368 0
v -512 -384 0
v -528 -384 0
v -528 -368 0
v -512 -368 0
v -480 -384 0
v -496 -384 0
v -496 -368 0
v -480 -368 0
v -464 -384 0
v -480 -384 0
v -480 -368 0
v -464 -368 0
v -448 -384 0
v -464 -384 0
v -464 -368 0
v -448 -368 0
v -368 -384 0
v -384 -384 0
v -384 -368 0
v -368 -368 0
v -240 -384 0
v -256 -384 0
v -256 -368 0
v -240 -368 0
v -464 -400 0
v -480 -400 0
v -480 -384 0
v -464 -384 0
v -448 -400 0
v -464 -400 0
v -464 -384 0
v -448 -384 0
v -368 -400 0
v -384 -400 0
v -384 -384 0
v -368 -384 0
v -336 -400 0
v -352 -400 0
v -352 -384 0
v -336 -384 0
v -320 -400 0
v -336 -400 0
v -336 -384 0
v -320 -384 0
v -304 -400 0
v -320 -400 0
v -320 -384 0
v -304 -384 0
v -288 -400 0
v -304 -400 0
v -304 -384 0
v -288 -384 0
v -272 -400 0
v -288 -400 0
v -288 -384 0
v -272 -384 0
v -240 -400 0
v -256 -400 0
v -256 -384 0
v -240 -384 0
v -464 -416 0
v -480 -416 0
v -480 -400 0
v -464 -400 0
v -448 -416 0
v -464 -416 0
v -464 -400 0
v -448 -400 0
v -368 -416 0
v -384 -416 0
v -384 -400 0
v -368 -400 0
v -336 -416 0
v -352 -416 0
v -352 -400 0
v -336 -400 0
v -320 -416 0
v -336 -416 0
v -336 -400 0
v -320 -400 0
v -304 -416 0
v -320 -416 0
v -320 -400 0
v -304 -400 0
v -288 -416 0
v -304 -416 0
v -304 -400 0
v -288 -400 0
v -272 -416 0
v -288 -416 0
v -288 -400 0
v -272 -400 0
v -240 -416 0
v -256 -416 0
v -256 -400 0
v -240 -400 0
v -608 -432 0
v -624 -432 0
v -624 -416 0
v -608 -416 0
v -592 -432 0
v -608 -432 0
v -608 -416 0
v -592 -416 0
v -576 -432 0
v -592 -432 0
v -592 -416 0
v -576 -416 0
v -512 -432 0
v -528 -432 0
v -528 -416 0
v -512 -416 0
v -496 -432 0
v -512 -432 0
v -512 -416 0
v -496 -416 0
v -480 -432 0
v -496 -432 0
v -496 -416 0
v -480 -416 0
v -464 -432 0
v -480 -432 0
v -480 -416 0
v -464 -416 0
v -448 -432 0
v -464 -432 0
v -464 -416 0
v -448 -416 0
v -368 -432 0
v -384 -432 0
v -384 -416 0
v -368 -416 0
v -336 -432 0
v -352 -432 0
v -352 -416 0
v -336 -416 0
v -320 -432 0
v -336 -432 0
v -336 -416 0
v -320 -416 0
v -304 -432 0
v -320 -432 0
v -320 -416 0
v -304 -416 0
v -288 -432 0
v -304 -432 0
v -304 -416 0
v -288 -416 0
v -272 -432 0
v -288 -432 0
v -288 -416 0
v -272 -416 0
v -240 -432 0
v -256 -432 0
v -256 -416 0
v -240 -416 0
v -608 -448 0
v -624 -448 0
v -624 -432 0
v -608 -432 0
v -576 -448 0
v -592 -448 0
v -592 -432 0
v -576 -432 0
v -512 -448 0
v -528 -448 0
v -528 -432 0
v -512 -432 0
v -480 -448 0
v -496 -448 0
v -496 -432 0
v -480 -432 0
v -464 -448 0
v -480 -448 0
v -480 -432 0
v -464 -432 0
v -448 -448 0
v -464 -448 0
v -464 -432 0
v -448 -432 0
v -368 -448 0
v -384 -448 0
v -384 -432 0
v -368 -432 0
v -336 -448 0
v -352 -448 0
v -352 -432 0
v -336 -432 0
v -320 -448 0
v -336 -448 0
v -336 -432 0
v -320 -432 0
v -304 -448 0
v -320 -448 0
v -320 -432 0
v -304 -432 0
v -288 -448 0
v -304 -448 0
v -304 -432 0
v -288 -432 0
v -272 -448 0
v -288 -448 0
v -288 -432 0
v -272 -432 0
v -240 -448 0
v -256 -448 0
v -256 -432 0
v -240 -432 0
v -464 -464 0
v -480 -464 0
v -480 -448 0
v -464 -448 0
v -448 -464 0
v -464 -464 0
v -464 -448 0
v -448 -448 0
v -336 -464 0
v -352 -464 0
v -352 -448 0
v -336 -448 0
v -320 -464 0
v -336 -464 0
v -336 -448 0
v -320 -448 0
v -304 -464 0
v -320 -464 0
v -320 -448 0
v -304 -448 0
v -288 -464 0
v -304 -464 0
v -304 -448 0
v -288 -448 0
v -272 -464 0
v -288 -464 0
v -288 -448 0
v -272 -448 0
v -464 -480 0
v -480 -480 0
v -480 -464 0
v -464 -464 0
v -448 -480 0
v -464 -480 0
v -464 -464 0
v -448 -464 0
v -432 -480 0
v -448 -480 0
v -448 -464 0
v -432 -464 0
v -416 -480 0
v -432 -480 0
v -432 -464 0
v -416 -464 0
v -400 -480 0
v -416 -480 0
v -416 -464 0
v -400 -464 0
v -384 -480 0
v -400 -480 0
v -400 -464 0
v -384 -464 0
v -368 -480 0
v -384 -480 0
v -384 -464 0
v -368 -464 0
v -352 -480 0
v -368 -480 0
v -368 -464 0
v -352 -464 0
v -336 -480 0
v -352 -480 0
v -352 -464 0
v -336 -464 0
v -256 -480 0
v -272 -480 0
v -272 -464 0
v -256 -464 0
v -240 -480 0
v -256 -480 0
v -256 -464 0
v -240 -464 0
v -224 -480 0
v -240 -480 0
v -240 -464 0
v -224 -464 0
v -208 -480 0
v -224 -480 0
v -224 -464 0
v -208 -464 0
v -192 -480 0
v -208 -480 0
v -208 -464 0
v -192 -464 0
v -176 -480 0
v -192 -480 0
v -192 -464 0
v -176 -464 0
v -160 -480 0
v -176 -480 0
v -176 -464 0
v -160 -464 0
v -512 -496 0
v -528 -496 0
v -528 -480 0
v -512 -480 0
v -496 -496 0
v -512 -496 0
v -512 -480 0
v -496 -480 0
v -480 -496 0
v -496 -496 0
v -496 -480 0
v -480 -480 0
v -464 -496 0
v -480 -496 0
v -480 -480 0
v -464 -480 0
v -560 -544 0
v -576 -544 0
v -576 -528 0
v -560 -528 0
v -544 -544 0
v -560 -544 0
v -560 -528 0
v -544 -528 0
v -528 -544 0
v -544 -544 0
v -544 -528 0
v -528 -528 0
v -512 -544 0
v -528 -544 0
v -528 -528 0
v -512 -528 0
v -496 -544 0
v -512 -544 0
v -512 -528 0
v -496 -528 0
v -480 -544 0
v -496 -544 0
v -496 -528 0
v -480 -528 0
v -608 -560 0
v -624 -560 0
v -624 -544 0
v -608 -544 0
v -592 -560 0
v -608 -560 0
v -608 -544 0
v -592 -544 0
v -576 -560 0
v -592 -560 0
v -592 -544 0
v -576 -544 0
v -560 -560 0
v -576 -560 0
v -576 -544 0
v -560 -544 0
v -608 -576 0
v -624 -576 0
v -624 -560 0
v -608 -560 0
v -560 -576 0
v -576 -576 0
v -576 -560 0
v -560 -560 0
v -608 -592 0
v -624 -592 0
v -624 -576 0
v -608 -576 0
v -560 -592 0
v -576 -592 0
v -576 -576 0
v -560 -576 0

# Texture cooridinates (Count = 124)
vt 0.9132231 0.6131179
vt 0.9297521 0.6131179
vt 0.9297521 0.628327
vt 0.9132231 0.628327
vt 0.9307851 0.6131179
vt 0.947314 0.6131179
vt 0.947314 0.628327
vt 0.9307851 0.628327
vt 0.07024793 0.5646388
vt 0.08677686 0.5646388
vt 0.08677686 0.5798479
vt 0.07024793 0.5798479
vt 0.01756198 0.5646388
vt 0.03409091 0.5646388
vt 0.03409091 0.5798479
vt 0.01756198 0.5798479
vt 0.3336777 0.9847909
vt 0.3502066 0.9847909
vt 0.3502066 1
vt 0.3336777 1
vt 0.3512397 0.9847909
vt 0.3677686 0.9847909
vt 0.3677686 1
vt 0.3512397 1
vt 0.8956612 0.6131179
vt 0.9121901 0.6131179
vt 0.9121901 0.628327
vt 0.8956612 0.628327
vt 0.4214876 0.8393536
vt 0.4380165 0.8393536
vt 0.4380165 0.8545628
vt 0.4214876 0.8545628
vt 0.3512397 0.8231939
vt 0.3677686 0.8231939
vt 0.3677686 0.838403
vt 0.3512397 0.838403
vt 0.1756198 0.9524715
vt 0.1921488 0.9524715
vt 0.1921488 0.9676806
vt 0.1756198 0.9676806
vt 0.1756198 0.9847909
vt 0.1921488 0.9847909
vt 0.1921488 1
vt 0.1756198 1
vt 0.1756198 0.9686311
vt 0.1921488 0.9686311
vt 0.1921488 0.9838403
vt 0.1756198 0.9838403
vt 0.1931818 0.9363118
vt 0.2097107 0.9363118
vt 0.2097107 0.9515209
vt 0.1931818 0.9515209
vt 0.1756198 0.9363118
vt 0.1921488 0.9363118
vt 0.1921488 0.9515209
vt 0.1756198 0.9515209
vt 0.2283058 0.6292776
vt 0.2448347 0.6292776
vt 0.2448347 0.6444867
vt 0.2283058 0.6444867
vt 0.4214876 0.5969582
vt 0.4380165 0.5969582
vt 0.4380165 0.6121673
vt 0.4214876 0.6121673
vt 0.4390496 0.6292776
vt 0.4555785 0.6292776
vt 0.4555785 0.6444867
vt 0.4390496 0.6444867
vt 0.4039256 0.5969582
vt 0.4204545 0.5969582
vt 0.4204545 0.6121673
vt 0.4039256 0.6121673
vt 0.9307851 0.9524715
vt 0.947314 0.9524715
vt 0.947314 0.9676806
vt 0.9307851 0.9676806
vt 0.2283058 0.661597
vt 0.2448347 0.661597
vt 0.2448347 0.6768061
vt 0.2283058 0.6768061
vt 0.2283058 0.6777567
vt 0.2448347 0.6777567
vt 0.2448347 0.6929657
vt 0.2283058 0.6929657
vt 0.3161157 0.7262357
vt 0.3326446 0.7262357
vt 0.3326446 0.7414448
vt 0.3161157 0.7414448
vt 0.3161157 0.7423954
vt 0.3326446 0.7423954
vt 0.3326446 0.7576046
vt 0.3161157 0.7576046
vt 0.3688017 0.3222433
vt 0.3853306 0.3222433
vt 0.3853306 0.3374525
vt 0.3688017 0.3374525
vt 0.2458678 0.661597
vt 0.2623967 0.661597
vt 0.2623967 0.6768061
vt 0.2458678 0.6768061
vt 0.3688017 0.3060837
vt 0.3853306 0.3060837
vt 0.3853306 0.3212928
vt 0.3688017 0.3212928
vt 0.3688017 0.289924
vt 0.3853306 0.289924
vt 0.3853306 0.3051331
vt 0.3688017 0.3051331
vt 0.6322314 0.7585551
vt 0.6487603 0.7585551
vt 0.6487603 0.7737643
vt 0.6322314 0.7737643
vt 0.6849173 0.7585551
vt 0.7014463 0.7585551
vt 0.7014463 0.7737643
vt 0.6849173 0.7737643
vt 0.6146694 0.6777567
vt 0.6311983 0.6777567
vt 0.6311983 0.6929657
vt 0.6146694 0.6929657
vt 0.6146694 0.661597
vt 0.6311983 0.661597
vt 0.6311983 0.6768061
vt 0.6146694 0.6768061

# Normal
vn 0 0 -1

# Mesh description
g town_mesh_0004

# Faces
f 1/1/1 2/2/1 3/3/1 4/4/1
f 5/5/1 6/6/1 7/7/1 8/8/1
f 9/1/1 10/2/1 11/3/1 12/4/1
f 13/5/1 14/6/1 15/7/1 16/8/1
f 17/1/1 18/2/1 19/3/1 20/4/1
f 21/5/1 22/6/1 23/7/1 24/8/1
f 25/1/1 26/2/1 27/3/1 28/4/1
f 29/5/1 30/6/1 31/7/1 32/8/1
f 33/1/1 34/2/1 35/3/1 36/4/1
f 37/5/1 38/6/1 39/7/1 40/8/1
f 41/1/1 42/2/1 43/3/1 44/4/1
f 45/5/1 46/6/1 47/7/1 48/8/1
f 49/1/1 50/2/1 51/3/1 52/4/1
f 53/5/1 54/6/1 55/7/1 56/8/1
f 57/1/1 58/2/1 59/3/1 60/4/1
f 61/5/1 62/6/1 63/7/1 64/8/1
f 65/1/1 66/2/1 67/3/1 68/4/1
f 69/5/1 70/6/1 71/7/1 72/8/1
f 73/1/1 74/2/1 75/3/1 76/4/1
f 77/5/1 78/6/1 79/7/1 80/8/1
f 81/1/1 82/2/1 83/3/1 84/4/1
f 85/5/1 86/6/1 87/7/1 88/8/1
f 89/1/1 90/2/1 91/3/1 92/4/1
f 93/5/1 94/6/1 95/7/1 96/8/1
f 97/9/1 98/10/1 99/11/1 100/12/1
f 101/9/1 102/10/1 103/11/1 104/12/1
f 105/9/1 106/10/1 107/11/1 108/12/1
f 109/9/1 110/10/1 111/11/1 112/12/1
f 113/13/1 114/14/1 115/15/1 116/16/1
f 117/17/1 118/18/1 119/19/1 120/20/1
f 121/21/1 122/22/1 123/23/1 124/24/1
f 125/25/1 126/26/1 127/27/1 128/28/1
f 129/29/1 130/30/1 131/31/1 132/32/1
f 133/33/1 134/34/1 135/35/1 136/36/1
f 137/33/1 138/34/1 139/35/1 140/36/1
f 141/33/1 142/34/1 143/35/1 144/36/1
f 145/33/1 146/34/1 147/35/1 148/36/1
f 149/33/1 150/34/1 151/35/1 152/36/1
f 153/33/1 154/34/1 155/35/1 156/36/1
f 157/33/1 158/34/1 159/35/1 160/36/1
f 161/33/1 162/34/1 163/35/1 164/36/1
f 165/33/1 166/34/1 167/35/1 168/36/1
f 169/33/1 170/34/1 171/35/1 172/36/1
f 173/33/1 174/34/1 175/35/1 176/36/1
f 177/33/1 178/34/1 179/35/1 180/36/1
f 181/33/1 182/34/1 183/35/1 184/36/1
f 185/33/1 186/34/1 187/35/1 188/36/1
f 189/33/1 190/34/1 191/35/1 192/36/1
f 193/33/1 194/34/1 195/35/1 196/36/1
f 197/33/1 198/34/1 199/35/1 200/36/1
f 201/29/1 202/30/1 203/31/1 204/32/1
f 205/25/1 206/26/1 207/27/1 208/28/1
f 209/34/1 210/35/1 211/36/1 212/33/1
f 213/25/1 214/26/1 215/27/1 216/28/1
f 217/34/1 218/35/1 219/36/1 220/33/1
f 221/37/1 222/38/1 223/39/1 224/40/1
f 225/41/1 226/42/1 227/43/1 228/44/1
f 229/45/1 230/46/1 231/47/1 232/48/1
f 233/37/1 234/38/1 235/39/1 236/40/1
f 237/41/1 238/42/1 239/43/1 240/44/1
f 241/45/1 242/46/1 243/47/1 244/48/1
f 245/25/1 246/26/1 247/27/1 248/28/1
f 249/34/1 250/35/1 251/36/1 252/33/1
f 253/49/1 254/50/1 255/51/1 256/52/1
f 257/53/1 258/54/1 259/55/1 260/56/1
f 261/49/1 262/50/1 263/51/1 264/52/1
f 265/53/1 266/54/1 267/55/1 268/56/1
f 269/25/1 270/26/1 271/27/1 272/28/1
f 273/34/1 274/35/1 275/36/1 276/33/1
f 277/57/1 278/58/1 279/59/1 280/60/1
f 281/25/1 282/26/1 283/27/1 284/28/1
f 285/34/1 286/35/1 287/36/1 288/33/1
f 289/61/1 290/62/1 291/63/1 292/64/1
f 293/65/1 294/66/1 295/67/1 296/68/1
f 297/65/1 298/66/1 299/67/1 300/68/1
f 301/65/1 302/66/1 303/67/1 304/68/1
f 305/69/1 306/70/1 307/71/1 308/72/1
f 309/25/1 310/26/1 311/27/1 312/28/1
f 313/34/1 314/35/1 315/36/1 316/33/1
f 317/61/1 318/62/1 319/63/1 320/64/1
f 321/65/1 322/66/1 323/67/1 324/68/1
f 325/65/1 326/66/1 327/67/1 328/68/1
f 329/65/1 330/66/1 331/67/1 332/68/1
f 333/69/1 334/70/1 335/71/1 336/72/1
f 337/37/1 338/38/1 339/39/1 340/40/1
f 341/41/1 342/42/1 343/43/1 344/44/1
f 345/45/1 346/46/1 347/47/1 348/48/1
f 349/37/1 350/38/1 351/39/1 352/40/1
f 353/41/1 354/42/1 355/43/1 356/44/1
f 357/45/1 358/46/1 359/47/1 360/48/1
f 361/25/1 362/26/1 363/27/1 364/28/1
f 365/34/1 366/35/1 367/36/1 368/33/1
f 369/73/1 370/74/1 371/75/1 372/76/1
f 373/61/1 374/62/1 375/63/1 376/64/1
f 377/65/1 378/66/1 379/67/1 380/68/1
f 381/13/1 382/14/1 383/15/1 384/16/1
f 385/65/1 386/66/1 387/67/1 388/68/1
f 389/69/1 390/70/1 391/71/1 392/72/1
f 393/49/1 394/50/1 395/51/1 396/52/1
f 397/53/1 398/54/1 399/55/1 400/56/1
f 401/49/1 402/50/1 403/51/1 404/52/1
f 405/53/1 406/54/1 407/55/1 408/56/1
f 409/25/1 410/26/1 411/27/1 412/28/1
f 413/34/1 414/35/1 415/36/1 416/33/1
f 417/77/1 418/78/1 419/79/1 420/80/1
f 421/77/1 422/78/1 423/79/1 424/80/1
f 425/25/1 426/26/1 427/27/1 428/28/1
f 429/34/1 430/35/1 431/36/1 432/33/1
f 433/81/1 434/82/1 435/83/1 436/84/1
f 437/85/1 438/86/1 439/87/1 440/88/1
f 441/85/1 442/86/1 443/87/1 444/88/1
f 445/85/1 446/86/1 447/87/1 448/88/1
f 449/85/1 450/86/1 451/87/1 452/88/1
f 453/77/1 454/78/1 455/79/1 456/80/1
f 457/81/1 458/82/1 459/83/1 460/84/1
f 461/25/1 462/26/1 463/27/1 464/28/1
f 465/34/1 466/35/1 467/36/1 468/33/1
f 469/81/1 470/82/1 471/83/1 472/84/1
f 473/89/1 474/90/1 475/91/1 476/92/1
f 477/89/1 478/90/1 479/91/1 480/92/1
f 481/89/1 482/90/1 483/91/1 484/92/1
f 485/89/1 486/90/1 487/91/1 488/92/1
f 489/81/1 490/82/1 491/83/1 492/84/1
f 493/81/1 494/82/1 495/83/1 496/84/1
f 497/37/1 498/38/1 499/39/1 500/40/1
f 501/41/1 502/42/1 503/43/1 504/44/1
f 505/45/1 506/46/1 507/47/1 508/48/1
f 509/37/1 510/38/1 511/39/1 512/40/1
f 513/41/1 514/42/1 515/43/1 516/44/1
f 517/45/1 518/46/1 519/47/1 520/48/1
f 521/25/1 522/26/1 523/27/1 524/28/1
f 525/34/1 526/35/1 527/36/1 528/33/1
f 529/81/1 530/82/1 531/83/1 532/84/1
f 533/89/1 534/90/1 535/91/1 536/92/1
f 537/89/1 538/90/1 539/91/1 540/92/1
f 541/89/1 542/90/1 543/91/1 544/92/1
f 545/93/1 546/94/1 547/95/1 548/96/1
f 549/81/1 550/82/1 551/83/1 552/84/1
f 553/81/1 554/82/1 555/83/1 556/84/1
f 557/49/1 558/50/1 559/51/1 560/52/1
f 561/53/1 562/54/1 563/55/1 564/56/1
f 565/49/1 566/50/1 567/51/1 568/52/1
f 569/53/1 570/54/1 571/55/1 572/56/1
f 573/25/1 574/26/1 575/27/1 576/28/1
f 577/34/1 578/35/1 579/36/1 580/33/1
f 581/97/1 582/98/1 583/99/1 584/100/1
f 585/89/1 586/90/1 587/91/1 588/92/1
f 589/89/1 590/90/1 591/91/1 592/92/1
f 593/89/1 594/90/1 595/91/1 596/92/1
f 597/101/1 598/102/1 599/103/1 600/104/1
f 601/81/1 602/82/1 603/83/1 604/84/1
f 605/97/1 606/98/1 607/99/1 608/100/1
f 609/25/1 610/26/1 611/27/1 612/28/1
f 613/34/1 614/35/1 615/36/1 616/33/1
f 617/89/1 618/90/1 619/91/1 620/92/1
f 621/89/1 622/90/1 623/91/1 624/92/1
f 625/89/1 626/90/1 627/91/1 628/92/1
f 629/105/1 630/106/1 631/107/1 632/108/1
f 633/97/1 634/98/1 635/99/1 636/100/1
f 637/25/1 638/26/1 639/27/1 640/28/1
f 641/29/1 642/30/1 643/31/1 644/32/1
f 645/33/1 646/34/1 647/35/1 648/36/1
f 649/33/1 650/34/1 651/35/1 652/36/1
f 653/33/1 654/34/1 655/35/1 656/36/1
f 657/33/1 658/34/1 659/35/1 660/36/1
f 661/33/1 662/34/1 663/35/1 664/36/1
f 665/33/1 666/34/1 667/35/1 668/36/1
f 669/29/1 670/30/1 671/31/1 672/32/1
f 673/33/1 674/34/1 675/35/1 676/36/1
f 677/33/1 678/34/1 679/35/1 680/36/1
f 681/33/1 682/34/1 683/35/1 684/36/1
f 685/33/1 686/34/1 687/35/1 688/36/1
f 689/33/1 690/34/1 691/35/1 692/36/1
f 693/33/1 694/34/1 695/35/1 696/36/1
f 697/29/1 698/30/1 699/31/1 700/32/1
f 701/5/1 702/6/1 703/7/1 704/8/1
f 705/1/1 706/2/1 707/3/1 708/4/1
f 709/5/1 710/6/1 711/7/1 712/8/1
f 713/1/1 714/2/1 715/3/1 716/4/1
f 717/1/1 718/2/1 719/3/1 720/4/1
f 721/5/1 722/6/1 723/7/1 724/8/1
f 725/1/1 726/2/1 727/3/1 728/4/1
f 729/5/1 730/6/1 731/7/1 732/8/1
f 733/1/1 734/2/1 735/3/1 736/4/1
f 737/5/1 738/6/1 739/7/1 740/8/1
f 741/109/1 742/110/1 743/111/1 744/112/1
f 745/109/1 746/110/1 747/111/1 748/112/1
f 749/113/1 750/114/1 751/115/1 752/116/1
f 753/113/1 754/114/1 755/115/1 756/116/1
f 757/117/1 758/118/1 759/119/1 760/120/1
f 761/117/1 762/118/1 763/119/1 764/120/1
f 765/121/1 766/122/1 767/123/1 768/124/1
f 769/121/1 770/122/1 771/123/1 772/124/1

