# Tiled2Unity generated file. Do not modify by hand.
# Wavefront file for 'town_mesh_0007.obj'

# Vertices (Count = 240)
v -112 -32 0
v -128 -32 0
v -128 -16 0
v -112 -16 0
v -80 -32 0
v -96 -32 0
v -96 -16 0
v -80 -16 0
v 0 -32 0
v -16 -32 0
v -16 -16 0
v 0 -16 0
v -16 -48 0
v -32 -48 0
v -32 -32 0
v -16 -32 0
v -144 -64 0
v -160 -64 0
v -160 -48 0
v -144 -48 0
v -80 -64 0
v -96 -64 0
v -96 -48 0
v -80 -48 0
v 0 -64 0
v -16 -64 0
v -16 -48 0
v 0 -48 0
v -288 -80 0
v -304 -80 0
v -304 -64 0
v -288 -64 0
v -272 -80 0
v -288 -80 0
v -288 -64 0
v -272 -64 0
v -96 -96 0
v -112 -96 0
v -112 -80 0
v -96 -80 0
v -32 -96 0
v -48 -96 0
v -48 -80 0
v -32 -80 0
v -304 -112 0
v -320 -112 0
v -320 -96 0
v -304 -96 0
v -288 -112 0
v -304 -112 0
v -304 -96 0
v -288 -96 0
v -272 -112 0
v -288 -112 0
v -288 -96 0
v -272 -96 0
v -256 -112 0
v -272 -112 0
v -272 -96 0
v -256 -96 0
v -80 -112 0
v -96 -112 0
v -96 -96 0
v -80 -96 0
v -48 -112 0
v -64 -112 0
v -64 -96 0
v -48 -96 0
v 0 -112 0
v -16 -112 0
v -16 -96 0
v 0 -96 0
v -304 -128 0
v -320 -128 0
v -320 -112 0
v -304 -112 0
v -256 -128 0
v -272 -128 0
v -272 -112 0
v -256 -112 0
v -304 -144 0
v -320 -144 0
v -320 -128 0
v -304 -128 0
v -256 -144 0
v -272 -144 0
v -272 -128 0
v -256 -128 0
v -144 -144 0
v -160 -144 0
v -160 -128 0
v -144 -128 0
v -112 -144 0
v -128 -144 0
v -128 -128 0
v -112 -128 0
v -64 -144 0
v -80 -144 0
v -80 -128 0
v -64 -128 0
v -48 -144 0
v -64 -144 0
v -64 -128 0
v -48 -128 0
v 0 -144 0
v -16 -144 0
v -16 -128 0
v 0 -128 0
v -64 -304 0
v -80 -304 0
v -80 -288 0
v -64 -288 0
v -352 -368 0
v -368 -368 0
v -368 -352 0
v -352 -352 0
v -336 -368 0
v -352 -368 0
v -352 -352 0
v -336 -352 0
v -320 -368 0
v -336 -368 0
v -336 -352 0
v -320 -352 0
v -304 -368 0
v -320 -368 0
v -320 -352 0
v -304 -352 0
v -304 -384 0
v -320 -384 0
v -320 -368 0
v -304 -368 0
v -352 -400 0
v -368 -400 0
v -368 -384 0
v -352 -384 0
v -320 -400 0
v -336 -400 0
v -336 -384 0
v -320 -384 0
v -288 -400 0
v -304 -400 0
v -304 -384 0
v -288 -384 0
v -256 -400 0
v -272 -400 0
v -272 -384 0
v -256 -384 0
v -352 -416 0
v -368 -416 0
v -368 -400 0
v -352 -400 0
v -320 -416 0
v -336 -416 0
v -336 -400 0
v -320 -400 0
v -288 -416 0
v -304 -416 0
v -304 -400 0
v -288 -400 0
v -256 -416 0
v -272 -416 0
v -272 -400 0
v -256 -400 0
v -352 -432 0
v -368 -432 0
v -368 -416 0
v -352 -416 0
v -336 -432 0
v -352 -432 0
v -352 -416 0
v -336 -416 0
v -272 -432 0
v -288 -432 0
v -288 -416 0
v -272 -416 0
v -256 -432 0
v -272 -432 0
v -272 -416 0
v -256 -416 0
v -16 -528 0
v -32 -528 0
v -32 -512 0
v -16 -512 0
v -96 -560 0
v -112 -560 0
v -112 -544 0
v -96 -544 0
v -16 -560 0
v -32 -560 0
v -32 -544 0
v -16 -544 0
v -608 -576 0
v -624 -576 0
v -624 -560 0
v -608 -560 0
v -560 -576 0
v -576 -576 0
v -576 -560 0
v -560 -560 0
v -176 -576 0
v -192 -576 0
v -192 -560 0
v -176 -560 0
v -112 -576 0
v -128 -576 0
v -128 -560 0
v -112 -560 0
v -96 -576 0
v -112 -576 0
v -112 -560 0
v -96 -560 0
v -64 -576 0
v -80 -576 0
v -80 -560 0
v -64 -560 0
v -48 -576 0
v -64 -576 0
v -64 -560 0
v -48 -560 0
v -224 -592 0
v -240 -592 0
v -240 -576 0
v -224 -576 0
v -208 -592 0
v -224 -592 0
v -224 -576 0
v -208 -576 0
v -176 -592 0
v -192 -592 0
v -192 -576 0
v -176 -576 0
v -272 -608 0
v -288 -608 0
v -288 -592 0
v -272 -592 0
v -256 -624 0
v -272 -624 0
v -272 -608 0
v -256 -608 0

# Texture cooridinates (Count = 96)
vt 0.3863636 0.8070343
vt 0.4028926 0.8070343
vt 0.4028926 0.8222433
vt 0.3863636 0.8222433
vt 0.3863636 0.8231939
vt 0.4028926 0.8231939
vt 0.4028926 0.838403
vt 0.3863636 0.838403
vt 0.9132231 0.8231939
vt 0.9297521 0.8231939
vt 0.9297521 0.838403
vt 0.9132231 0.838403
vt 0.6322314 0.6777567
vt 0.6487603 0.6777567
vt 0.6487603 0.6929657
vt 0.6322314 0.6929657
vt 0.4917355 0.8231939
vt 0.5082645 0.8231939
vt 0.5082645 0.838403
vt 0.4917355 0.838403
vt 0.8780992 0.9363118
vt 0.8946281 0.9363118
vt 0.8946281 0.9515209
vt 0.8780992 0.9515209
vt 0.7727273 0.8555133
vt 0.7892562 0.8555133
vt 0.7892562 0.8707224
vt 0.7727273 0.8707224
vt 0.4390496 0.8070343
vt 0.4555785 0.8070343
vt 0.4555785 0.8222433
vt 0.4390496 0.8222433
vt 0.8780992 0.9201521
vt 0.8946281 0.9201521
vt 0.8946281 0.9353612
vt 0.8780992 0.9353612
vt 0.8780992 0.9039924
vt 0.8946281 0.9039924
vt 0.8946281 0.9192015
vt 0.8780992 0.9192015
vt 0.7902893 0.9847909
vt 0.8068182 0.9847909
vt 0.8068182 1
vt 0.7902893 1
vt 0.6322314 0.661597
vt 0.6487603 0.661597
vt 0.6487603 0.6768061
vt 0.6322314 0.6768061
vt 0.9132231 0.9524715
vt 0.9297521 0.9524715
vt 0.9297521 0.9676806
vt 0.9132231 0.9676806
vt 0.4566116 0.8555133
vt 0.4731405 0.8555133
vt 0.4731405 0.8707224
vt 0.4566116 0.8707224
vt 0.8605372 0.9363118
vt 0.8770661 0.9363118
vt 0.8770661 0.9515209
vt 0.8605372 0.9515209
vt 0.8605372 0.9847909
vt 0.8770661 0.9847909
vt 0.8770661 1
vt 0.8605372 1
vt 0.8605372 0.9201521
vt 0.8770661 0.9201521
vt 0.8770661 0.9353612
vt 0.8605372 0.9353612
vt 0.8605372 0.9524715
vt 0.8770661 0.9524715
vt 0.8770661 0.9676806
vt 0.8605372 0.9676806
vt 0.8605372 0.9039924
vt 0.8770661 0.9039924
vt 0.8770661 0.9192015
vt 0.8605372 0.9192015
vt 0.3161157 0.8555133
vt 0.3326446 0.8555133
vt 0.3326446 0.8707224
vt 0.3161157 0.8707224
vt 0.2985537 0.8555133
vt 0.3150826 0.8555133
vt 0.3150826 0.8707224
vt 0.2985537 0.8707224
vt 0.08677686 0.4344106
vt 0.07024793 0.4344106
vt 0.07024793 0.4192015
vt 0.08677686 0.4192015
vt 0.4917355 0.8070343
vt 0.5082645 0.8070343
vt 0.5082645 0.8222433
vt 0.4917355 0.8222433
vt 0.08677686 0.4505703
vt 0.07024793 0.4505703
vt 0.07024793 0.4353612
vt 0.08677686 0.4353612

# Normal
vn 0 0 -1

# Mesh description
g town_mesh_0007

# Faces
f 1/1/1 2/2/1 3/3/1 4/4/1
f 5/5/1 6/6/1 7/7/1 8/8/1
f 9/5/1 10/6/1 11/7/1 12/8/1
f 13/1/1 14/2/1 15/3/1 16/4/1
f 17/5/1 18/6/1 19/7/1 20/8/1
f 21/1/1 22/2/1 23/3/1 24/4/1
f 25/5/1 26/6/1 27/7/1 28/8/1
f 29/9/1 30/10/1 31/11/1 32/12/1
f 33/9/1 34/10/1 35/11/1 36/12/1
f 37/13/1 38/14/1 39/15/1 40/16/1
f 41/17/1 42/18/1 43/19/1 44/20/1
f 45/21/1 46/22/1 47/23/1 48/24/1
f 49/25/1 50/26/1 51/27/1 52/28/1
f 53/25/1 54/26/1 55/27/1 56/28/1
f 57/21/1 58/22/1 59/23/1 60/24/1
f 61/1/1 62/2/1 63/3/1 64/4/1
f 65/29/1 66/30/1 67/31/1 68/32/1
f 69/1/1 70/2/1 71/3/1 72/4/1
f 73/33/1 74/34/1 75/35/1 76/36/1
f 77/33/1 78/34/1 79/35/1 80/36/1
f 81/37/1 82/38/1 83/39/1 84/40/1
f 85/37/1 86/38/1 87/39/1 88/40/1
f 89/41/1 90/42/1 91/43/1 92/44/1
f 93/41/1 94/42/1 95/43/1 96/44/1
f 97/5/1 98/6/1 99/7/1 100/8/1
f 101/1/1 102/2/1 103/3/1 104/4/1
f 105/5/1 106/6/1 107/7/1 108/8/1
f 109/45/1 110/46/1 111/47/1 112/48/1
f 113/49/1 114/50/1 115/51/1 116/52/1
f 117/49/1 118/50/1 119/51/1 120/52/1
f 121/49/1 122/50/1 123/51/1 124/52/1
f 125/49/1 126/50/1 127/51/1 128/52/1
f 129/53/1 130/54/1 131/55/1 132/56/1
f 133/57/1 134/58/1 135/59/1 136/60/1
f 137/61/1 138/62/1 139/63/1 140/64/1
f 141/61/1 142/62/1 143/63/1 144/64/1
f 145/57/1 146/58/1 147/59/1 148/60/1
f 149/65/1 150/66/1 151/67/1 152/68/1
f 153/69/1 154/70/1 155/71/1 156/72/1
f 157/69/1 158/70/1 159/71/1 160/72/1
f 161/65/1 162/66/1 163/67/1 164/68/1
f 165/73/1 166/74/1 167/75/1 168/76/1
f 169/77/1 170/78/1 171/79/1 172/80/1
f 173/81/1 174/82/1 175/83/1 176/84/1
f 177/73/1 178/74/1 179/75/1 180/76/1
f 181/17/1 182/18/1 183/19/1 184/20/1
f 185/85/1 186/86/1 187/87/1 188/88/1
f 189/89/1 190/90/1 191/91/1 192/92/1
f 193/81/1 194/82/1 195/83/1 196/84/1
f 197/77/1 198/78/1 199/79/1 200/80/1
f 201/85/1 202/86/1 203/87/1 204/88/1
f 205/17/1 206/18/1 207/19/1 208/20/1
f 209/93/1 210/94/1 211/95/1 212/96/1
f 213/89/1 214/90/1 215/91/1 216/92/1
f 217/29/1 218/30/1 219/31/1 220/32/1
f 221/89/1 222/90/1 223/91/1 224/92/1
f 225/29/1 226/30/1 227/31/1 228/32/1
f 229/93/1 230/94/1 231/95/1 232/96/1
f 233/17/1 234/18/1 235/19/1 236/20/1
f 237/29/1 238/30/1 239/31/1 240/32/1

