# Tiled2Unity generated file. Do not modify by hand.
# Wavefront file for 'swamp_boss_mesh_0004.obj'

# Vertices (Count = 32)
v -16 -64 0
v -32 -64 0
v -32 -48 0
v -16 -48 0
v -224 -48 0
v -240 -48 0
v -240 -32 0
v -224 -32 0
v -64 -48 0
v -80 -48 0
v -80 -32 0
v -64 -32 0
v -16 -48 0
v -32 -48 0
v -32 -32 0
v -16 -32 0
v -224 -32 0
v -240 -32 0
v -240 -16 0
v -224 -16 0
v -160 -32 0
v -176 -32 0
v -176 -16 0
v -160 -16 0
v -64 -32 0
v -80 -32 0
v -80 -16 0
v -64 -16 0
v -16 -32 0
v -32 -32 0
v -32 -16 0
v -16 -16 0

# Texture cooridinates (Count = 24)
vt 0.07024793 0.4192015
vt 0.08677686 0.4192015
vt 0.08677686 0.4344106
vt 0.07024793 0.4344106
vt 0.1229339 0.4192015
vt 0.1394628 0.4192015
vt 0.1394628 0.4344106
vt 0.1229339 0.4344106
vt 0.08780992 0.4192015
vt 0.1043388 0.4192015
vt 0.1043388 0.4344106
vt 0.08780992 0.4344106
vt 0.07024793 0.4353612
vt 0.08677686 0.4353612
vt 0.08677686 0.4505703
vt 0.07024793 0.4505703
vt 0.1229339 0.4353612
vt 0.1394628 0.4353612
vt 0.1394628 0.4505703
vt 0.1229339 0.4505703
vt 0.08780992 0.4353612
vt 0.1043388 0.4353612
vt 0.1043388 0.4505703
vt 0.08780992 0.4505703

# Normal
vn 0 0 -1

# Mesh description
g swamp_boss_mesh_0004

# Faces
f 1/1/1 2/2/1 3/3/1 4/4/1
f 5/5/1 6/6/1 7/7/1 8/8/1
f 9/9/1 10/10/1 11/11/1 12/12/1
f 13/13/1 14/14/1 15/15/1 16/16/1
f 17/17/1 18/18/1 19/19/1 20/20/1
f 21/21/1 22/22/1 23/23/1 24/24/1
f 25/21/1 26/22/1 27/23/1 28/24/1
f 29/13/1 30/14/1 31/15/1 32/16/1

