# Tiled2Unity generated file. Do not modify by hand.
# Wavefront file for 'swamp_boss_mesh_0005.obj'

# Vertices (Count = 420)
v -256 -304 0
v -272 -304 0
v -272 -288 0
v -256 -288 0
v -64 -304 0
v -80 -304 0
v -80 -288 0
v -64 -288 0
v 0 -304 0
v -16 -304 0
v -16 -288 0
v 0 -288 0
v -256 -288 0
v -272 -288 0
v -272 -272 0
v -256 -272 0
v -240 -288 0
v -256 -288 0
v -256 -272 0
v -240 -272 0
v -192 -288 0
v -208 -288 0
v -208 -272 0
v -192 -272 0
v -16 -288 0
v -32 -288 0
v -32 -272 0
v -16 -272 0
v 0 -288 0
v -16 -288 0
v -16 -272 0
v 0 -272 0
v -256 -272 0
v -272 -272 0
v -272 -256 0
v -256 -256 0
v -48 -272 0
v -64 -272 0
v -64 -256 0
v -48 -256 0
v 0 -272 0
v -16 -272 0
v -16 -256 0
v 0 -256 0
v -256 -256 0
v -272 -256 0
v -272 -240 0
v -256 -240 0
v -208 -256 0
v -224 -256 0
v -224 -240 0
v -208 -240 0
v -112 -256 0
v -128 -256 0
v -128 -240 0
v -112 -240 0
v -48 -256 0
v -64 -256 0
v -64 -240 0
v -48 -240 0
v 0 -256 0
v -16 -256 0
v -16 -240 0
v 0 -240 0
v -256 -240 0
v -272 -240 0
v -272 -224 0
v -256 -224 0
v -80 -240 0
v -96 -240 0
v -96 -224 0
v -80 -224 0
v -32 -240 0
v -48 -240 0
v -48 -224 0
v -32 -224 0
v 0 -240 0
v -16 -240 0
v -16 -224 0
v 0 -224 0
v -256 -224 0
v -272 -224 0
v -272 -208 0
v -256 -208 0
v -224 -224 0
v -240 -224 0
v -240 -208 0
v -224 -208 0
v -144 -224 0
v -160 -224 0
v -160 -208 0
v -144 -208 0
v 0 -224 0
v -16 -224 0
v -16 -208 0
v 0 -208 0
v -256 -208 0
v -272 -208 0
v -272 -192 0
v -256 -192 0
v -224 -208 0
v -240 -208 0
v -240 -192 0
v -224 -192 0
v 0 -208 0
v -16 -208 0
v -16 -192 0
v 0 -192 0
v -256 -192 0
v -272 -192 0
v -272 -176 0
v -256 -176 0
v -80 -192 0
v -96 -192 0
v -96 -176 0
v -80 -176 0
v 0 -192 0
v -16 -192 0
v -16 -176 0
v 0 -176 0
v -256 -176 0
v -272 -176 0
v -272 -160 0
v -256 -160 0
v -160 -176 0
v -176 -176 0
v -176 -160 0
v -160 -160 0
v 0 -176 0
v -16 -176 0
v -16 -160 0
v 0 -160 0
v -256 -160 0
v -272 -160 0
v -272 -144 0
v -256 -144 0
v -96 -160 0
v -112 -160 0
v -112 -144 0
v -96 -144 0
v -48 -160 0
v -64 -160 0
v -64 -144 0
v -48 -144 0
v 0 -160 0
v -16 -160 0
v -16 -144 0
v 0 -144 0
v -256 -144 0
v -272 -144 0
v -272 -128 0
v -256 -128 0
v -224 -144 0
v -240 -144 0
v -240 -128 0
v -224 -128 0
v 0 -144 0
v -16 -144 0
v -16 -128 0
v 0 -128 0
v -256 -128 0
v -272 -128 0
v -272 -112 0
v -256 -112 0
v -240 -128 0
v -256 -128 0
v -256 -112 0
v -240 -112 0
v -208 -128 0
v -224 -128 0
v -224 -112 0
v -208 -112 0
v -32 -128 0
v -48 -128 0
v -48 -112 0
v -32 -112 0
v 0 -128 0
v -16 -128 0
v -16 -112 0
v 0 -112 0
v -256 -112 0
v -272 -112 0
v -272 -96 0
v -256 -96 0
v -208 -112 0
v -224 -112 0
v -224 -96 0
v -208 -96 0
v -160 -112 0
v -176 -112 0
v -176 -96 0
v -160 -96 0
v 0 -112 0
v -16 -112 0
v -16 -96 0
v 0 -96 0
v -256 -96 0
v -272 -96 0
v -272 -80 0
v -256 -80 0
v -192 -96 0
v -208 -96 0
v -208 -80 0
v -192 -80 0
v -48 -96 0
v -64 -96 0
v -64 -80 0
v -48 -80 0
v -16 -96 0
v -32 -96 0
v -32 -80 0
v -16 -80 0
v 0 -96 0
v -16 -96 0
v -16 -80 0
v 0 -80 0
v -256 -80 0
v -272 -80 0
v -272 -64 0
v -256 -64 0
v -224 -80 0
v -240 -80 0
v -240 -64 0
v -224 -64 0
v -80 -80 0
v -96 -80 0
v -96 -64 0
v -80 -64 0
v -32 -80 0
v -48 -80 0
v -48 -64 0
v -32 -64 0
v 0 -80 0
v -16 -80 0
v -16 -64 0
v 0 -64 0
v -256 -64 0
v -272 -64 0
v -272 -48 0
v -256 -48 0
v -240 -64 0
v -256 -64 0
v -256 -48 0
v -240 -48 0
v -160 -64 0
v -176 -64 0
v -176 -48 0
v -160 -48 0
v -80 -64 0
v -96 -64 0
v -96 -48 0
v -80 -48 0
v -16 -64 0
v -32 -64 0
v -32 -48 0
v -16 -48 0
v 0 -64 0
v -16 -64 0
v -16 -48 0
v 0 -48 0
v -256 -48 0
v -272 -48 0
v -272 -32 0
v -256 -32 0
v -240 -48 0
v -256 -48 0
v -256 -32 0
v -240 -32 0
v -160 -48 0
v -176 -48 0
v -176 -32 0
v -160 -32 0
v -128 -48 0
v -144 -48 0
v -144 -32 0
v -128 -32 0
v -16 -48 0
v -32 -48 0
v -32 -32 0
v -16 -32 0
v 0 -48 0
v -16 -48 0
v -16 -32 0
v 0 -32 0
v -256 -32 0
v -272 -32 0
v -272 -16 0
v -256 -16 0
v -240 -32 0
v -256 -32 0
v -256 -16 0
v -240 -16 0
v -224 -32 0
v -240 -32 0
v -240 -16 0
v -224 -16 0
v -208 -32 0
v -224 -32 0
v -224 -16 0
v -208 -16 0
v -192 -32 0
v -208 -32 0
v -208 -16 0
v -192 -16 0
v -176 -32 0
v -192 -32 0
v -192 -16 0
v -176 -16 0
v -160 -32 0
v -176 -32 0
v -176 -16 0
v -160 -16 0
v -144 -32 0
v -160 -32 0
v -160 -16 0
v -144 -16 0
v -128 -32 0
v -144 -32 0
v -144 -16 0
v -128 -16 0
v -112 -32 0
v -128 -32 0
v -128 -16 0
v -112 -16 0
v -96 -32 0
v -112 -32 0
v -112 -16 0
v -96 -16 0
v -80 -32 0
v -96 -32 0
v -96 -16 0
v -80 -16 0
v -64 -32 0
v -80 -32 0
v -80 -16 0
v -64 -16 0
v -48 -32 0
v -64 -32 0
v -64 -16 0
v -48 -16 0
v -32 -32 0
v -48 -32 0
v -48 -16 0
v -32 -16 0
v -16 -32 0
v -32 -32 0
v -32 -16 0
v -16 -16 0
v 0 -32 0
v -16 -32 0
v -16 -16 0
v 0 -16 0
v -256 -16 0
v -272 -16 0
v -272 0 0
v -256 0 0
v -240 -16 0
v -256 -16 0
v -256 0 0
v -240 0 0
v -224 -16 0
v -240 -16 0
v -240 0 0
v -224 0 0
v -208 -16 0
v -224 -16 0
v -224 0 0
v -208 0 0
v -192 -16 0
v -208 -16 0
v -208 0 0
v -192 0 0
v -176 -16 0
v -192 -16 0
v -192 0 0
v -176 0 0
v -160 -16 0
v -176 -16 0
v -176 0 0
v -160 0 0
v -144 -16 0
v -160 -16 0
v -160 0 0
v -144 0 0
v -128 -16 0
v -144 -16 0
v -144 0 0
v -128 0 0
v -112 -16 0
v -128 -16 0
v -128 0 0
v -112 0 0
v -96 -16 0
v -112 -16 0
v -112 0 0
v -96 0 0
v -80 -16 0
v -96 -16 0
v -96 0 0
v -80 0 0
v -64 -16 0
v -80 -16 0
v -80 0 0
v -64 0 0
v -48 -16 0
v -64 -16 0
v -64 0 0
v -48 0 0
v -32 -16 0
v -48 -16 0
v -48 0 0
v -32 0 0
v -16 -16 0
v -32 -16 0
v -32 0 0
v -16 0 0
v 0 -16 0
v -16 -16 0
v -16 0 0
v 0 0 0

# Texture cooridinates (Count = 120)
vt 0.6322314 0.7747148
vt 0.6487603 0.7747148
vt 0.6487603 0.789924
vt 0.6322314 0.789924
vt 0.4917355 0.8070343
vt 0.5082645 0.8070343
vt 0.5082645 0.8222433
vt 0.4917355 0.8222433
vt 0.1229339 0.4676806
vt 0.1394628 0.4676806
vt 0.1394628 0.4828897
vt 0.1229339 0.4828897
vt 0.4917355 0.8231939
vt 0.5082645 0.8231939
vt 0.5082645 0.838403
vt 0.4917355 0.838403
vt 0.07024793 0.4515209
vt 0.08677686 0.4515209
vt 0.08677686 0.4667301
vt 0.07024793 0.4667301
vt 0.08677686 0.4505703
vt 0.07024793 0.4505703
vt 0.07024793 0.4353612
vt 0.08677686 0.4353612
vt 0.03512397 0.4353612
vt 0.05165289 0.4353612
vt 0.05165289 0.4505703
vt 0.03512397 0.4505703
vt 0.08677686 0.4344106
vt 0.07024793 0.4344106
vt 0.07024793 0.4192015
vt 0.08677686 0.4192015
vt 0.2458678 0.2576045
vt 0.2623967 0.2576045
vt 0.2623967 0.2728137
vt 0.2458678 0.2728137
vt 0 0.4353612
vt 0.01652892 0.4353612
vt 0.01652892 0.4505703
vt 0 0.4505703
vt 0 0.4515209
vt 0.01652892 0.4515209
vt 0.01652892 0.4667301
vt 0 0.4667301
vt 0.01756198 0.4353612
vt 0.03409091 0.4353612
vt 0.03409091 0.4505703
vt 0.01756198 0.4505703
vt 0.01756198 0.4515209
vt 0.03409091 0.4515209
vt 0.03409091 0.4667301
vt 0.01756198 0.4667301
vt 0.03512397 0.4515209
vt 0.05165289 0.4515209
vt 0.05165289 0.4667301
vt 0.03512397 0.4667301
vt 0.08780992 0.4515209
vt 0.1043388 0.4515209
vt 0.1043388 0.4667301
vt 0.08780992 0.4667301
vt 0.1229339 0.4838403
vt 0.1394628 0.4838403
vt 0.1394628 0.4990494
vt 0.1229339 0.4990494
vt 0.1229339 0.338403
vt 0.1394628 0.338403
vt 0.1394628 0.3536122
vt 0.1229339 0.3536122
vt 0.08780992 0.4192015
vt 0.1043388 0.4192015
vt 0.1043388 0.4344106
vt 0.08780992 0.4344106
vt 0.07024793 0.338403
vt 0.08677686 0.338403
vt 0.08677686 0.3536122
vt 0.07024793 0.3536122
vt 0.08780992 0.4353612
vt 0.1043388 0.4353612
vt 0.1043388 0.4505703
vt 0.08780992 0.4505703
vt 0.1053719 0.338403
vt 0.1219008 0.338403
vt 0.1219008 0.3536122
vt 0.1053719 0.3536122
vt 0.1229339 0.3707224
vt 0.1394628 0.3707224
vt 0.1394628 0.3859316
vt 0.1229339 0.3859316
vt 0.08780992 0.3707224
vt 0.1043388 0.3707224
vt 0.1043388 0.3859316
vt 0.08780992 0.3859316
vt 0.08780992 0.338403
vt 0.1043388 0.338403
vt 0.1043388 0.3536122
vt 0.08780992 0.3536122
vt 0.1053719 0.3707224
vt 0.1219008 0.3707224
vt 0.1219008 0.3859316
vt 0.1053719 0.3859316
vt 0.08780992 0.3545628
vt 0.1043388 0.3545628
vt 0.1043388 0.3697718
vt 0.08780992 0.3697718
vt 0.07024793 0.3707224
vt 0.08677686 0.3707224
vt 0.08677686 0.3859316
vt 0.07024793 0.3859316
vt 0.6673554 0.7908745
vt 0.6838843 0.7908745
vt 0.6838843 0.8060837
vt 0.6673554 0.8060837
vt 0.6146694 0.7908745
vt 0.6311983 0.7908745
vt 0.6311983 0.8060837
vt 0.6146694 0.8060837
vt 0.6497934 0.7908745
vt 0.6663223 0.7908745
vt 0.6663223 0.8060837
vt 0.6497934 0.8060837

# Normal
vn 0 0 -1

# Mesh description
g swamp_boss_mesh_0005

# Faces
f 1/1/1 2/2/1 3/3/1 4/4/1
f 5/5/1 6/6/1 7/7/1 8/8/1
f 9/1/1 10/2/1 11/3/1 12/4/1
f 13/1/1 14/2/1 15/3/1 16/4/1
f 17/9/1 18/10/1 19/11/1 20/12/1
f 21/13/1 22/14/1 23/15/1 24/16/1
f 25/17/1 26/18/1 27/19/1 28/20/1
f 29/1/1 30/2/1 31/3/1 32/4/1
f 33/1/1 34/2/1 35/3/1 36/4/1
f 37/21/1 38/22/1 39/23/1 40/24/1
f 41/1/1 42/2/1 43/3/1 44/4/1
f 45/1/1 46/2/1 47/3/1 48/4/1
f 49/5/1 50/6/1 51/7/1 52/8/1
f 53/25/1 54/26/1 55/27/1 56/28/1
f 57/29/1 58/30/1 59/31/1 60/32/1
f 61/1/1 62/2/1 63/3/1 64/4/1
f 65/1/1 66/2/1 67/3/1 68/4/1
f 69/33/1 70/34/1 71/35/1 72/36/1
f 73/13/1 74/14/1 75/15/1 76/16/1
f 77/1/1 78/2/1 79/3/1 80/4/1
f 81/1/1 82/2/1 83/3/1 84/4/1
f 85/21/1 86/22/1 87/23/1 88/24/1
f 89/37/1 90/38/1 91/39/1 92/40/1
f 93/1/1 94/2/1 95/3/1 96/4/1
f 97/1/1 98/2/1 99/3/1 100/4/1
f 101/29/1 102/30/1 103/31/1 104/32/1
f 105/1/1 106/2/1 107/3/1 108/4/1
f 109/1/1 110/2/1 111/3/1 112/4/1
f 113/41/1 114/42/1 115/43/1 116/44/1
f 117/1/1 118/2/1 119/3/1 120/4/1
f 121/1/1 122/2/1 123/3/1 124/4/1
f 125/45/1 126/46/1 127/47/1 128/48/1
f 129/1/1 130/2/1 131/3/1 132/4/1
f 133/1/1 134/2/1 135/3/1 136/4/1
f 137/25/1 138/26/1 139/27/1 140/28/1
f 141/49/1 142/50/1 143/51/1 144/52/1
f 145/1/1 146/2/1 147/3/1 148/4/1
f 149/1/1 150/2/1 151/3/1 152/4/1
f 153/13/1 154/14/1 155/15/1 156/16/1
f 157/1/1 158/2/1 159/3/1 160/4/1
f 161/1/1 162/2/1 163/3/1 164/4/1
f 165/5/1 166/6/1 167/7/1 168/8/1
f 169/21/1 170/22/1 171/23/1 172/24/1
f 173/5/1 174/6/1 175/7/1 176/8/1
f 177/1/1 178/2/1 179/3/1 180/4/1
f 181/1/1 182/2/1 183/3/1 184/4/1
f 185/29/1 186/30/1 187/31/1 188/32/1
f 189/53/1 190/54/1 191/55/1 192/56/1
f 193/1/1 194/2/1 195/3/1 196/4/1
f 197/1/1 198/2/1 199/3/1 200/4/1
f 201/5/1 202/6/1 203/7/1 204/8/1
f 205/13/1 206/14/1 207/15/1 208/16/1
f 209/57/1 210/58/1 211/59/1 212/60/1
f 213/1/1 214/2/1 215/3/1 216/4/1
f 217/1/1 218/2/1 219/3/1 220/4/1
f 221/57/1 222/58/1 223/59/1 224/60/1
f 225/21/1 226/22/1 227/23/1 228/24/1
f 229/61/1 230/62/1 231/63/1 232/64/1
f 233/1/1 234/2/1 235/3/1 236/4/1
f 237/1/1 238/2/1 239/3/1 240/4/1
f 241/65/1 242/66/1 243/67/1 244/68/1
f 245/69/1 246/70/1 247/71/1 248/72/1
f 249/29/1 250/30/1 251/31/1 252/32/1
f 253/73/1 254/74/1 255/75/1 256/76/1
f 257/1/1 258/2/1 259/3/1 260/4/1
f 261/1/1 262/2/1 263/3/1 264/4/1
f 265/65/1 266/66/1 267/67/1 268/68/1
f 269/77/1 270/78/1 271/79/1 272/80/1
f 273/81/1 274/82/1 275/83/1 276/84/1
f 277/73/1 278/74/1 279/75/1 280/76/1
f 281/1/1 282/2/1 283/3/1 284/4/1
f 285/1/1 286/2/1 287/3/1 288/4/1
f 289/85/1 290/86/1 291/87/1 292/88/1
f 293/89/1 294/90/1 295/91/1 296/92/1
f 297/89/1 298/90/1 299/91/1 300/92/1
f 301/93/1 302/94/1 303/95/1 304/96/1
f 305/89/1 306/90/1 307/91/1 308/92/1
f 309/89/1 310/90/1 311/91/1 312/92/1
f 313/89/1 314/90/1 315/91/1 316/92/1
f 317/97/1 318/98/1 319/99/1 320/100/1
f 321/89/1 322/90/1 323/91/1 324/92/1
f 325/101/1 326/102/1 327/103/1 328/104/1
f 329/89/1 330/90/1 331/91/1 332/92/1
f 333/89/1 334/90/1 335/91/1 336/92/1
f 337/89/1 338/90/1 339/91/1 340/92/1
f 341/89/1 342/90/1 343/91/1 344/92/1
f 345/105/1 346/106/1 347/107/1 348/108/1
f 349/1/1 350/2/1 351/3/1 352/4/1
f 353/109/1 354/110/1 355/111/1 356/112/1
f 357/113/1 358/114/1 359/115/1 360/116/1
f 361/113/1 362/114/1 363/115/1 364/116/1
f 365/113/1 366/114/1 367/115/1 368/116/1
f 369/113/1 370/114/1 371/115/1 372/116/1
f 373/113/1 374/114/1 375/115/1 376/116/1
f 377/113/1 378/114/1 379/115/1 380/116/1
f 381/113/1 382/114/1 383/115/1 384/116/1
f 385/113/1 386/114/1 387/115/1 388/116/1
f 389/113/1 390/114/1 391/115/1 392/116/1
f 393/113/1 394/114/1 395/115/1 396/116/1
f 397/113/1 398/114/1 399/115/1 400/116/1
f 401/113/1 402/114/1 403/115/1 404/116/1
f 405/113/1 406/114/1 407/115/1 408/116/1
f 409/113/1 410/114/1 411/115/1 412/116/1
f 413/113/1 414/114/1 415/115/1 416/116/1
f 417/117/1 418/118/1 419/119/1 420/120/1

