# Tiled2Unity generated file. Do not modify by hand.
# Wavefront file for 'swamp_boss_mesh_0003.obj'

# Vertices (Count = 144)
v -240 -304 0
v -256 -304 0
v -256 -288 0
v -240 -288 0
v -208 -304 0
v -224 -304 0
v -224 -288 0
v -208 -288 0
v -144 -304 0
v -160 -304 0
v -160 -288 0
v -144 -288 0
v -112 -304 0
v -128 -304 0
v -128 -288 0
v -112 -288 0
v -48 -304 0
v -64 -304 0
v -64 -288 0
v -48 -288 0
v -16 -304 0
v -32 -304 0
v -32 -288 0
v -16 -288 0
v -224 -288 0
v -240 -288 0
v -240 -272 0
v -224 -272 0
v -144 -288 0
v -160 -288 0
v -160 -272 0
v -144 -272 0
v -112 -288 0
v -128 -288 0
v -128 -272 0
v -112 -272 0
v -32 -288 0
v -48 -288 0
v -48 -272 0
v -32 -272 0
v -240 -272 0
v -256 -272 0
v -256 -256 0
v -240 -256 0
v -16 -272 0
v -32 -272 0
v -32 -256 0
v -16 -256 0
v -240 -208 0
v -256 -208 0
v -256 -192 0
v -240 -192 0
v -16 -208 0
v -32 -208 0
v -32 -192 0
v -16 -192 0
v -240 -192 0
v -256 -192 0
v -256 -176 0
v -240 -176 0
v -16 -192 0
v -32 -192 0
v -32 -176 0
v -16 -176 0
v -240 -176 0
v -256 -176 0
v -256 -160 0
v -240 -160 0
v -16 -176 0
v -32 -176 0
v -32 -160 0
v -16 -160 0
v -240 -160 0
v -256 -160 0
v -256 -144 0
v -240 -144 0
v -16 -160 0
v -32 -160 0
v -32 -144 0
v -16 -144 0
v -240 -112 0
v -256 -112 0
v -256 -96 0
v -240 -96 0
v -16 -112 0
v -32 -112 0
v -32 -96 0
v -16 -96 0
v -240 -96 0
v -256 -96 0
v -256 -80 0
v -240 -80 0
v -224 -96 0
v -240 -96 0
v -240 -80 0
v -224 -80 0
v -32 -96 0
v -48 -96 0
v -48 -80 0
v -32 -80 0
v -16 -96 0
v -32 -96 0
v -32 -80 0
v -16 -80 0
v -240 -80 0
v -256 -80 0
v -256 -64 0
v -240 -64 0
v -224 -80 0
v -240 -80 0
v -240 -64 0
v -224 -64 0
v -208 -80 0
v -224 -80 0
v -224 -64 0
v -208 -64 0
v -144 -80 0
v -160 -80 0
v -160 -64 0
v -144 -64 0
v -112 -80 0
v -128 -80 0
v -128 -64 0
v -112 -64 0
v -48 -80 0
v -64 -80 0
v -64 -64 0
v -48 -64 0
v -32 -80 0
v -48 -80 0
v -48 -64 0
v -32 -64 0
v -16 -80 0
v -32 -80 0
v -32 -64 0
v -16 -64 0
v -144 -64 0
v -160 -64 0
v -160 -48 0
v -144 -48 0
v -112 -64 0
v -128 -64 0
v -128 -48 0
v -112 -48 0

# Texture cooridinates (Count = 28)
vt 0.05165289 0.710076
vt 0.05165289 0.7252852
vt 0.03512397 0.7252852
vt 0.03512397 0.710076
vt 0.1745868 0.8222433
vt 0.1580579 0.8222433
vt 0.1580579 0.8070343
vt 0.1745868 0.8070343
vt 0.07024793 0.4676806
vt 0.08677686 0.4676806
vt 0.08677686 0.4828897
vt 0.07024793 0.4828897
vt 0.05268595 0.4676806
vt 0.06921487 0.4676806
vt 0.06921487 0.4828897
vt 0.05268595 0.4828897
vt 0.07024793 0.4838403
vt 0.08677686 0.4838403
vt 0.08677686 0.4990494
vt 0.07024793 0.4990494
vt 0.05268595 0.4838403
vt 0.06921487 0.4838403
vt 0.06921487 0.4990494
vt 0.05268595 0.4990494
vt 0.1053719 0.838403
vt 0.1053719 0.8231939
vt 0.1219008 0.8231939
vt 0.1219008 0.838403

# Normal
vn 0 0 -1

# Mesh description
g swamp_boss_mesh_0003

# Faces
f 1/1/1 2/2/1 3/3/1 4/4/1
f 5/5/1 6/6/1 7/7/1 8/8/1
f 9/9/1 10/10/1 11/11/1 12/12/1
f 13/13/1 14/14/1 15/15/1 16/16/1
f 17/6/1 18/7/1 19/8/1 20/5/1
f 21/2/1 22/3/1 23/4/1 24/1/1
f 25/5/1 26/6/1 27/7/1 28/8/1
f 29/17/1 30/18/1 31/19/1 32/20/1
f 33/21/1 34/22/1 35/23/1 36/24/1
f 37/6/1 38/7/1 39/8/1 40/5/1
f 41/5/1 42/6/1 43/7/1 44/8/1
f 45/6/1 46/7/1 47/8/1 48/5/1
f 49/13/1 50/14/1 51/15/1 52/16/1
f 53/13/1 54/14/1 55/15/1 56/16/1
f 57/21/1 58/22/1 59/23/1 60/24/1
f 61/21/1 62/22/1 63/23/1 64/24/1
f 65/9/1 66/10/1 67/11/1 68/12/1
f 69/9/1 70/10/1 71/11/1 72/12/1
f 73/17/1 74/18/1 75/19/1 76/20/1
f 77/17/1 78/18/1 79/19/1 80/20/1
f 81/8/1 82/5/1 83/6/1 84/7/1
f 85/7/1 86/8/1 87/5/1 88/6/1
f 89/25/1 90/26/1 91/27/1 92/28/1
f 93/8/1 94/5/1 95/6/1 96/7/1
f 97/7/1 98/8/1 99/5/1 100/6/1
f 101/28/1 102/25/1 103/26/1 104/27/1
f 105/4/1 106/1/1 107/2/1 108/3/1
f 109/25/1 110/26/1 111/27/1 112/28/1
f 113/8/1 114/5/1 115/6/1 116/7/1
f 117/13/1 118/14/1 119/15/1 120/16/1
f 121/9/1 122/10/1 123/11/1 124/12/1
f 125/7/1 126/8/1 127/5/1 128/6/1
f 129/28/1 130/25/1 131/26/1 132/27/1
f 133/3/1 134/4/1 135/1/1 136/2/1
f 137/21/1 138/22/1 139/23/1 140/24/1
f 141/17/1 142/18/1 143/19/1 144/20/1

