# Tiled2Unity generated file. Do not modify by hand.
# Wavefront file for 'volcano_boss_mesh_0002.obj'

# Vertices (Count = 236)
v -224 -288 0
v -240 -288 0
v -240 -272 0
v -224 -272 0
v -32 -288 0
v -48 -288 0
v -48 -272 0
v -32 -272 0
v -192 -256 0
v -208 -256 0
v -208 -240 0
v -192 -240 0
v -64 -256 0
v -80 -256 0
v -80 -240 0
v -64 -240 0
v -160 -224 0
v -176 -224 0
v -176 -208 0
v -160 -208 0
v -96 -224 0
v -112 -224 0
v -112 -208 0
v -96 -208 0
v -160 -160 0
v -176 -160 0
v -176 -144 0
v -160 -144 0
v -96 -160 0
v -112 -160 0
v -112 -144 0
v -96 -144 0
v -192 -128 0
v -208 -128 0
v -208 -112 0
v -192 -112 0
v -64 -128 0
v -80 -128 0
v -80 -112 0
v -64 -112 0
v -224 -96 0
v -240 -96 0
v -240 -80 0
v -224 -80 0
v -32 -96 0
v -48 -96 0
v -48 -80 0
v -32 -80 0
v -160 -80 0
v -176 -80 0
v -176 -64 0
v -160 -64 0
v -96 -80 0
v -112 -80 0
v -112 -64 0
v -96 -64 0
v -240 -64 0
v -256 -64 0
v -256 -48 0
v -240 -48 0
v -224 -64 0
v -240 -64 0
v -240 -48 0
v -224 -48 0
v -208 -64 0
v -224 -64 0
v -224 -48 0
v -208 -48 0
v -192 -64 0
v -208 -64 0
v -208 -48 0
v -192 -48 0
v -176 -64 0
v -192 -64 0
v -192 -48 0
v -176 -48 0
v -160 -64 0
v -176 -64 0
v -176 -48 0
v -160 -48 0
v -144 -64 0
v -160 -64 0
v -160 -48 0
v -144 -48 0
v -128 -64 0
v -144 -64 0
v -144 -48 0
v -128 -48 0
v -112 -64 0
v -128 -64 0
v -128 -48 0
v -112 -48 0
v -96 -64 0
v -112 -64 0
v -112 -48 0
v -96 -48 0
v -80 -64 0
v -96 -64 0
v -96 -48 0
v -80 -48 0
v -64 -64 0
v -80 -64 0
v -80 -48 0
v -64 -48 0
v -48 -64 0
v -64 -64 0
v -64 -48 0
v -48 -48 0
v -32 -64 0
v -48 -64 0
v -48 -48 0
v -32 -48 0
v -16 -64 0
v -32 -64 0
v -32 -48 0
v -16 -48 0
v -240 -48 0
v -256 -48 0
v -256 -32 0
v -240 -32 0
v -224 -48 0
v -240 -48 0
v -240 -32 0
v -224 -32 0
v -208 -48 0
v -224 -48 0
v -224 -32 0
v -208 -32 0
v -192 -48 0
v -208 -48 0
v -208 -32 0
v -192 -32 0
v -176 -48 0
v -192 -48 0
v -192 -32 0
v -176 -32 0
v -160 -48 0
v -176 -48 0
v -176 -32 0
v -160 -32 0
v -144 -48 0
v -160 -48 0
v -160 -32 0
v -144 -32 0
v -128 -48 0
v -144 -48 0
v -144 -32 0
v -128 -32 0
v -112 -48 0
v -128 -48 0
v -128 -32 0
v -112 -32 0
v -96 -48 0
v -112 -48 0
v -112 -32 0
v -96 -32 0
v -80 -48 0
v -96 -48 0
v -96 -32 0
v -80 -32 0
v -64 -48 0
v -80 -48 0
v -80 -32 0
v -64 -32 0
v -48 -48 0
v -64 -48 0
v -64 -32 0
v -48 -32 0
v -32 -48 0
v -48 -48 0
v -48 -32 0
v -32 -32 0
v -16 -48 0
v -32 -48 0
v -32 -32 0
v -16 -32 0
v -240 -32 0
v -256 -32 0
v -256 -16 0
v -240 -16 0
v -224 -32 0
v -240 -32 0
v -240 -16 0
v -224 -16 0
v -208 -32 0
v -224 -32 0
v -224 -16 0
v -208 -16 0
v -192 -32 0
v -208 -32 0
v -208 -16 0
v -192 -16 0
v -176 -32 0
v -192 -32 0
v -192 -16 0
v -176 -16 0
v -160 -32 0
v -176 -32 0
v -176 -16 0
v -160 -16 0
v -144 -32 0
v -160 -32 0
v -160 -16 0
v -144 -16 0
v -128 -32 0
v -144 -32 0
v -144 -16 0
v -128 -16 0
v -112 -32 0
v -128 -32 0
v -128 -16 0
v -112 -16 0
v -96 -32 0
v -112 -32 0
v -112 -16 0
v -96 -16 0
v -80 -32 0
v -96 -32 0
v -96 -16 0
v -80 -16 0
v -64 -32 0
v -80 -32 0
v -80 -16 0
v -64 -16 0
v -48 -32 0
v -64 -32 0
v -64 -16 0
v -48 -16 0
v -32 -32 0
v -48 -32 0
v -48 -16 0
v -32 -16 0
v -16 -32 0
v -32 -32 0
v -32 -16 0
v -16 -16 0

# Texture cooridinates (Count = 24)
vt 0.1043388 0.1929658
vt 0.1043388 0.2081749
vt 0.08780992 0.2081749
vt 0.08780992 0.1929658
vt 0.1219008 0.1929658
vt 0.1219008 0.2081749
vt 0.1053719 0.2081749
vt 0.1053719 0.1929658
vt 0.5444215 0.7576046
vt 0.5444215 0.7423954
vt 0.5609504 0.7423954
vt 0.5609504 0.7576046
vt 0.5619835 0.7423954
vt 0.5785124 0.7423954
vt 0.5785124 0.7576046
vt 0.5619835 0.7576046
vt 0.5795454 0.6777567
vt 0.5960744 0.6777567
vt 0.5960744 0.6929657
vt 0.5795454 0.6929657
vt 0.5795454 0.661597
vt 0.5960744 0.661597
vt 0.5960744 0.6768061
vt 0.5795454 0.6768061

# Normal
vn 0 0 -1

# Mesh description
g volcano_boss_mesh_0002

# Faces
f 1/1/1 2/2/1 3/3/1 4/4/1
f 5/2/1 6/3/1 7/4/1 8/1/1
f 9/1/1 10/2/1 11/3/1 12/4/1
f 13/2/1 14/3/1 15/4/1 16/1/1
f 17/1/1 18/2/1 19/3/1 20/4/1
f 21/2/1 22/3/1 23/4/1 24/1/1
f 25/4/1 26/1/1 27/2/1 28/3/1
f 29/3/1 30/4/1 31/1/1 32/2/1
f 33/4/1 34/1/1 35/2/1 36/3/1
f 37/3/1 38/4/1 39/1/1 40/2/1
f 41/4/1 42/1/1 43/2/1 44/3/1
f 45/3/1 46/4/1 47/1/1 48/2/1
f 49/5/1 50/6/1 51/7/1 52/8/1
f 53/8/1 54/5/1 55/6/1 56/7/1
f 57/9/1 58/10/1 59/11/1 60/12/1
f 61/9/1 62/10/1 63/11/1 64/12/1
f 65/9/1 66/10/1 67/11/1 68/12/1
f 69/9/1 70/10/1 71/11/1 72/12/1
f 73/9/1 74/10/1 75/11/1 76/12/1
f 77/9/1 78/10/1 79/11/1 80/12/1
f 81/9/1 82/10/1 83/11/1 84/12/1
f 85/9/1 86/10/1 87/11/1 88/12/1
f 89/9/1 90/10/1 91/11/1 92/12/1
f 93/9/1 94/10/1 95/11/1 96/12/1
f 97/9/1 98/10/1 99/11/1 100/12/1
f 101/9/1 102/10/1 103/11/1 104/12/1
f 105/9/1 106/10/1 107/11/1 108/12/1
f 109/9/1 110/10/1 111/11/1 112/12/1
f 113/9/1 114/10/1 115/11/1 116/12/1
f 117/13/1 118/14/1 119/15/1 120/16/1
f 121/13/1 122/14/1 123/15/1 124/16/1
f 125/13/1 126/14/1 127/15/1 128/16/1
f 129/13/1 130/14/1 131/15/1 132/16/1
f 133/13/1 134/14/1 135/15/1 136/16/1
f 137/13/1 138/14/1 139/15/1 140/16/1
f 141/13/1 142/14/1 143/15/1 144/16/1
f 145/13/1 146/14/1 147/15/1 148/16/1
f 149/13/1 150/14/1 151/15/1 152/16/1
f 153/13/1 154/14/1 155/15/1 156/16/1
f 157/13/1 158/14/1 159/15/1 160/16/1
f 161/17/1 162/18/1 163/19/1 164/20/1
f 165/13/1 166/14/1 167/15/1 168/16/1
f 169/13/1 170/14/1 171/15/1 172/16/1
f 173/13/1 174/14/1 175/15/1 176/16/1
f 177/13/1 178/14/1 179/15/1 180/16/1
f 181/21/1 182/22/1 183/23/1 184/24/1
f 185/13/1 186/14/1 187/15/1 188/16/1
f 189/13/1 190/14/1 191/15/1 192/16/1
f 193/13/1 194/14/1 195/15/1 196/16/1
f 197/13/1 198/14/1 199/15/1 200/16/1
f 201/13/1 202/14/1 203/15/1 204/16/1
f 205/13/1 206/14/1 207/15/1 208/16/1
f 209/13/1 210/14/1 211/15/1 212/16/1
f 213/13/1 214/14/1 215/15/1 216/16/1
f 217/13/1 218/14/1 219/15/1 220/16/1
f 221/13/1 222/14/1 223/15/1 224/16/1
f 225/13/1 226/14/1 227/15/1 228/16/1
f 229/13/1 230/14/1 231/15/1 232/16/1
f 233/13/1 234/14/1 235/15/1 236/16/1

