# Tiled2Unity generated file. Do not modify by hand.
# Wavefront file for 'volcano_boss_mesh_0005.obj'

# Vertices (Count = 328)
v -256 -320 0
v -272 -320 0
v -272 -304 0
v -256 -304 0
v 0 -320 0
v -16 -320 0
v -16 -304 0
v 0 -304 0
v -256 -304 0
v -272 -304 0
v -272 -288 0
v -256 -288 0
v 0 -304 0
v -16 -304 0
v -16 -288 0
v 0 -288 0
v -256 -288 0
v -272 -288 0
v -272 -272 0
v -256 -272 0
v 0 -288 0
v -16 -288 0
v -16 -272 0
v 0 -272 0
v -256 -272 0
v -272 -272 0
v -272 -256 0
v -256 -256 0
v 0 -272 0
v -16 -272 0
v -16 -256 0
v 0 -256 0
v -256 -256 0
v -272 -256 0
v -272 -240 0
v -256 -240 0
v 0 -256 0
v -16 -256 0
v -16 -240 0
v 0 -240 0
v -256 -240 0
v -272 -240 0
v -272 -224 0
v -256 -224 0
v 0 -240 0
v -16 -240 0
v -16 -224 0
v 0 -224 0
v -256 -224 0
v -272 -224 0
v -272 -208 0
v -256 -208 0
v 0 -224 0
v -16 -224 0
v -16 -208 0
v 0 -208 0
v -256 -208 0
v -272 -208 0
v -272 -192 0
v -256 -192 0
v 0 -208 0
v -16 -208 0
v -16 -192 0
v 0 -192 0
v -256 -192 0
v -272 -192 0
v -272 -176 0
v -256 -176 0
v 0 -192 0
v -16 -192 0
v -16 -176 0
v 0 -176 0
v -256 -176 0
v -272 -176 0
v -272 -160 0
v -256 -160 0
v 0 -176 0
v -16 -176 0
v -16 -160 0
v 0 -160 0
v -256 -160 0
v -272 -160 0
v -272 -144 0
v -256 -144 0
v 0 -160 0
v -16 -160 0
v -16 -144 0
v 0 -144 0
v -256 -144 0
v -272 -144 0
v -272 -128 0
v -256 -128 0
v 0 -144 0
v -16 -144 0
v -16 -128 0
v 0 -128 0
v -256 -128 0
v -272 -128 0
v -272 -112 0
v -256 -112 0
v 0 -128 0
v -16 -128 0
v -16 -112 0
v 0 -112 0
v -256 -112 0
v -272 -112 0
v -272 -96 0
v -256 -96 0
v 0 -112 0
v -16 -112 0
v -16 -96 0
v 0 -96 0
v -256 -96 0
v -272 -96 0
v -272 -80 0
v -256 -80 0
v 0 -96 0
v -16 -96 0
v -16 -80 0
v 0 -80 0
v -256 -80 0
v -272 -80 0
v -272 -64 0
v -256 -64 0
v -240 -80 0
v -256 -80 0
v -256 -64 0
v -240 -64 0
v -16 -80 0
v -32 -80 0
v -32 -64 0
v -16 -64 0
v 0 -80 0
v -16 -80 0
v -16 -64 0
v 0 -64 0
v -256 -64 0
v -272 -64 0
v -272 -48 0
v -256 -48 0
v -240 -64 0
v -256 -64 0
v -256 -48 0
v -240 -48 0
v -144 -64 0
v -160 -64 0
v -160 -48 0
v -144 -48 0
v -128 -64 0
v -144 -64 0
v -144 -48 0
v -128 -48 0
v -112 -64 0
v -128 -64 0
v -128 -48 0
v -112 -48 0
v -16 -64 0
v -32 -64 0
v -32 -48 0
v -16 -48 0
v 0 -64 0
v -16 -64 0
v -16 -48 0
v 0 -48 0
v -256 -48 0
v -272 -48 0
v -272 -32 0
v -256 -32 0
v -240 -48 0
v -256 -48 0
v -256 -32 0
v -240 -32 0
v -144 -48 0
v -160 -48 0
v -160 -32 0
v -144 -32 0
v -128 -48 0
v -144 -48 0
v -144 -32 0
v -128 -32 0
v -112 -48 0
v -128 -48 0
v -128 -32 0
v -112 -32 0
v -16 -48 0
v -32 -48 0
v -32 -32 0
v -16 -32 0
v 0 -48 0
v -16 -48 0
v -16 -32 0
v 0 -32 0
v -256 -32 0
v -272 -32 0
v -272 -16 0
v -256 -16 0
v -240 -32 0
v -256 -32 0
v -256 -16 0
v -240 -16 0
v -224 -32 0
v -240 -32 0
v -240 -16 0
v -224 -16 0
v -208 -32 0
v -224 -32 0
v -224 -16 0
v -208 -16 0
v -192 -32 0
v -208 -32 0
v -208 -16 0
v -192 -16 0
v -176 -32 0
v -192 -32 0
v -192 -16 0
v -176 -16 0
v -160 -32 0
v -176 -32 0
v -176 -16 0
v -160 -16 0
v -144 -32 0
v -160 -32 0
v -160 -16 0
v -144 -16 0
v -128 -32 0
v -144 -32 0
v -144 -16 0
v -128 -16 0
v -112 -32 0
v -128 -32 0
v -128 -16 0
v -112 -16 0
v -96 -32 0
v -112 -32 0
v -112 -16 0
v -96 -16 0
v -80 -32 0
v -96 -32 0
v -96 -16 0
v -80 -16 0
v -64 -32 0
v -80 -32 0
v -80 -16 0
v -64 -16 0
v -48 -32 0
v -64 -32 0
v -64 -16 0
v -48 -16 0
v -32 -32 0
v -48 -32 0
v -48 -16 0
v -32 -16 0
v -16 -32 0
v -32 -32 0
v -32 -16 0
v -16 -16 0
v 0 -32 0
v -16 -32 0
v -16 -16 0
v 0 -16 0
v -256 -16 0
v -272 -16 0
v -272 0 0
v -256 0 0
v -240 -16 0
v -256 -16 0
v -256 0 0
v -240 0 0
v -224 -16 0
v -240 -16 0
v -240 0 0
v -224 0 0
v -208 -16 0
v -224 -16 0
v -224 0 0
v -208 0 0
v -192 -16 0
v -208 -16 0
v -208 0 0
v -192 0 0
v -176 -16 0
v -192 -16 0
v -192 0 0
v -176 0 0
v -160 -16 0
v -176 -16 0
v -176 0 0
v -160 0 0
v -144 -16 0
v -160 -16 0
v -160 0 0
v -144 0 0
v -128 -16 0
v -144 -16 0
v -144 0 0
v -128 0 0
v -112 -16 0
v -128 -16 0
v -128 0 0
v -112 0 0
v -96 -16 0
v -112 -16 0
v -112 0 0
v -96 0 0
v -80 -16 0
v -96 -16 0
v -96 0 0
v -80 0 0
v -64 -16 0
v -80 -16 0
v -80 0 0
v -64 0 0
v -48 -16 0
v -64 -16 0
v -64 0 0
v -48 0 0
v -32 -16 0
v -48 -16 0
v -48 0 0
v -32 0 0
v -16 -16 0
v -32 -16 0
v -32 0 0
v -16 0 0
v 0 -16 0
v -16 -16 0
v -16 0 0
v 0 0 0

# Texture cooridinates (Count = 52)
vt 0.5092975 0.7747148
vt 0.5258265 0.7747148
vt 0.5258265 0.789924
vt 0.5092975 0.789924
vt 0.2634298 0.2414449
vt 0.2799587 0.2414449
vt 0.2799587 0.256654
vt 0.2634298 0.256654
vt 0.2458678 0.2252852
vt 0.2623967 0.2252852
vt 0.2623967 0.2404943
vt 0.2458678 0.2404943
vt 0.5785124 0.710076
vt 0.5785124 0.7252852
vt 0.5619835 0.7252852
vt 0.5619835 0.710076
vt 0.03512397 0.1606464
vt 0.05165289 0.1606464
vt 0.05165289 0.1758555
vt 0.03512397 0.1758555
vt 0.01756198 0.1606464
vt 0.03409091 0.1606464
vt 0.03409091 0.1758555
vt 0.01756198 0.1758555
vt 0 0.1606464
vt 0.01652892 0.1606464
vt 0.01652892 0.1758555
vt 0 0.1758555
vt 0.5444215 0.7908745
vt 0.5609504 0.7908745
vt 0.5609504 0.8060837
vt 0.5444215 0.8060837
vt 0.4917355 0.7908745
vt 0.5082645 0.7908745
vt 0.5082645 0.8060837
vt 0.4917355 0.8060837
vt 0.03512397 0.1768061
vt 0.05165289 0.1768061
vt 0.05165289 0.1920152
vt 0.03512397 0.1920152
vt 0.01756198 0.1768061
vt 0.03409091 0.1768061
vt 0.03409091 0.1920152
vt 0.01756198 0.1920152
vt 0 0.1768061
vt 0.01652892 0.1768061
vt 0.01652892 0.1920152
vt 0 0.1920152
vt 0.5268595 0.7908745
vt 0.5433884 0.7908745
vt 0.5433884 0.8060837
vt 0.5268595 0.8060837

# Normal
vn 0 0 -1

# Mesh description
g volcano_boss_mesh_0005

# Faces
f 1/1/1 2/2/1 3/3/1 4/4/1
f 5/1/1 6/2/1 7/3/1 8/4/1
f 9/1/1 10/2/1 11/3/1 12/4/1
f 13/1/1 14/2/1 15/3/1 16/4/1
f 17/1/1 18/2/1 19/3/1 20/4/1
f 21/1/1 22/2/1 23/3/1 24/4/1
f 25/1/1 26/2/1 27/3/1 28/4/1
f 29/1/1 30/2/1 31/3/1 32/4/1
f 33/1/1 34/2/1 35/3/1 36/4/1
f 37/1/1 38/2/1 39/3/1 40/4/1
f 41/1/1 42/2/1 43/3/1 44/4/1
f 45/1/1 46/2/1 47/3/1 48/4/1
f 49/1/1 50/2/1 51/3/1 52/4/1
f 53/1/1 54/2/1 55/3/1 56/4/1
f 57/1/1 58/2/1 59/3/1 60/4/1
f 61/1/1 62/2/1 63/3/1 64/4/1
f 65/1/1 66/2/1 67/3/1 68/4/1
f 69/1/1 70/2/1 71/3/1 72/4/1
f 73/1/1 74/2/1 75/3/1 76/4/1
f 77/1/1 78/2/1 79/3/1 80/4/1
f 81/1/1 82/2/1 83/3/1 84/4/1
f 85/1/1 86/2/1 87/3/1 88/4/1
f 89/1/1 90/2/1 91/3/1 92/4/1
f 93/1/1 94/2/1 95/3/1 96/4/1
f 97/1/1 98/2/1 99/3/1 100/4/1
f 101/1/1 102/2/1 103/3/1 104/4/1
f 105/1/1 106/2/1 107/3/1 108/4/1
f 109/1/1 110/2/1 111/3/1 112/4/1
f 113/1/1 114/2/1 115/3/1 116/4/1
f 117/1/1 118/2/1 119/3/1 120/4/1
f 121/1/1 122/2/1 123/3/1 124/4/1
f 125/5/1 126/6/1 127/7/1 128/8/1
f 129/9/1 130/10/1 131/11/1 132/12/1
f 133/1/1 134/2/1 135/3/1 136/4/1
f 137/1/1 138/2/1 139/3/1 140/4/1
f 141/13/1 142/14/1 143/15/1 144/16/1
f 145/17/1 146/18/1 147/19/1 148/20/1
f 149/21/1 150/22/1 151/23/1 152/24/1
f 153/25/1 154/26/1 155/27/1 156/28/1
f 157/15/1 158/16/1 159/13/1 160/14/1
f 161/1/1 162/2/1 163/3/1 164/4/1
f 165/1/1 166/2/1 167/3/1 168/4/1
f 169/13/1 170/14/1 171/15/1 172/16/1
f 173/17/1 174/18/1 175/19/1 176/20/1
f 177/21/1 178/22/1 179/23/1 180/24/1
f 181/25/1 182/26/1 183/27/1 184/28/1
f 185/15/1 186/16/1 187/13/1 188/14/1
f 189/1/1 190/2/1 191/3/1 192/4/1
f 193/1/1 194/2/1 195/3/1 196/4/1
f 197/13/1 198/14/1 199/15/1 200/16/1
f 201/16/1 202/13/1 203/14/1 204/15/1
f 205/16/1 206/13/1 207/14/1 208/15/1
f 209/16/1 210/13/1 211/14/1 212/15/1
f 213/16/1 214/13/1 215/14/1 216/15/1
f 217/16/1 218/13/1 219/14/1 220/15/1
f 221/17/1 222/18/1 223/19/1 224/20/1
f 225/21/1 226/22/1 227/23/1 228/24/1
f 229/25/1 230/26/1 231/27/1 232/28/1
f 233/16/1 234/13/1 235/14/1 236/15/1
f 237/16/1 238/13/1 239/14/1 240/15/1
f 241/16/1 242/13/1 243/14/1 244/15/1
f 245/16/1 246/13/1 247/14/1 248/15/1
f 249/16/1 250/13/1 251/14/1 252/15/1
f 253/15/1 254/16/1 255/13/1 256/14/1
f 257/1/1 258/2/1 259/3/1 260/4/1
f 261/29/1 262/30/1 263/31/1 264/32/1
f 265/33/1 266/34/1 267/35/1 268/36/1
f 269/33/1 270/34/1 271/35/1 272/36/1
f 273/33/1 274/34/1 275/35/1 276/36/1
f 277/33/1 278/34/1 279/35/1 280/36/1
f 281/33/1 282/34/1 283/35/1 284/36/1
f 285/33/1 286/34/1 287/35/1 288/36/1
f 289/37/1 290/38/1 291/39/1 292/40/1
f 293/41/1 294/42/1 295/43/1 296/44/1
f 297/45/1 298/46/1 299/47/1 300/48/1
f 301/33/1 302/34/1 303/35/1 304/36/1
f 305/33/1 306/34/1 307/35/1 308/36/1
f 309/33/1 310/34/1 311/35/1 312/36/1
f 313/33/1 314/34/1 315/35/1 316/36/1
f 317/33/1 318/34/1 319/35/1 320/36/1
f 321/33/1 322/34/1 323/35/1 324/36/1
f 325/49/1 326/50/1 327/51/1 328/52/1

