# Tiled2Unity generated file. Do not modify by hand.
# Wavefront file for 'volcano_boss_mesh_0003.obj'

# Vertices (Count = 40)
v -240 -64 0
v -256 -64 0
v -256 -48 0
v -240 -48 0
v -16 -64 0
v -32 -64 0
v -32 -48 0
v -16 -48 0
v -240 -48 0
v -256 -48 0
v -256 -32 0
v -240 -32 0
v -16 -48 0
v -32 -48 0
v -32 -32 0
v -16 -32 0
v -240 -32 0
v -256 -32 0
v -256 -16 0
v -240 -16 0
v -160 -32 0
v -176 -32 0
v -176 -16 0
v -160 -16 0
v -144 -32 0
v -160 -32 0
v -160 -16 0
v -144 -16 0
v -128 -32 0
v -144 -32 0
v -144 -16 0
v -128 -16 0
v -112 -32 0
v -128 -32 0
v -128 -16 0
v -112 -16 0
v -16 -32 0
v -32 -32 0
v -32 -16 0
v -16 -16 0

# Texture cooridinates (Count = 16)
vt 0.4917355 0.661597
vt 0.5082645 0.661597
vt 0.5082645 0.6768061
vt 0.4917355 0.6768061
vt 0.4917355 0.6777567
vt 0.5082645 0.6777567
vt 0.5082645 0.6929657
vt 0.4917355 0.6929657
vt 0.4741735 0.661597
vt 0.4907025 0.661597
vt 0.4907025 0.6768061
vt 0.4741735 0.6768061
vt 0.5619835 0.710076
vt 0.5785124 0.710076
vt 0.5785124 0.7252852
vt 0.5619835 0.7252852

# Normal
vn 0 0 -1

# Mesh description
g volcano_boss_mesh_0003

# Faces
f 1/1/1 2/2/1 3/3/1 4/4/1
f 5/1/1 6/2/1 7/3/1 8/4/1
f 9/5/1 10/6/1 11/7/1 12/8/1
f 13/7/1 14/8/1 15/5/1 16/6/1
f 17/9/1 18/10/1 19/11/1 20/12/1
f 21/13/1 22/14/1 23/15/1 24/16/1
f 25/13/1 26/14/1 27/15/1 28/16/1
f 29/13/1 30/14/1 31/15/1 32/16/1
f 33/13/1 34/14/1 35/15/1 36/16/1
f 37/9/1 38/10/1 39/11/1 40/12/1

