# Tiled2Unity generated file. Do not modify by hand.
# Wavefront file for 'villager_house_mesh_0002.obj'

# Vertices (Count = 48)
v -32 -48 0
v -48 -48 0
v -48 -32 0
v -32 -32 0
v -16 -48 0
v -32 -48 0
v -32 -32 0
v -16 -32 0
v 0 -48 0
v -16 -48 0
v -16 -32 0
v 0 -32 0
v -32 -64 0
v -48 -64 0
v -48 -48 0
v -32 -48 0
v -16 -64 0
v -32 -64 0
v -32 -48 0
v -16 -48 0
v 0 -64 0
v -16 -64 0
v -16 -48 0
v 0 -48 0
v -32 -80 0
v -48 -80 0
v -48 -64 0
v -32 -64 0
v -16 -80 0
v -32 -80 0
v -32 -64 0
v -16 -64 0
v 0 -80 0
v -16 -80 0
v -16 -64 0
v 0 -64 0
v -80 -112 0
v -96 -112 0
v -96 -96 0
v -80 -96 0
v -64 -112 0
v -80 -112 0
v -80 -96 0
v -64 -96 0
v -48 -112 0
v -64 -112 0
v -64 -96 0
v -48 -96 0

# Texture cooridinates (Count = 48)
vt 0.2107438 0.6777567
vt 0.2272727 0.6777567
vt 0.2272727 0.6929657
vt 0.2107438 0.6929657
vt 0.1931818 0.6777567
vt 0.2097107 0.6777567
vt 0.2097107 0.6929657
vt 0.1931818 0.6929657
vt 0.1756198 0.6777567
vt 0.1921488 0.6777567
vt 0.1921488 0.6929657
vt 0.1756198 0.6929657
vt 0.2107438 0.661597
vt 0.2272727 0.661597
vt 0.2272727 0.6768061
vt 0.2107438 0.6768061
vt 0.1931818 0.661597
vt 0.2097107 0.661597
vt 0.2097107 0.6768061
vt 0.1931818 0.6768061
vt 0.1756198 0.661597
vt 0.1921488 0.661597
vt 0.1921488 0.6768061
vt 0.1756198 0.6768061
vt 0.2107438 0.6454372
vt 0.2272727 0.6454372
vt 0.2272727 0.6606464
vt 0.2107438 0.6606464
vt 0.1931818 0.6454372
vt 0.2097107 0.6454372
vt 0.2097107 0.6606464
vt 0.1931818 0.6606464
vt 0.1756198 0.6454372
vt 0.1921488 0.6454372
vt 0.1921488 0.6606464
vt 0.1756198 0.6606464
vt 0.8254132 0.2414449
vt 0.8419421 0.2414449
vt 0.8419421 0.256654
vt 0.8254132 0.256654
vt 0.8078513 0.2414449
vt 0.8243802 0.2414449
vt 0.8243802 0.256654
vt 0.8078513 0.256654
vt 0.7902893 0.2414449
vt 0.8068182 0.2414449
vt 0.8068182 0.256654
vt 0.7902893 0.256654

# Normal
vn 0 0 -1

# Mesh description
g villager_house_mesh_0002

# Faces
f 1/1/1 2/2/1 3/3/1 4/4/1
f 5/5/1 6/6/1 7/7/1 8/8/1
f 9/9/1 10/10/1 11/11/1 12/12/1
f 13/13/1 14/14/1 15/15/1 16/16/1
f 17/17/1 18/18/1 19/19/1 20/20/1
f 21/21/1 22/22/1 23/23/1 24/24/1
f 25/25/1 26/26/1 27/27/1 28/28/1
f 29/29/1 30/30/1 31/31/1 32/32/1
f 33/33/1 34/34/1 35/35/1 36/36/1
f 37/37/1 38/38/1 39/39/1 40/40/1
f 41/41/1 42/42/1 43/43/1 44/44/1
f 45/45/1 46/46/1 47/47/1 48/48/1

