# Tiled2Unity generated file. Do not modify by hand.
# Wavefront file for 'shop_mesh_0002.obj'

# Vertices (Count = 592)
v -368 -128 0
v -384 -128 0
v -384 -112 0
v -368 -112 0
v -352 -128 0
v -368 -128 0
v -368 -112 0
v -352 -112 0
v -336 -128 0
v -352 -128 0
v -352 -112 0
v -336 -112 0
v -320 -128 0
v -336 -128 0
v -336 -112 0
v -320 -112 0
v -304 -128 0
v -320 -128 0
v -320 -112 0
v -304 -112 0
v -288 -128 0
v -304 -128 0
v -304 -112 0
v -288 -112 0
v -272 -128 0
v -288 -128 0
v -288 -112 0
v -272 -112 0
v -256 -128 0
v -272 -128 0
v -272 -112 0
v -256 -112 0
v -368 -144 0
v -384 -144 0
v -384 -128 0
v -368 -128 0
v -352 -144 0
v -368 -144 0
v -368 -128 0
v -352 -128 0
v -336 -144 0
v -352 -144 0
v -352 -128 0
v -336 -128 0
v -320 -144 0
v -336 -144 0
v -336 -128 0
v -320 -128 0
v -304 -144 0
v -320 -144 0
v -320 -128 0
v -304 -128 0
v -288 -144 0
v -304 -144 0
v -304 -128 0
v -288 -128 0
v -272 -144 0
v -288 -144 0
v -288 -128 0
v -272 -128 0
v -256 -144 0
v -272 -144 0
v -272 -128 0
v -256 -128 0
v -368 -160 0
v -384 -160 0
v -384 -144 0
v -368 -144 0
v -352 -160 0
v -368 -160 0
v -368 -144 0
v -352 -144 0
v -336 -160 0
v -352 -160 0
v -352 -144 0
v -336 -144 0
v -320 -160 0
v -336 -160 0
v -336 -144 0
v -320 -144 0
v -304 -160 0
v -320 -160 0
v -320 -144 0
v -304 -144 0
v -288 -160 0
v -304 -160 0
v -304 -144 0
v -288 -144 0
v -272 -160 0
v -288 -160 0
v -288 -144 0
v -272 -144 0
v -256 -160 0
v -272 -160 0
v -272 -144 0
v -256 -144 0
v -560 -176 0
v -576 -176 0
v -576 -160 0
v -560 -160 0
v -544 -176 0
v -560 -176 0
v -560 -160 0
v -544 -160 0
v -528 -176 0
v -544 -176 0
v -544 -160 0
v -528 -160 0
v -512 -176 0
v -528 -176 0
v -528 -160 0
v -512 -160 0
v -496 -176 0
v -512 -176 0
v -512 -160 0
v -496 -160 0
v -480 -176 0
v -496 -176 0
v -496 -160 0
v -480 -160 0
v -464 -176 0
v -480 -176 0
v -480 -160 0
v -464 -160 0
v -448 -176 0
v -464 -176 0
v -464 -160 0
v -448 -160 0
v -432 -176 0
v -448 -176 0
v -448 -160 0
v -432 -160 0
v -368 -176 0
v -384 -176 0
v -384 -160 0
v -368 -160 0
v -352 -176 0
v -368 -176 0
v -368 -160 0
v -352 -160 0
v -336 -176 0
v -352 -176 0
v -352 -160 0
v -336 -160 0
v -320 -176 0
v -336 -176 0
v -336 -160 0
v -320 -160 0
v -304 -176 0
v -320 -176 0
v -320 -160 0
v -304 -160 0
v -288 -176 0
v -304 -176 0
v -304 -160 0
v -288 -160 0
v -272 -176 0
v -288 -176 0
v -288 -160 0
v -272 -160 0
v -256 -176 0
v -272 -176 0
v -272 -160 0
v -256 -160 0
v -192 -176 0
v -208 -176 0
v -208 -160 0
v -192 -160 0
v -176 -176 0
v -192 -176 0
v -192 -160 0
v -176 -160 0
v -160 -176 0
v -176 -176 0
v -176 -160 0
v -160 -160 0
v -144 -176 0
v -160 -176 0
v -160 -160 0
v -144 -160 0
v -128 -176 0
v -144 -176 0
v -144 -160 0
v -128 -160 0
v -112 -176 0
v -128 -176 0
v -128 -160 0
v -112 -160 0
v -96 -176 0
v -112 -176 0
v -112 -160 0
v -96 -160 0
v -80 -176 0
v -96 -176 0
v -96 -160 0
v -80 -160 0
v -64 -176 0
v -80 -176 0
v -80 -160 0
v -64 -160 0
v -560 -192 0
v -576 -192 0
v -576 -176 0
v -560 -176 0
v -544 -192 0
v -560 -192 0
v -560 -176 0
v -544 -176 0
v -528 -192 0
v -544 -192 0
v -544 -176 0
v -528 -176 0
v -512 -192 0
v -528 -192 0
v -528 -176 0
v -512 -176 0
v -496 -192 0
v -512 -192 0
v -512 -176 0
v -496 -176 0
v -480 -192 0
v -496 -192 0
v -496 -176 0
v -480 -176 0
v -464 -192 0
v -480 -192 0
v -480 -176 0
v -464 -176 0
v -448 -192 0
v -464 -192 0
v -464 -176 0
v -448 -176 0
v -432 -192 0
v -448 -192 0
v -448 -176 0
v -432 -176 0
v -368 -192 0
v -384 -192 0
v -384 -176 0
v -368 -176 0
v -352 -192 0
v -368 -192 0
v -368 -176 0
v -352 -176 0
v -336 -192 0
v -352 -192 0
v -352 -176 0
v -336 -176 0
v -320 -192 0
v -336 -192 0
v -336 -176 0
v -320 -176 0
v -304 -192 0
v -320 -192 0
v -320 -176 0
v -304 -176 0
v -288 -192 0
v -304 -192 0
v -304 -176 0
v -288 -176 0
v -272 -192 0
v -288 -192 0
v -288 -176 0
v -272 -176 0
v -256 -192 0
v -272 -192 0
v -272 -176 0
v -256 -176 0
v -192 -192 0
v -208 -192 0
v -208 -176 0
v -192 -176 0
v -176 -192 0
v -192 -192 0
v -192 -176 0
v -176 -176 0
v -160 -192 0
v -176 -192 0
v -176 -176 0
v -160 -176 0
v -144 -192 0
v -160 -192 0
v -160 -176 0
v -144 -176 0
v -128 -192 0
v -144 -192 0
v -144 -176 0
v -128 -176 0
v -112 -192 0
v -128 -192 0
v -128 -176 0
v -112 -176 0
v -96 -192 0
v -112 -192 0
v -112 -176 0
v -96 -176 0
v -80 -192 0
v -96 -192 0
v -96 -176 0
v -80 -176 0
v -64 -192 0
v -80 -192 0
v -80 -176 0
v -64 -176 0
v -560 -208 0
v -576 -208 0
v -576 -192 0
v -560 -192 0
v -544 -208 0
v -560 -208 0
v -560 -192 0
v -544 -192 0
v -528 -208 0
v -544 -208 0
v -544 -192 0
v -528 -192 0
v -512 -208 0
v -528 -208 0
v -528 -192 0
v -512 -192 0
v -496 -208 0
v -512 -208 0
v -512 -192 0
v -496 -192 0
v -480 -208 0
v -496 -208 0
v -496 -192 0
v -480 -192 0
v -464 -208 0
v -480 -208 0
v -480 -192 0
v -464 -192 0
v -448 -208 0
v -464 -208 0
v -464 -192 0
v -448 -192 0
v -432 -208 0
v -448 -208 0
v -448 -192 0
v -432 -192 0
v -192 -208 0
v -208 -208 0
v -208 -192 0
v -192 -192 0
v -176 -208 0
v -192 -208 0
v -192 -192 0
v -176 -192 0
v -160 -208 0
v -176 -208 0
v -176 -192 0
v -160 -192 0
v -144 -208 0
v -160 -208 0
v -160 -192 0
v -144 -192 0
v -128 -208 0
v -144 -208 0
v -144 -192 0
v -128 -192 0
v -112 -208 0
v -128 -208 0
v -128 -192 0
v -112 -192 0
v -96 -208 0
v -112 -208 0
v -112 -192 0
v -96 -192 0
v -80 -208 0
v -96 -208 0
v -96 -192 0
v -80 -192 0
v -64 -208 0
v -80 -208 0
v -80 -192 0
v -64 -192 0
v -560 -224 0
v -576 -224 0
v -576 -208 0
v -560 -208 0
v -544 -224 0
v -560 -224 0
v -560 -208 0
v -544 -208 0
v -528 -224 0
v -544 -224 0
v -544 -208 0
v -528 -208 0
v -512 -224 0
v -528 -224 0
v -528 -208 0
v -512 -208 0
v -496 -224 0
v -512 -224 0
v -512 -208 0
v -496 -208 0
v -480 -224 0
v -496 -224 0
v -496 -208 0
v -480 -208 0
v -464 -224 0
v -480 -224 0
v -480 -208 0
v -464 -208 0
v -448 -224 0
v -464 -224 0
v -464 -208 0
v -448 -208 0
v -432 -224 0
v -448 -224 0
v -448 -208 0
v -432 -208 0
v -192 -224 0
v -208 -224 0
v -208 -208 0
v -192 -208 0
v -176 -224 0
v -192 -224 0
v -192 -208 0
v -176 -208 0
v -160 -224 0
v -176 -224 0
v -176 -208 0
v -160 -208 0
v -144 -224 0
v -160 -224 0
v -160 -208 0
v -144 -208 0
v -128 -224 0
v -144 -224 0
v -144 -208 0
v -128 -208 0
v -112 -224 0
v -128 -224 0
v -128 -208 0
v -112 -208 0
v -96 -224 0
v -112 -224 0
v -112 -208 0
v -96 -208 0
v -80 -224 0
v -96 -224 0
v -96 -208 0
v -80 -208 0
v -64 -224 0
v -80 -224 0
v -80 -208 0
v -64 -208 0
v -560 -240 0
v -576 -240 0
v -576 -224 0
v -560 -224 0
v -544 -240 0
v -560 -240 0
v -560 -224 0
v -544 -224 0
v -528 -240 0
v -544 -240 0
v -544 -224 0
v -528 -224 0
v -512 -240 0
v -528 -240 0
v -528 -224 0
v -512 -224 0
v -496 -240 0
v -512 -240 0
v -512 -224 0
v -496 -224 0
v -480 -240 0
v -496 -240 0
v -496 -224 0
v -480 -224 0
v -464 -240 0
v -480 -240 0
v -480 -224 0
v -464 -224 0
v -448 -240 0
v -464 -240 0
v -464 -224 0
v -448 -224 0
v -432 -240 0
v -448 -240 0
v -448 -224 0
v -432 -224 0
v -192 -240 0
v -208 -240 0
v -208 -224 0
v -192 -224 0
v -176 -240 0
v -192 -240 0
v -192 -224 0
v -176 -224 0
v -160 -240 0
v -176 -240 0
v -176 -224 0
v -160 -224 0
v -144 -240 0
v -160 -240 0
v -160 -224 0
v -144 -224 0
v -128 -240 0
v -144 -240 0
v -144 -224 0
v -128 -224 0
v -112 -240 0
v -128 -240 0
v -128 -224 0
v -112 -224 0
v -96 -240 0
v -112 -240 0
v -112 -224 0
v -96 -224 0
v -80 -240 0
v -96 -240 0
v -96 -224 0
v -80 -224 0
v -64 -240 0
v -80 -240 0
v -80 -224 0
v -64 -224 0
v -560 -256 0
v -576 -256 0
v -576 -240 0
v -560 -240 0
v -544 -256 0
v -560 -256 0
v -560 -240 0
v -544 -240 0
v -528 -256 0
v -544 -256 0
v -544 -240 0
v -528 -240 0
v -512 -256 0
v -528 -256 0
v -528 -240 0
v -512 -240 0
v -496 -256 0
v -512 -256 0
v -512 -240 0
v -496 -240 0
v -480 -256 0
v -496 -256 0
v -496 -240 0
v -480 -240 0
v -464 -256 0
v -480 -256 0
v -480 -240 0
v -464 -240 0
v -448 -256 0
v -464 -256 0
v -464 -240 0
v -448 -240 0
v -432 -256 0
v -448 -256 0
v -448 -240 0
v -432 -240 0
v -192 -256 0
v -208 -256 0
v -208 -240 0
v -192 -240 0
v -176 -256 0
v -192 -256 0
v -192 -240 0
v -176 -240 0
v -160 -256 0
v -176 -256 0
v -176 -240 0
v -160 -240 0
v -144 -256 0
v -160 -256 0
v -160 -240 0
v -144 -240 0
v -128 -256 0
v -144 -256 0
v -144 -240 0
v -128 -240 0
v -112 -256 0
v -128 -256 0
v -128 -240 0
v -112 -240 0
v -96 -256 0
v -112 -256 0
v -112 -240 0
v -96 -240 0
v -80 -256 0
v -96 -256 0
v -96 -240 0
v -80 -240 0
v -64 -256 0
v -80 -256 0
v -80 -240 0
v -64 -240 0

# Texture cooridinates (Count = 116)
vt 0.2107438 0.6292776
vt 0.2272727 0.6292776
vt 0.2272727 0.6444867
vt 0.2107438 0.6444867
vt 0.1931818 0.6292776
vt 0.2097107 0.6292776
vt 0.2097107 0.6444867
vt 0.1931818 0.6444867
vt 0.1756198 0.6292776
vt 0.1921488 0.6292776
vt 0.1921488 0.6444867
vt 0.1756198 0.6444867
vt 0.2107438 0.6131179
vt 0.2272727 0.6131179
vt 0.2272727 0.628327
vt 0.2107438 0.628327
vt 0.1931818 0.6131179
vt 0.2097107 0.6131179
vt 0.2097107 0.628327
vt 0.1931818 0.628327
vt 0.1756198 0.6131179
vt 0.1921488 0.6131179
vt 0.1921488 0.628327
vt 0.1756198 0.628327
vt 0.2107438 0.6777567
vt 0.2272727 0.6777567
vt 0.2272727 0.6929657
vt 0.2107438 0.6929657
vt 0.1931818 0.6777567
vt 0.2097107 0.6777567
vt 0.2097107 0.6929657
vt 0.1931818 0.6929657
vt 0.1229339 0.6454372
vt 0.1394628 0.6454372
vt 0.1394628 0.6606464
vt 0.1229339 0.6606464
vt 0.1756198 0.6777567
vt 0.1921488 0.6777567
vt 0.1921488 0.6929657
vt 0.1756198 0.6929657
vt 0.2107438 0.7262357
vt 0.2272727 0.7262357
vt 0.2272727 0.7414448
vt 0.2107438 0.7414448
vt 0.1931818 0.7262357
vt 0.2097107 0.7262357
vt 0.2097107 0.7414448
vt 0.1931818 0.7414448
vt 0.2283058 0.7423954
vt 0.2448347 0.7423954
vt 0.2448347 0.7576046
vt 0.2283058 0.7576046
vt 0.1756198 0.7262357
vt 0.1921488 0.7262357
vt 0.1921488 0.7414448
vt 0.1756198 0.7414448
vt 0.2107438 0.661597
vt 0.2272727 0.661597
vt 0.2272727 0.6768061
vt 0.2107438 0.6768061
vt 0.1931818 0.661597
vt 0.2097107 0.661597
vt 0.2097107 0.6768061
vt 0.1931818 0.6768061
vt 0.1756198 0.661597
vt 0.1921488 0.661597
vt 0.1921488 0.6768061
vt 0.1756198 0.6768061
vt 0.2107438 0.5969582
vt 0.2272727 0.5969582
vt 0.2272727 0.6121673
vt 0.2107438 0.6121673
vt 0.1931818 0.5969582
vt 0.2097107 0.5969582
vt 0.2097107 0.6121673
vt 0.1931818 0.6121673
vt 0.1756198 0.5969582
vt 0.1921488 0.5969582
vt 0.1921488 0.6121673
vt 0.1756198 0.6121673
vt 0.2107438 0.710076
vt 0.2272727 0.710076
vt 0.2272727 0.7252852
vt 0.2107438 0.7252852
vt 0.1931818 0.710076
vt 0.2097107 0.710076
vt 0.2097107 0.7252852
vt 0.1931818 0.7252852
vt 0.1756198 0.710076
vt 0.1921488 0.710076
vt 0.1921488 0.7252852
vt 0.1756198 0.7252852
vt 0.2107438 0.6454372
vt 0.2272727 0.6454372
vt 0.2272727 0.6606464
vt 0.2107438 0.6606464
vt 0.1931818 0.6454372
vt 0.2097107 0.6454372
vt 0.2097107 0.6606464
vt 0.1931818 0.6606464
vt 0.1756198 0.6454372
vt 0.1921488 0.6454372
vt 0.1921488 0.6606464
vt 0.1756198 0.6606464
vt 0.2107438 0.6939163
vt 0.2272727 0.6939163
vt 0.2272727 0.7091255
vt 0.2107438 0.7091255
vt 0.1931818 0.6939163
vt 0.2097107 0.6939163
vt 0.2097107 0.7091255
vt 0.1931818 0.7091255
vt 0.1756198 0.6939163
vt 0.1921488 0.6939163
vt 0.1921488 0.7091255
vt 0.1756198 0.7091255

# Normal
vn 0 0 -1

# Mesh description
g shop_mesh_0002

# Faces
f 1/1/1 2/2/1 3/3/1 4/4/1
f 5/5/1 6/6/1 7/7/1 8/8/1
f 9/5/1 10/6/1 11/7/1 12/8/1
f 13/5/1 14/6/1 15/7/1 16/8/1
f 17/5/1 18/6/1 19/7/1 20/8/1
f 21/5/1 22/6/1 23/7/1 24/8/1
f 25/5/1 26/6/1 27/7/1 28/8/1
f 29/9/1 30/10/1 31/11/1 32/12/1
f 33/13/1 34/14/1 35/15/1 36/16/1
f 37/17/1 38/18/1 39/19/1 40/20/1
f 41/17/1 42/18/1 43/19/1 44/20/1
f 45/17/1 46/18/1 47/19/1 48/20/1
f 49/17/1 50/18/1 51/19/1 52/20/1
f 53/17/1 54/18/1 55/19/1 56/20/1
f 57/17/1 58/18/1 59/19/1 60/20/1
f 61/21/1 62/22/1 63/23/1 64/24/1
f 65/13/1 66/14/1 67/15/1 68/16/1
f 69/17/1 70/18/1 71/19/1 72/20/1
f 73/17/1 74/18/1 75/19/1 76/20/1
f 77/17/1 78/18/1 79/19/1 80/20/1
f 81/17/1 82/18/1 83/19/1 84/20/1
f 85/17/1 86/18/1 87/19/1 88/20/1
f 89/17/1 90/18/1 91/19/1 92/20/1
f 93/21/1 94/22/1 95/23/1 96/24/1
f 97/25/1 98/26/1 99/27/1 100/28/1
f 101/29/1 102/30/1 103/31/1 104/32/1
f 105/29/1 106/30/1 107/31/1 108/32/1
f 109/29/1 110/30/1 111/31/1 112/32/1
f 113/33/1 114/34/1 115/35/1 116/36/1
f 117/29/1 118/30/1 119/31/1 120/32/1
f 121/29/1 122/30/1 123/31/1 124/32/1
f 125/29/1 126/30/1 127/31/1 128/32/1
f 129/37/1 130/38/1 131/39/1 132/40/1
f 133/13/1 134/14/1 135/15/1 136/16/1
f 137/17/1 138/18/1 139/19/1 140/20/1
f 141/17/1 142/18/1 143/19/1 144/20/1
f 145/17/1 146/18/1 147/19/1 148/20/1
f 149/17/1 150/18/1 151/19/1 152/20/1
f 153/17/1 154/18/1 155/19/1 156/20/1
f 157/17/1 158/18/1 159/19/1 160/20/1
f 161/21/1 162/22/1 163/23/1 164/24/1
f 165/41/1 166/42/1 167/43/1 168/44/1
f 169/45/1 170/46/1 171/47/1 172/48/1
f 173/49/1 174/50/1 175/51/1 176/52/1
f 177/49/1 178/50/1 179/51/1 180/52/1
f 181/49/1 182/50/1 183/51/1 184/52/1
f 185/49/1 186/50/1 187/51/1 188/52/1
f 189/49/1 190/50/1 191/51/1 192/52/1
f 193/45/1 194/46/1 195/47/1 196/48/1
f 197/53/1 198/54/1 199/55/1 200/56/1
f 201/57/1 202/58/1 203/59/1 204/60/1
f 205/61/1 206/62/1 207/63/1 208/64/1
f 209/61/1 210/62/1 211/63/1 212/64/1
f 213/61/1 214/62/1 215/63/1 216/64/1
f 217/61/1 218/62/1 219/63/1 220/64/1
f 221/61/1 222/62/1 223/63/1 224/64/1
f 225/61/1 226/62/1 227/63/1 228/64/1
f 229/61/1 230/62/1 231/63/1 232/64/1
f 233/65/1 234/66/1 235/67/1 236/68/1
f 237/69/1 238/70/1 239/71/1 240/72/1
f 241/73/1 242/74/1 243/75/1 244/76/1
f 245/73/1 246/74/1 247/75/1 248/76/1
f 249/73/1 250/74/1 251/75/1 252/76/1
f 253/73/1 254/74/1 255/75/1 256/76/1
f 257/73/1 258/74/1 259/75/1 260/76/1
f 261/73/1 262/74/1 263/75/1 264/76/1
f 265/77/1 266/78/1 267/79/1 268/80/1
f 269/81/1 270/82/1 271/83/1 272/84/1
f 273/85/1 274/86/1 275/87/1 276/88/1
f 277/85/1 278/86/1 279/87/1 280/88/1
f 281/85/1 282/86/1 283/87/1 284/88/1
f 285/85/1 286/86/1 287/87/1 288/88/1
f 289/85/1 290/86/1 291/87/1 292/88/1
f 293/85/1 294/86/1 295/87/1 296/88/1
f 297/85/1 298/86/1 299/87/1 300/88/1
f 301/89/1 302/90/1 303/91/1 304/92/1
f 305/57/1 306/58/1 307/59/1 308/60/1
f 309/61/1 310/62/1 311/63/1 312/64/1
f 313/61/1 314/62/1 315/63/1 316/64/1
f 317/61/1 318/62/1 319/63/1 320/64/1
f 321/61/1 322/62/1 323/63/1 324/64/1
f 325/61/1 326/62/1 327/63/1 328/64/1
f 329/61/1 330/62/1 331/63/1 332/64/1
f 333/61/1 334/62/1 335/63/1 336/64/1
f 337/65/1 338/66/1 339/67/1 340/68/1
f 341/81/1 342/82/1 343/83/1 344/84/1
f 345/85/1 346/86/1 347/87/1 348/88/1
f 349/85/1 350/86/1 351/87/1 352/88/1
f 353/85/1 354/86/1 355/87/1 356/88/1
f 357/85/1 358/86/1 359/87/1 360/88/1
f 361/85/1 362/86/1 363/87/1 364/88/1
f 365/85/1 366/86/1 367/87/1 368/88/1
f 369/85/1 370/86/1 371/87/1 372/88/1
f 373/89/1 374/90/1 375/91/1 376/92/1
f 377/57/1 378/58/1 379/59/1 380/60/1
f 381/61/1 382/62/1 383/63/1 384/64/1
f 385/61/1 386/62/1 387/63/1 388/64/1
f 389/61/1 390/62/1 391/63/1 392/64/1
f 393/61/1 394/62/1 395/63/1 396/64/1
f 397/61/1 398/62/1 399/63/1 400/64/1
f 401/61/1 402/62/1 403/63/1 404/64/1
f 405/61/1 406/62/1 407/63/1 408/64/1
f 409/65/1 410/66/1 411/67/1 412/68/1
f 413/81/1 414/82/1 415/83/1 416/84/1
f 417/85/1 418/86/1 419/87/1 420/88/1
f 421/85/1 422/86/1 423/87/1 424/88/1
f 425/85/1 426/86/1 427/87/1 428/88/1
f 429/85/1 430/86/1 431/87/1 432/88/1
f 433/85/1 434/86/1 435/87/1 436/88/1
f 437/85/1 438/86/1 439/87/1 440/88/1
f 441/85/1 442/86/1 443/87/1 444/88/1
f 445/89/1 446/90/1 447/91/1 448/92/1
f 449/57/1 450/58/1 451/59/1 452/60/1
f 453/61/1 454/62/1 455/63/1 456/64/1
f 457/61/1 458/62/1 459/63/1 460/64/1
f 461/61/1 462/62/1 463/63/1 464/64/1
f 465/61/1 466/62/1 467/63/1 468/64/1
f 469/61/1 470/62/1 471/63/1 472/64/1
f 473/61/1 474/62/1 475/63/1 476/64/1
f 477/61/1 478/62/1 479/63/1 480/64/1
f 481/65/1 482/66/1 483/67/1 484/68/1
f 485/81/1 486/82/1 487/83/1 488/84/1
f 489/85/1 490/86/1 491/87/1 492/88/1
f 493/85/1 494/86/1 495/87/1 496/88/1
f 497/85/1 498/86/1 499/87/1 500/88/1
f 501/85/1 502/86/1 503/87/1 504/88/1
f 505/85/1 506/86/1 507/87/1 508/88/1
f 509/85/1 510/86/1 511/87/1 512/88/1
f 513/85/1 514/86/1 515/87/1 516/88/1
f 517/89/1 518/90/1 519/91/1 520/92/1
f 521/93/1 522/94/1 523/95/1 524/96/1
f 525/97/1 526/98/1 527/99/1 528/100/1
f 529/97/1 530/98/1 531/99/1 532/100/1
f 533/97/1 534/98/1 535/99/1 536/100/1
f 537/97/1 538/98/1 539/99/1 540/100/1
f 541/97/1 542/98/1 543/99/1 544/100/1
f 545/97/1 546/98/1 547/99/1 548/100/1
f 549/97/1 550/98/1 551/99/1 552/100/1
f 553/101/1 554/102/1 555/103/1 556/104/1
f 557/105/1 558/106/1 559/107/1 560/108/1
f 561/109/1 562/110/1 563/111/1 564/112/1
f 565/109/1 566/110/1 567/111/1 568/112/1
f 569/109/1 570/110/1 571/111/1 572/112/1
f 573/109/1 574/110/1 575/111/1 576/112/1
f 577/109/1 578/110/1 579/111/1 580/112/1
f 581/109/1 582/110/1 583/111/1 584/112/1
f 585/109/1 586/110/1 587/111/1 588/112/1
f 589/113/1 590/114/1 591/115/1 592/116/1

