# Tiled2Unity generated file. Do not modify by hand.
# Wavefront file for 'shop_mesh_0006.obj'

# Vertices (Count = 116)
v -80 -16 0
v -96 -16 0
v -96 0 0
v -80 0 0
v -48 -16 0
v -64 -16 0
v -64 0 0
v -48 0 0
v -32 -16 0
v -48 -16 0
v -48 0 0
v -32 0 0
v 0 -16 0
v -16 -16 0
v -16 0 0
v 0 0 0
v -48 -32 0
v -64 -32 0
v -64 -16 0
v -48 -16 0
v -32 -32 0
v -48 -32 0
v -48 -16 0
v -32 -16 0
v -16 -32 0
v -32 -32 0
v -32 -16 0
v -16 -16 0
v -16 -48 0
v -32 -48 0
v -32 -32 0
v -16 -32 0
v -320 -64 0
v -336 -64 0
v -336 -48 0
v -320 -48 0
v -304 -64 0
v -320 -64 0
v -320 -48 0
v -304 -48 0
v 0 -64 0
v -16 -64 0
v -16 -48 0
v 0 -48 0
v -336 -80 0
v -352 -80 0
v -352 -64 0
v -336 -64 0
v -288 -80 0
v -304 -80 0
v -304 -64 0
v -288 -64 0
v -352 -96 0
v -368 -96 0
v -368 -80 0
v -352 -80 0
v -272 -96 0
v -288 -96 0
v -288 -80 0
v -272 -80 0
v -336 -160 0
v -352 -160 0
v -352 -144 0
v -336 -144 0
v -512 -176 0
v -528 -176 0
v -528 -160 0
v -512 -160 0
v -496 -176 0
v -512 -176 0
v -512 -160 0
v -496 -160 0
v -480 -176 0
v -496 -176 0
v -496 -160 0
v -480 -160 0
v -336 -176 0
v -352 -176 0
v -352 -160 0
v -336 -160 0
v -320 -176 0
v -336 -176 0
v -336 -160 0
v -320 -160 0
v -288 -176 0
v -304 -176 0
v -304 -160 0
v -288 -160 0
v -528 -192 0
v -544 -192 0
v -544 -176 0
v -528 -176 0
v -512 -192 0
v -528 -192 0
v -528 -176 0
v -512 -176 0
v -496 -192 0
v -512 -192 0
v -512 -176 0
v -496 -176 0
v -480 -192 0
v -496 -192 0
v -496 -176 0
v -480 -176 0
v -464 -192 0
v -480 -192 0
v -480 -176 0
v -464 -176 0
v -512 -224 0
v -528 -224 0
v -528 -208 0
v -512 -208 0
v -144 -224 0
v -160 -224 0
v -160 -208 0
v -144 -208 0

# Texture cooridinates (Count = 56)
vt 0.05268595 0.8231939
vt 0.06921487 0.8231939
vt 0.06921487 0.838403
vt 0.05268595 0.838403
vt 0.05268595 0.7747148
vt 0.06921487 0.7747148
vt 0.06921487 0.789924
vt 0.05268595 0.789924
vt 0.05268595 0.871673
vt 0.06921487 0.871673
vt 0.06921487 0.8868821
vt 0.05268595 0.8868821
vt 0.4039256 0.6454372
vt 0.4204545 0.6454372
vt 0.4204545 0.6606464
vt 0.4039256 0.6606464
vt 0.3863636 0.6454372
vt 0.4028926 0.6454372
vt 0.4028926 0.6606464
vt 0.3863636 0.6606464
vt 0.3688017 0.6454372
vt 0.3853306 0.6454372
vt 0.3853306 0.6606464
vt 0.3688017 0.6606464
vt 0.3512397 0.6454372
vt 0.3677686 0.6454372
vt 0.3677686 0.6606464
vt 0.3512397 0.6606464
vt 0.6673554 0.8231939
vt 0.6838843 0.8231939
vt 0.6838843 0.838403
vt 0.6673554 0.838403
vt 0.2799587 0.9847909
vt 0.2634298 0.9847909
vt 0.2634298 1
vt 0.2799587 1
vt 0.8956612 0.3222433
vt 0.9121901 0.3222433
vt 0.9121901 0.3374525
vt 0.8956612 0.3374525
vt 0.8605372 0.7423954
vt 0.8770661 0.7423954
vt 0.8770661 0.7576046
vt 0.8605372 0.7576046
vt 0.7551653 0.7423954
vt 0.7716942 0.7423954
vt 0.7716942 0.7576046
vt 0.7551653 0.7576046
vt 0.8780992 0.7423954
vt 0.8946281 0.7423954
vt 0.8946281 0.7576046
vt 0.8780992 0.7576046
vt 0.2634298 0.6292776
vt 0.2799587 0.6292776
vt 0.2799587 0.6444867
vt 0.2634298 0.6444867

# Normal
vn 0 0 -1

# Mesh description
g shop_mesh_0006

# Faces
f 1/1/1 2/2/1 3/3/1 4/4/1
f 5/5/1 6/6/1 7/7/1 8/8/1
f 9/1/1 10/2/1 11/3/1 12/4/1
f 13/9/1 14/10/1 15/11/1 16/12/1
f 17/1/1 18/2/1 19/3/1 20/4/1
f 21/9/1 22/10/1 23/11/1 24/12/1
f 25/5/1 26/6/1 27/7/1 28/8/1
f 29/5/1 30/6/1 31/7/1 32/8/1
f 33/13/1 34/14/1 35/15/1 36/16/1
f 37/17/1 38/18/1 39/19/1 40/20/1
f 41/9/1 42/10/1 43/11/1 44/12/1
f 45/21/1 46/22/1 47/23/1 48/24/1
f 49/25/1 50/26/1 51/27/1 52/28/1
f 53/21/1 54/22/1 55/23/1 56/24/1
f 57/25/1 58/26/1 59/27/1 60/28/1
f 61/29/1 62/30/1 63/31/1 64/32/1
f 65/33/1 66/34/1 67/35/1 68/36/1
f 69/37/1 70/38/1 71/39/1 72/40/1
f 73/34/1 74/33/1 75/36/1 76/35/1
f 77/41/1 78/42/1 79/43/1 80/44/1
f 81/45/1 82/46/1 83/47/1 84/48/1
f 85/49/1 86/50/1 87/51/1 88/52/1
f 89/53/1 90/54/1 91/55/1 92/56/1
f 93/53/1 94/54/1 95/55/1 96/56/1
f 97/53/1 98/54/1 99/55/1 100/56/1
f 101/53/1 102/54/1 103/55/1 104/56/1
f 105/53/1 106/54/1 107/55/1 108/56/1
f 109/29/1 110/30/1 111/31/1 112/32/1
f 113/29/1 114/30/1 115/31/1 116/32/1

