# Tiled2Unity generated file. Do not modify by hand.
# Wavefront file for 'shop_mesh_0004.obj'

# Vertices (Count = 56)
v -528 -176 0
v -544 -176 0
v -544 -160 0
v -528 -160 0
v -512 -176 0
v -528 -176 0
v -528 -160 0
v -512 -160 0
v -496 -176 0
v -512 -176 0
v -512 -160 0
v -496 -160 0
v -480 -176 0
v -496 -176 0
v -496 -160 0
v -480 -160 0
v -464 -176 0
v -480 -176 0
v -480 -160 0
v -464 -160 0
v -352 -176 0
v -368 -176 0
v -368 -160 0
v -352 -160 0
v -272 -176 0
v -288 -176 0
v -288 -160 0
v -272 -160 0
v -544 -192 0
v -560 -192 0
v -560 -176 0
v -544 -176 0
v -512 -192 0
v -528 -192 0
v -528 -176 0
v -512 -176 0
v -496 -192 0
v -512 -192 0
v -512 -176 0
v -496 -176 0
v -480 -192 0
v -496 -192 0
v -496 -176 0
v -480 -176 0
v -448 -192 0
v -464 -192 0
v -464 -176 0
v -448 -176 0
v -176 -192 0
v -192 -192 0
v -192 -176 0
v -176 -176 0
v -80 -192 0
v -96 -192 0
v -96 -176 0
v -80 -176 0

# Texture cooridinates (Count = 28)
vt 0.2458678 0.710076
vt 0.2623967 0.710076
vt 0.2623967 0.7252852
vt 0.2458678 0.7252852
vt 0.1931818 0.9363118
vt 0.2097107 0.9363118
vt 0.2097107 0.9515209
vt 0.1931818 0.9515209
vt 0.1756198 0.9363118
vt 0.1921488 0.9363118
vt 0.1921488 0.9515209
vt 0.1756198 0.9515209
vt 0.2283058 0.6777567
vt 0.2448347 0.6777567
vt 0.2448347 0.6929657
vt 0.2283058 0.6929657
vt 0.1580579 0.6454372
vt 0.1745868 0.6454372
vt 0.1745868 0.6606464
vt 0.1580579 0.6606464
vt 0.1404959 0.6292776
vt 0.1570248 0.6292776
vt 0.1570248 0.6444867
vt 0.1404959 0.6444867
vt 0.1229339 0.6454372
vt 0.1394628 0.6454372
vt 0.1394628 0.6606464
vt 0.1229339 0.6606464

# Normal
vn 0 0 -1

# Mesh description
g shop_mesh_0004

# Faces
f 1/1/1 2/2/1 3/3/1 4/4/1
f 5/1/1 6/2/1 7/3/1 8/4/1
f 9/1/1 10/2/1 11/3/1 12/4/1
f 13/1/1 14/2/1 15/3/1 16/4/1
f 17/1/1 18/2/1 19/3/1 20/4/1
f 21/5/1 22/6/1 23/7/1 24/8/1
f 25/9/1 26/10/1 27/11/1 28/12/1
f 29/13/1 30/14/1 31/15/1 32/16/1
f 33/17/1 34/18/1 35/19/1 36/20/1
f 37/21/1 38/22/1 39/23/1 40/24/1
f 41/25/1 42/26/1 43/27/1 44/28/1
f 45/13/1 46/14/1 47/15/1 48/16/1
f 49/13/1 50/14/1 51/15/1 52/16/1
f 53/13/1 54/14/1 55/15/1 56/16/1

